if (_typeface_js && _typeface_js.loadFace) _typeface_js.loadFace({"glyphs":{"0":{"ha":778,"x_min":54,"x_max":722,"o":"m 630 576 q 676 529 630 576 q 722 328 722 482 q 628 76 722 174 q 388 -21 535 -21 q 147 75 240 -21 q 54 325 54 171 q 149 574 54 478 q 390 671 243 671 q 630 576 538 671 m 643 325 q 572 519 643 443 q 388 594 500 594 q 203 521 274 594 q 133 328 133 447 q 205 132 133 208 q 390 56 276 56 q 573 131 503 56 q 643 325 643 206 z "},"1":{"ha":508,"x_min":58,"x_max":443,"o":"m 443 0 l 89 0 l 93 47 l 192 61 q 215 86 215 69 l 215 578 l 58 586 l 63 626 l 313 667 l 313 86 q 338 61 313 65 l 439 47 l 443 0 z "},"2":{"ha":647,"x_min":46,"x_max":610,"o":"m 610 224 l 593 0 l 51 0 l 46 72 q 301 281 246 226 q 399 449 397 376 q 358 543 399 504 q 251 582 318 582 q 89 486 156 582 l 63 503 q 159 626 94 582 q 307 671 224 671 q 452 619 392 671 q 513 486 513 567 q 504 425 513 454 q 470 363 496 396 q 426 310 444 331 q 355 248 407 289 q 276 188 303 207 q 174 115 249 168 q 140 92 151 100 l 140 85 l 219 85 q 379 87 326 85 q 469 98 432 89 q 518 120 506 107 q 542 161 531 133 l 567 224 l 610 224 z "},"3":{"ha":581,"x_min":17,"x_max":538,"o":"m 297 253 l 297 250 q 470 192 403 249 q 538 39 538 135 q 429 -182 538 -85 q 178 -279 321 -279 q 60 -251 104 -279 q 17 -183 17 -222 q 35 -136 17 -154 q 82 -118 54 -118 q 146 -149 118 -118 q 181 -218 174 -179 q 219 -222 200 -222 q 364 -162 300 -222 q 428 -12 428 -103 q 378 123 428 72 q 244 174 329 174 q 128 149 182 174 l 113 185 q 164 217 128 194 q 217 252 200 240 q 263 285 233 264 q 306 321 292 306 q 338 357 321 336 q 361 399 354 378 q 368 443 368 421 q 328 543 368 501 q 224 585 288 585 q 58 488 129 585 l 31 503 l 31 504 q 131 626 61 582 q 286 671 201 671 q 428 620 372 671 q 485 493 485 569 q 440 367 485 424 q 297 253 394 310 z "},"4":{"ha":646,"x_min":10,"x_max":654,"o":"m 644 32 l 499 32 l 499 -256 l 400 -256 l 400 32 l 14 32 l 10 81 l 451 665 l 499 665 l 499 115 l 654 115 l 644 32 m 400 115 l 400 515 l 396 515 l 96 115 l 400 115 z "},"5":{"ha":582,"x_min":15,"x_max":535,"o":"m 151 354 q 517 33 517 253 q 415 -185 517 -92 q 175 -279 313 -279 q 60 -253 106 -279 q 15 -187 15 -226 q 35 -140 15 -158 q 81 -122 54 -122 q 144 -151 118 -122 q 178 -219 171 -179 q 217 -222 192 -222 q 363 -160 301 -222 q 424 -10 424 -97 q 71 272 424 176 l 168 653 l 535 653 l 532 549 l 200 549 l 151 354 z "},"6":{"ha":694,"x_min":53,"x_max":656,"o":"m 639 272 q 553 58 639 140 q 340 -25 468 -25 q 131 75 208 -25 q 53 315 53 175 q 228 715 53 543 q 646 906 404 886 l 656 865 q 347 726 468 839 q 181 450 226 613 l 183 449 q 388 535 276 535 q 571 459 503 535 q 639 272 639 383 m 536 235 q 481 401 536 336 q 344 465 425 465 q 176 397 250 465 q 164 311 164 379 q 221 113 164 197 q 369 28 278 28 q 491 89 446 28 q 536 235 536 150 z "},"7":{"ha":642,"x_min":38,"x_max":617,"o":"m 617 593 l 186 -257 l 114 -257 l 531 549 l 531 556 l 286 556 q 153 549 178 556 q 117 515 128 543 q 82 432 83 438 l 38 432 l 65 653 l 610 653 l 617 593 z "},"8":{"ha":676,"x_min":56,"x_max":621,"o":"m 621 221 q 540 48 621 117 q 322 -21 460 -21 q 134 44 213 -21 q 56 204 56 108 q 108 340 56 282 q 247 432 161 397 l 247 433 q 76 653 76 519 q 149 815 76 743 q 346 886 222 886 q 519 824 447 886 q 590 671 590 763 q 426 460 590 535 l 426 458 q 570 359 519 413 q 621 221 621 306 m 492 663 q 444 789 492 733 q 321 844 396 844 q 212 800 254 844 q 169 693 169 756 q 185 623 169 654 q 238 564 201 592 q 303 520 275 536 q 389 476 332 504 q 492 663 492 547 m 529 182 q 525 217 529 200 q 516 248 521 235 q 498 276 511 261 q 478 301 485 292 q 451 324 471 310 q 422 344 431 338 q 388 363 414 350 q 355 381 363 376 q 317 399 347 385 q 282 415 288 413 q 157 211 157 325 q 212 77 157 131 q 354 24 267 24 q 482 69 435 24 q 529 182 529 114 z "},"9":{"ha":694,"x_min":38,"x_max":640,"o":"m 640 336 q 558 53 640 185 q 340 -160 476 -79 q 47 -254 204 -242 l 38 -214 q 346 -74 225 -187 q 514 201 467 39 l 510 203 q 306 117 421 117 q 123 192 192 117 q 54 379 54 268 q 140 593 54 511 q 353 675 225 675 q 563 576 485 675 q 640 336 640 476 m 529 340 q 472 538 529 453 q 325 622 415 622 q 203 562 249 622 q 158 415 158 501 q 213 249 158 314 q 349 185 268 185 q 517 254 442 185 q 529 340 529 272 z "}," ":{"ha":317,"x_min":0,"x_max":0,"o":""},"!":{"ha":390,"x_min":115,"x_max":274,"o":"m 263 836 l 210 275 q 196 267 208 267 q 182 275 183 267 l 131 836 q 140 874 128 861 q 186 888 151 888 l 207 888 q 253 874 242 888 q 263 836 265 861 m 252 113 q 263 101 252 113 q 274 58 274 90 q 252 3 274 26 q 196 -21 231 -21 q 139 3 163 -21 q 115 58 115 26 q 139 112 115 89 q 196 135 163 135 q 252 113 231 135 z "},"\"":{"ha":493,"x_min":24,"x_max":490,"o":"m 490 863 l 288 560 l 242 560 l 388 899 l 389 899 l 490 863 m 274 863 l 69 560 l 24 560 l 169 899 l 171 899 l 274 863 z "},"#":{"ha":779,"x_min":-3,"x_max":797,"o":"m 797 564 l 604 564 l 533 300 l 714 300 l 714 251 l 521 251 l 450 -8 l 400 -8 l 471 251 l 226 251 l 157 -8 l 107 -8 l 176 251 l -3 251 l -3 300 l 190 300 l 261 564 l 82 564 l 82 613 l 274 613 l 346 876 l 396 876 l 325 613 l 567 613 l 639 876 l 689 876 l 617 613 l 797 613 l 797 564 m 483 300 l 554 564 l 313 564 l 240 300 l 483 300 z "},"$":{"ha":692,"x_min":69,"x_max":636,"o":"m 244 -17 l 188 -231 l 138 -231 l 196 -11 q 88 19 144 -1 l 69 263 l 115 263 l 179 72 q 215 58 190 65 l 310 408 q 142 504 199 453 q 86 651 86 556 q 159 817 86 750 q 368 886 232 885 q 436 885 417 886 l 474 1025 l 525 1025 q 485 879 486 879 q 522 872 500 878 l 596 893 l 596 619 l 546 619 l 504 792 q 465 806 475 803 l 383 497 q 482 456 446 474 q 558 408 518 439 q 617 335 599 378 q 636 235 636 292 q 550 55 636 129 q 322 -21 464 -19 q 244 -17 282 -21 m 338 515 l 418 819 q 343 829 375 829 q 223 789 265 829 q 181 690 181 749 q 221 584 181 622 q 338 515 261 546 m 356 390 q 261 44 261 46 q 350 36 317 35 q 488 83 438 38 q 539 194 539 129 q 493 314 539 274 q 356 390 447 354 z "},"%":{"ha":1036,"x_min":24,"x_max":1013,"o":"m 485 669 q 422 507 485 574 q 254 440 358 440 q 88 507 151 440 q 24 669 24 574 q 87 834 24 767 q 254 901 150 901 q 422 835 358 901 q 485 669 485 768 m 908 888 l 201 -21 l 129 -21 l 838 888 l 908 888 m 1013 197 q 949 33 1013 100 q 782 -35 886 -35 q 615 32 678 -35 q 551 197 551 99 q 615 360 551 293 q 782 426 678 426 q 949 360 885 426 q 1013 197 1013 293 m 419 669 q 375 792 419 743 q 254 842 331 842 q 133 792 178 842 q 89 669 89 743 q 134 550 89 600 q 254 500 179 500 q 374 550 329 500 q 419 669 419 600 m 947 197 q 902 317 947 267 q 782 367 857 367 q 662 317 707 367 q 617 197 617 267 q 661 74 617 124 q 782 25 706 25 q 903 74 858 25 q 947 197 947 124 z "},"&":{"ha":958,"x_min":36,"x_max":957,"o":"m 957 69 q 783 -22 869 -22 q 669 20 717 -22 q 579 156 622 63 q 282 -21 443 -21 q 103 46 169 -21 q 36 207 36 113 q 94 361 36 292 q 240 465 151 431 q 143 545 179 494 q 107 661 107 596 q 178 820 107 754 q 361 886 250 886 q 519 831 460 886 q 578 701 578 776 q 533 577 578 635 q 400 483 489 519 q 524 403 465 456 q 619 288 583 350 q 718 444 717 421 q 711 462 719 456 q 688 471 703 468 l 639 478 l 636 524 l 926 524 l 921 478 l 876 471 q 771 400 808 453 q 647 242 647 243 q 735 101 697 142 q 824 61 772 61 q 936 106 860 61 l 957 69 m 478 686 q 441 790 478 746 q 342 833 404 833 q 238 793 278 833 q 199 696 199 753 q 237 583 199 629 q 354 504 275 538 q 478 686 478 561 m 553 206 q 442 349 506 297 q 282 440 378 401 q 139 244 139 367 q 194 117 138 171 q 332 64 250 64 q 553 206 450 64 z "},"'":{"ha":275,"x_min":24,"x_max":274,"o":"m 274 863 l 69 560 l 24 560 l 169 899 l 171 899 l 274 863 z "},"(":{"ha":549,"x_min":129,"x_max":531,"o":"m 497 -350 q 376 -265 438 -321 q 258 -131 315 -210 q 165 60 201 -51 q 129 290 129 171 q 165 521 129 410 q 258 711 201 632 q 376 846 315 790 q 497 931 438 901 q 531 883 531 886 q 303 656 407 818 q 199 290 199 494 q 231 83 199 183 q 313 -92 263 -18 q 419 -219 364 -165 q 531 -301 475 -272 l 497 -350 z "},")":{"ha":549,"x_min":18,"x_max":419,"o":"m 53 -350 q 18 -303 18 -306 q 246 -76 142 -237 q 350 290 350 86 q 246 656 350 494 q 18 883 142 818 l 53 931 q 173 846 113 901 q 290 711 233 790 q 383 521 347 632 q 419 290 419 410 q 383 60 419 171 q 290 -131 347 -51 q 173 -265 233 -210 q 53 -350 113 -321 z "},"*":{"ha":482,"x_min":44,"x_max":475,"o":"m 475 643 l 399 606 l 275 649 l 261 631 l 339 528 l 328 442 l 299 435 l 240 499 l 243 626 l 222 632 l 150 531 l 65 513 l 46 538 l 90 617 l 210 650 l 210 674 l 90 710 l 44 785 l 61 810 l 150 793 l 222 688 l 244 694 l 244 824 l 300 886 l 331 876 l 342 790 l 261 688 l 275 669 l 399 711 l 475 674 l 475 643 z "},"+":{"ha":667,"x_min":44,"x_max":622,"o":"m 622 292 l 369 292 l 369 33 l 299 33 l 299 292 l 44 292 l 49 360 l 299 360 l 299 617 l 369 617 l 369 360 l 618 360 l 622 292 z "},",":{"ha":314,"x_min":46,"x_max":269,"o":"m 269 29 q 76 -240 269 -100 l 46 -218 q 163 -35 163 -132 q 152 7 163 -12 q 126 38 142 26 q 96 59 111 50 q 70 72 81 68 q 60 78 60 76 q 83 133 60 111 q 147 156 107 156 q 232 119 194 156 q 269 29 269 82 z "},"-":{"ha":456,"x_min":47,"x_max":411,"o":"m 411 290 l 47 290 l 51 361 l 407 361 l 411 290 z "},".":{"ha":317,"x_min":72,"x_max":244,"o":"m 220 124 q 232 112 220 124 q 244 65 244 100 q 220 5 244 31 q 160 -21 196 -21 q 97 5 122 -21 q 72 65 72 31 q 97 124 72 100 q 160 149 122 149 q 220 124 196 149 z "},"/":{"ha":388,"x_min":13,"x_max":372,"o":"m 13 -293 l 310 921 l 372 921 l 75 -293 l 13 -293 z "},":":{"ha":314,"x_min":72,"x_max":244,"o":"m 220 555 q 232 543 220 555 q 244 496 244 531 q 220 436 244 461 q 160 411 196 411 q 97 436 122 411 q 72 496 72 461 q 97 555 72 531 q 160 579 122 579 q 220 555 196 579 m 220 124 q 232 112 220 124 q 244 65 244 100 q 220 5 244 31 q 160 -21 196 -21 q 97 5 122 -21 q 72 65 72 31 q 97 124 72 100 q 160 149 122 149 q 220 124 196 149 z "},";":{"ha":314,"x_min":46,"x_max":269,"o":"m 220 555 q 232 543 220 555 q 244 496 244 531 q 220 436 244 461 q 160 411 196 411 q 97 436 122 411 q 72 496 72 461 q 97 555 72 531 q 160 579 122 579 q 220 555 196 579 m 269 29 q 76 -240 269 -100 l 46 -218 q 163 -35 163 -132 q 152 7 163 -12 q 126 38 142 26 q 96 59 111 50 q 70 72 81 68 q 60 78 60 76 q 83 133 60 111 q 147 156 107 156 q 232 119 194 156 q 269 29 269 82 z "},"<":{"ha":667,"x_min":40,"x_max":613,"o":"m 596 49 l 40 310 l 40 343 l 596 604 l 613 542 l 160 331 l 160 324 l 613 111 l 596 49 z "},"=":{"ha":667,"x_min":58,"x_max":608,"o":"m 604 411 l 63 411 l 58 479 l 608 479 l 604 411 m 608 169 l 58 169 l 63 238 l 604 238 l 608 169 z "},">":{"ha":667,"x_min":54,"x_max":626,"o":"m 626 310 l 71 49 l 54 111 l 507 324 l 507 331 l 54 542 l 71 604 l 626 343 l 626 310 z "},"?":{"ha":496,"x_min":74,"x_max":440,"o":"m 440 658 q 405 546 440 581 q 293 479 369 511 q 248 460 261 467 q 214 442 235 454 q 185 413 193 429 q 176 375 176 397 q 249 256 176 321 l 207 256 q 111 411 111 332 q 149 510 111 476 q 268 576 188 543 q 328 602 310 593 q 367 630 347 611 q 386 671 386 649 q 326 750 386 718 q 172 782 267 782 q 86 774 149 782 q 74 815 74 792 q 102 867 74 847 q 176 888 131 888 q 363 817 286 888 q 440 658 440 747 m 289 58 q 267 3 289 26 q 211 -21 244 -21 q 153 3 176 -21 q 131 58 131 26 q 153 112 131 89 q 211 135 176 135 q 267 112 244 135 q 289 58 289 89 z "},"@":{"ha":1158,"x_min":75,"x_max":1125,"o":"m 679 158 l 728 371 l 710 371 q 458 72 556 72 q 360 115 403 72 q 318 207 318 158 q 367 406 318 290 q 479 583 417 521 q 615 647 543 647 q 701 617 664 647 q 754 538 738 586 l 769 538 l 804 631 l 869 631 l 790 404 l 760 157 q 774 116 756 132 q 835 100 793 100 q 997 187 932 100 q 1069 403 1063 274 q 950 710 1079 588 q 626 838 821 832 q 285 701 431 842 q 131 365 139 561 q 251 15 121 154 q 576 -125 381 -125 q 747 -97 657 -125 l 761 -143 q 572 -175 665 -175 q 209 -22 354 -175 q 75 364 64 132 q 157 630 81 508 q 359 820 233 751 q 629 886 485 889 q 990 744 846 881 q 1125 403 1135 608 q 1029 151 1118 250 q 818 51 940 51 q 698 86 728 51 q 679 158 668 121 m 724 488 q 668 554 707 521 q 588 588 629 588 q 528 565 550 588 q 451 414 489 528 q 413 226 413 300 q 437 159 413 182 q 489 136 461 136 q 578 224 517 136 q 707 432 640 313 q 724 488 724 463 z "},"A":{"ha":829,"x_min":-22,"x_max":851,"o":"m 851 0 l 494 0 l 499 47 l 578 57 q 602 70 596 61 q 605 99 608 79 q 588 161 601 118 l 536 314 l 236 314 l 186 163 q 166 85 165 107 q 190 57 167 63 l 260 47 l 264 0 l -22 0 l -18 47 l 38 57 q 90 97 69 64 q 154 256 110 131 l 347 800 l 347 844 l 463 893 l 731 88 q 765 61 738 65 l 847 47 l 851 0 m 518 371 l 394 761 l 388 761 l 256 371 l 518 371 z "},"B":{"ha":801,"x_min":58,"x_max":749,"o":"m 749 236 q 659 61 749 122 q 407 0 569 0 l 58 0 l 63 47 l 135 56 q 171 75 171 60 l 171 794 q 164 806 171 803 q 135 813 157 810 l 63 821 l 58 868 l 413 868 q 644 815 572 868 q 717 676 717 761 q 658 531 717 593 q 506 453 600 469 l 506 447 q 688 376 626 435 q 749 236 749 318 m 628 226 q 558 370 628 321 q 371 419 488 419 l 285 419 l 285 69 l 393 50 l 433 51 q 572 101 517 56 q 628 226 628 146 m 594 642 q 372 818 594 818 l 285 818 l 285 471 l 394 472 q 543 524 492 474 q 594 642 594 575 z "},"C":{"ha":922,"x_min":64,"x_max":849,"o":"m 849 261 l 815 -1 l 751 13 q 538 -21 649 -21 q 198 99 332 -21 q 64 421 64 218 q 200 760 64 632 q 543 888 336 888 q 736 861 651 888 l 842 883 l 842 601 l 783 601 l 747 782 q 535 833 657 833 q 286 722 382 833 q 190 439 190 611 q 286 144 190 256 q 550 32 382 32 q 729 74 650 32 l 788 261 l 849 261 z "},"D":{"ha":943,"x_min":58,"x_max":881,"o":"m 881 451 q 848 279 881 360 q 753 135 815 199 q 590 36 690 72 q 365 0 490 0 l 58 0 l 63 47 l 135 56 q 171 75 171 60 l 171 794 q 164 806 171 803 q 135 813 157 810 l 63 821 l 58 868 l 367 872 q 740 756 600 874 q 881 451 881 638 m 756 419 q 647 710 756 603 q 338 818 539 818 l 285 818 l 285 69 l 396 51 q 660 158 564 54 q 756 419 756 261 z "},"E":{"ha":810,"x_min":58,"x_max":751,"o":"m 751 246 l 725 0 l 58 0 l 63 47 l 135 56 q 171 75 171 60 l 171 794 q 164 806 171 803 q 135 813 157 810 l 63 821 l 58 868 l 725 868 l 725 617 l 665 617 l 635 757 q 608 797 626 786 q 534 813 589 808 q 338 817 479 817 l 285 817 l 285 468 l 338 468 q 449 472 426 468 q 478 494 472 476 l 508 588 l 557 588 l 528 299 l 482 299 l 471 388 q 463 406 469 400 q 426 415 456 411 q 335 418 397 418 l 285 418 l 285 51 l 322 51 q 536 56 474 51 q 619 72 599 61 q 649 111 639 82 l 683 246 l 751 246 z "},"F":{"ha":774,"x_min":58,"x_max":715,"o":"m 715 617 l 654 617 l 625 757 q 619 774 622 768 q 613 787 617 779 q 600 797 608 794 q 583 804 592 800 q 557 810 575 808 q 521 813 539 811 q 472 816 503 815 q 409 817 440 817 q 328 817 378 817 l 285 817 l 285 460 l 349 460 q 460 464 438 460 q 489 486 482 468 l 521 579 l 568 579 l 539 290 l 493 290 l 483 379 q 458 403 481 397 q 346 410 435 410 l 285 410 l 285 74 q 321 56 285 60 l 421 47 l 425 0 l 58 0 l 63 47 l 135 56 q 171 75 171 60 l 171 794 q 164 806 171 803 q 135 813 157 810 l 63 821 l 58 868 l 715 868 l 715 617 z "},"G":{"ha":983,"x_min":64,"x_max":947,"o":"m 947 382 l 943 336 l 871 328 q 835 307 835 322 l 835 90 l 915 83 l 918 47 q 539 -21 719 -21 q 198 99 332 -21 q 64 421 64 218 q 204 760 64 632 q 551 888 344 888 q 743 861 661 888 l 849 883 l 849 601 l 790 601 l 754 782 q 540 833 667 833 q 290 722 390 833 q 190 439 190 610 q 285 144 190 256 q 544 32 379 32 q 722 67 639 32 l 722 310 q 686 328 722 325 l 599 336 l 594 382 l 947 382 z "},"H":{"ha":1018,"x_min":58,"x_max":960,"o":"m 960 0 l 621 0 l 625 47 l 697 56 q 733 75 733 60 l 733 417 l 285 417 l 285 74 q 321 56 285 60 l 393 47 l 397 0 l 58 0 l 63 47 l 135 56 q 171 75 171 60 l 171 794 q 164 806 171 803 q 135 813 157 810 l 63 821 l 58 868 l 397 868 l 393 821 l 321 813 q 285 793 285 808 l 285 474 l 733 474 l 733 794 q 697 813 733 810 l 625 821 l 621 868 l 960 868 l 956 821 l 883 813 q 847 793 847 808 l 847 74 q 854 62 847 65 q 883 56 861 58 l 956 47 l 960 0 z "},"I":{"ha":488,"x_min":61,"x_max":428,"o":"m 428 0 l 61 0 l 65 47 l 151 56 q 188 75 188 60 l 188 794 q 181 806 188 803 q 151 813 174 810 l 65 821 l 61 868 l 428 868 l 424 821 l 338 813 q 301 793 301 808 l 301 74 q 338 56 301 60 l 424 47 l 428 0 z "},"J":{"ha":540,"x_min":1,"x_max":508,"o":"m 508 868 l 504 821 l 424 813 q 388 793 388 808 l 388 342 q 322 74 388 168 q 135 -21 256 -21 q 38 3 75 -21 q 1 65 1 28 q 19 109 1 93 q 65 125 36 125 q 129 99 101 125 q 167 26 154 74 l 168 26 q 249 102 225 42 q 272 321 272 163 l 272 794 q 236 813 272 810 l 140 821 l 136 868 l 508 868 z "},"K":{"ha":879,"x_min":58,"x_max":872,"o":"m 872 0 l 565 0 l 569 47 l 624 56 q 624 86 642 60 l 379 431 l 285 338 l 285 74 q 321 56 285 60 l 393 47 l 397 0 l 58 0 l 63 47 l 135 56 q 171 75 171 60 l 171 794 q 164 806 171 803 q 135 813 157 810 l 63 821 l 58 868 l 397 868 l 393 821 l 321 813 q 285 793 285 808 l 285 413 l 583 713 q 613 813 681 806 l 542 821 l 538 868 l 869 868 l 865 821 l 807 814 q 703 746 764 807 l 456 500 l 754 100 q 784 65 772 74 q 818 54 796 57 l 868 47 l 872 0 z "},"L":{"ha":785,"x_min":58,"x_max":733,"o":"m 733 276 l 703 0 l 58 0 l 63 47 l 135 56 q 171 75 171 60 l 171 794 q 164 806 171 803 q 135 813 157 810 l 63 821 l 58 868 l 410 868 l 406 821 l 321 813 q 285 793 285 808 l 285 51 l 319 51 q 521 56 461 51 q 600 72 581 61 q 628 111 619 83 l 669 276 l 733 276 z "},"M":{"ha":1172,"x_min":19,"x_max":1135,"o":"m 1135 0 l 781 0 l 785 47 l 875 54 q 895 98 890 57 q 896 251 900 139 l 876 790 l 867 790 l 588 28 l 529 28 l 258 763 l 244 763 l 221 256 q 216 90 214 121 q 233 57 218 58 l 325 47 l 329 0 l 19 0 l 25 47 l 118 57 q 137 69 131 58 q 149 124 143 81 q 160 256 156 168 l 183 713 q 143 806 188 794 l 44 821 l 40 868 l 338 868 l 583 199 l 590 199 l 831 868 l 1121 868 l 1118 821 l 1015 814 q 990 781 993 813 l 1010 251 q 1016 129 1011 172 q 1027 71 1021 86 q 1043 54 1033 56 l 1131 47 l 1135 0 z "},"N":{"ha":1022,"x_min":51,"x_max":990,"o":"m 990 868 l 986 821 l 903 810 q 878 802 886 807 q 865 775 871 797 q 858 718 860 753 q 857 613 857 683 l 857 -11 l 790 -11 l 244 753 l 239 753 l 239 256 q 240 149 239 183 q 246 93 240 115 q 259 66 251 71 q 283 58 267 61 l 367 47 l 371 0 l 51 0 l 56 47 l 139 58 q 163 66 156 61 q 176 93 171 71 q 183 149 182 115 q 183 256 183 183 l 183 714 q 174 777 183 757 q 140 808 164 797 l 61 821 l 57 868 l 297 868 l 797 168 l 801 168 l 801 613 q 795 776 801 747 q 757 810 789 804 l 674 821 l 669 868 l 990 868 z "},"O":{"ha":1026,"x_min":64,"x_max":963,"o":"m 963 438 q 833 114 963 249 q 511 -21 703 -21 q 191 103 318 -21 q 64 426 64 228 q 194 751 64 615 q 515 886 324 886 q 835 761 708 886 q 963 438 963 636 m 836 422 q 740 723 836 610 q 510 836 644 836 q 283 729 375 836 q 190 442 190 622 q 285 141 190 254 q 515 28 381 28 q 743 135 650 28 q 836 422 836 242 z "},"P":{"ha":778,"x_min":58,"x_max":738,"o":"m 738 631 q 642 426 738 500 q 403 351 547 351 q 285 358 347 351 l 285 74 q 321 56 285 60 l 419 47 l 424 0 l 58 0 l 63 47 l 135 56 q 171 75 171 60 l 171 794 q 135 813 171 810 l 63 821 l 58 868 l 394 868 q 649 801 561 868 q 738 631 738 735 m 615 608 q 555 762 615 706 q 390 817 494 818 l 285 815 l 285 414 q 397 400 343 400 q 556 456 497 400 q 615 608 615 513 z "},"Q":{"ha":1026,"x_min":64,"x_max":1033,"o":"m 1033 -225 q 857 -250 956 -250 q 642 -198 724 -250 q 497 -21 561 -146 q 187 106 310 -18 q 64 426 64 231 q 194 751 64 615 q 515 886 324 886 q 835 761 708 886 q 963 438 963 636 q 869 157 963 281 q 629 -6 776 33 q 790 -161 697 -125 q 1029 -181 883 -197 l 1033 -225 m 836 422 q 740 723 836 610 q 510 836 644 836 q 283 729 375 836 q 190 442 190 622 q 285 141 190 254 q 515 28 381 28 q 743 135 650 28 q 836 422 836 242 z "},"R":{"ha":821,"x_min":58,"x_max":831,"o":"m 514 407 l 703 115 q 769 57 739 64 l 826 47 l 831 0 l 626 0 l 574 96 l 404 385 q 386 385 397 385 q 344 384 375 385 q 303 383 314 383 q 285 383 292 383 l 285 74 q 321 56 285 60 l 400 47 l 404 0 l 58 0 l 63 47 l 135 56 q 171 75 171 60 l 171 794 q 164 806 171 803 q 135 813 157 810 l 63 821 l 58 868 l 414 868 q 643 810 567 868 q 719 656 719 753 q 514 407 719 476 m 596 631 q 378 814 596 826 l 285 811 l 285 442 l 403 432 q 544 492 493 442 q 596 631 596 542 z "},"S":{"ha":700,"x_min":61,"x_max":643,"o":"m 643 235 q 556 55 643 129 q 325 -21 468 -19 q 82 17 204 -22 l 61 263 l 117 263 l 175 71 q 346 33 257 33 q 488 83 436 35 q 540 197 540 131 q 490 317 540 276 q 322 401 439 357 q 226 442 263 424 q 151 490 189 461 q 97 559 114 519 q 79 651 79 599 q 153 818 79 750 q 365 888 228 886 q 528 872 449 889 l 600 893 l 600 619 l 544 619 l 506 797 q 347 832 429 832 q 223 790 267 832 q 179 688 179 747 q 193 617 179 647 q 242 564 207 588 q 306 527 278 540 q 393 492 335 514 q 581 392 519 446 q 643 235 643 339 z "},"T":{"ha":850,"x_min":35,"x_max":801,"o":"m 801 601 l 742 601 l 711 747 q 692 789 704 776 q 634 809 679 801 q 492 817 589 817 l 482 817 l 482 74 q 518 56 482 60 l 613 47 l 617 0 l 233 0 l 238 47 l 332 56 q 368 75 368 60 l 368 817 l 358 817 q 217 812 260 817 q 159 796 175 807 q 135 757 143 785 l 97 601 l 35 601 l 58 868 l 801 868 l 801 601 z "},"U":{"ha":988,"x_min":47,"x_max":953,"o":"m 953 868 l 949 821 l 867 810 q 849 806 856 808 q 837 794 843 803 q 828 776 831 786 q 824 741 825 765 q 822 689 822 717 q 821 613 821 661 l 821 288 q 732 62 821 144 q 489 -21 643 -21 q 246 58 332 -21 q 160 299 160 136 l 160 794 q 124 813 160 810 l 51 821 l 47 868 l 386 868 l 382 821 l 310 813 q 274 793 274 808 l 274 313 q 528 50 274 50 q 703 116 642 50 q 765 294 765 182 l 765 613 q 765 719 765 685 q 758 775 764 753 q 745 802 753 797 q 721 810 738 807 l 638 821 l 633 868 l 953 868 z "},"V":{"ha":853,"x_min":-24,"x_max":875,"o":"m 875 868 l 871 821 l 817 811 q 763 772 782 804 q 699 613 744 740 l 485 -3 l 371 -3 l 97 781 q 64 807 90 803 l -19 821 l -24 868 l 333 868 l 329 821 l 250 811 q 225 789 225 807 q 247 707 225 776 l 451 97 l 464 97 l 638 613 q 671 737 665 693 q 666 796 676 781 q 629 814 656 811 l 576 821 l 572 868 l 875 868 z "},"W":{"ha":1275,"x_min":-21,"x_max":1292,"o":"m 1292 868 l 1288 821 l 1238 811 q 1201 792 1213 803 q 1174 742 1190 781 q 1128 613 1157 704 l 933 -3 l 853 -3 l 651 597 l 649 597 l 439 -3 l 357 -3 l 99 781 q 65 807 92 803 l -17 821 l -21 868 l 336 868 l 332 821 l 253 811 q 233 804 239 808 q 228 787 228 800 q 233 758 229 774 q 250 707 238 742 l 424 143 l 429 143 l 618 679 l 585 781 q 550 807 578 803 l 471 821 l 467 868 l 819 868 l 815 821 l 733 811 q 710 786 711 807 q 731 707 710 765 l 914 142 l 918 143 l 1058 613 q 1093 740 1086 701 q 1092 792 1100 779 q 1058 810 1085 804 l 986 821 l 982 868 l 1292 868 z "},"X":{"ha":858,"x_min":1,"x_max":863,"o":"m 863 0 l 517 0 l 521 47 l 590 56 q 611 89 624 60 q 567 163 604 107 l 413 394 l 407 394 l 233 132 q 238 57 185 65 l 299 47 l 304 0 l 1 0 l 6 47 l 68 57 q 109 78 92 63 q 153 129 126 93 l 374 436 l 132 781 q 93 807 117 804 l 21 821 l 15 868 l 361 868 l 357 821 l 289 813 q 264 781 256 807 q 308 706 271 763 l 443 506 l 449 506 l 601 738 q 599 813 647 804 l 535 821 l 531 868 l 831 868 l 826 821 l 765 811 q 679 739 721 800 l 482 463 l 747 88 q 786 61 761 67 l 858 47 l 863 0 z "},"Y":{"ha":833,"x_min":-10,"x_max":839,"o":"m 839 868 l 835 821 l 793 814 q 742 790 763 804 q 699 739 722 775 l 481 378 l 481 74 q 517 56 481 58 l 611 47 l 615 0 l 231 0 l 235 47 l 331 56 q 367 75 367 60 l 367 364 l 108 772 q 51 811 85 804 l -6 821 l -10 868 l 329 868 l 325 821 l 256 813 q 251 742 217 807 q 272 706 260 726 l 439 429 l 446 429 l 626 738 q 615 814 667 804 l 563 821 l 558 868 l 839 868 z "},"Z":{"ha":771,"x_min":46,"x_max":743,"o":"m 743 260 l 714 0 l 46 0 l 46 47 l 593 811 l 593 817 l 436 817 q 256 808 311 815 q 183 787 200 800 q 156 738 167 774 l 128 611 l 72 611 l 72 868 l 728 868 l 728 819 l 182 56 l 181 50 l 339 51 q 535 58 474 51 q 615 78 597 65 q 644 122 633 90 l 679 260 l 743 260 z "},"[":{"ha":511,"x_min":132,"x_max":482,"o":"m 482 -306 l 132 -306 l 132 904 l 482 904 l 482 846 l 200 846 l 200 -247 l 482 -247 l 482 -306 z "},"\\":{"ha":388,"x_min":14,"x_max":374,"o":"m 374 -293 l 311 -293 l 14 921 l 76 921 l 374 -293 z "},"]":{"ha":511,"x_min":29,"x_max":379,"o":"m 29 -306 l 29 -247 l 311 -247 l 311 846 l 29 846 l 29 904 l 379 904 l 379 -306 l 29 -306 z "},"^":{"ha":556,"x_min":97,"x_max":458,"o":"m 458 706 l 421 706 l 279 876 l 276 876 l 135 706 l 97 706 l 251 975 l 304 975 l 458 706 z "},"_":{"ha":653,"x_min":-11,"x_max":664,"o":"m 664 -72 l -11 -72 l -7 -1 l 660 -1 l 664 -72 z "},"`":{"ha":556,"x_min":86,"x_max":346,"o":"m 346 706 l 315 706 l 86 961 l 213 961 l 346 706 z "},"a":{"ha":619,"x_min":47,"x_max":618,"o":"m 618 65 q 489 -21 547 -21 q 424 5 449 -21 q 400 82 400 31 l 394 82 q 221 -21 299 -21 q 101 25 151 -21 q 51 140 51 71 q 133 281 51 226 q 406 382 215 335 l 406 394 q 372 541 407 500 q 264 582 336 582 q 190 569 226 582 q 154 546 154 557 l 168 525 q 182 482 182 503 q 163 438 182 457 q 114 419 143 419 q 66 437 85 419 q 47 481 47 454 q 134 586 47 531 q 304 642 221 642 q 465 583 421 642 q 504 371 510 525 l 493 106 q 524 57 490 57 q 594 96 546 57 l 618 65 m 394 129 l 403 338 q 210 261 267 301 q 153 164 153 221 q 183 86 153 115 q 258 57 214 57 q 394 129 315 57 z "},"b":{"ha":713,"x_min":-11,"x_max":664,"o":"m 664 331 q 575 82 664 185 q 342 -21 486 -21 q 188 11 263 -21 l 185 11 l 122 -29 l 107 -29 l 107 826 q 93 853 107 849 l -11 883 l -7 918 l 206 968 l 206 535 l 211 535 q 413 633 303 633 q 594 547 525 633 q 664 331 664 461 m 557 292 q 506 479 557 408 q 371 550 454 550 q 206 467 278 550 l 206 110 q 365 33 288 33 q 502 105 447 33 q 557 292 557 176 z "},"c":{"ha":614,"x_min":47,"x_max":576,"o":"m 576 136 q 474 22 539 63 q 326 -19 408 -19 q 126 69 206 -19 q 47 292 47 157 q 142 541 47 442 q 371 640 238 640 q 515 601 461 640 q 569 511 569 563 q 549 458 569 475 q 499 440 528 440 q 440 476 460 440 q 435 563 419 513 l 435 565 q 347 590 400 590 q 208 521 264 590 q 153 340 153 451 q 215 146 153 224 q 371 68 276 68 q 549 153 478 68 l 576 136 z "},"d":{"ha":731,"x_min":47,"x_max":718,"o":"m 718 38 l 714 4 l 507 -21 l 507 72 l 503 72 q 307 -19 419 -19 q 122 69 196 -19 q 47 292 47 157 q 140 537 47 438 q 379 636 233 636 q 504 611 436 636 l 507 611 l 507 854 q 494 879 507 875 l 386 904 l 392 938 l 606 968 l 606 86 q 619 60 606 64 l 718 38 m 507 128 l 507 500 q 347 581 426 581 q 209 510 263 581 q 156 328 156 440 q 210 136 156 208 q 354 64 264 64 q 507 128 436 64 z "},"e":{"ha":635,"x_min":47,"x_max":579,"o":"m 576 136 q 474 22 539 63 q 326 -19 408 -19 q 126 69 206 -19 q 47 292 47 157 q 140 541 47 442 q 365 640 233 640 q 521 585 463 640 q 579 439 579 529 q 572 365 579 397 l 154 371 q 153 338 153 365 q 215 144 153 219 q 371 68 276 68 q 549 153 478 68 l 576 136 m 468 414 q 438 543 474 494 q 340 592 403 592 q 228 543 281 592 q 160 413 176 494 q 183 413 168 413 q 240 413 199 413 q 317 413 281 413 q 390 414 353 414 q 448 414 426 414 q 468 414 469 414 z "},"f":{"ha":433,"x_min":17,"x_max":536,"o":"m 536 885 q 519 839 536 856 q 476 822 503 822 q 389 908 411 822 l 388 915 l 353 918 q 232 663 232 868 l 232 618 l 425 618 l 415 554 l 232 554 l 232 72 q 271 53 232 54 l 363 47 l 367 0 l 36 0 l 40 47 l 99 53 q 133 74 133 54 l 133 551 l 17 557 l 25 618 l 126 618 l 128 653 q 217 879 133 790 q 415 968 301 968 q 501 944 465 968 q 536 885 536 921 z "},"g":{"ha":638,"x_min":14,"x_max":642,"o":"m 642 524 l 493 550 l 493 543 q 536 419 536 490 q 465 263 536 328 q 292 199 393 199 q 215 207 242 199 q 150 135 150 175 q 174 89 150 107 q 238 71 199 71 q 324 72 263 71 q 399 74 385 74 q 547 23 490 74 q 603 -104 603 -28 q 506 -282 603 -212 q 260 -351 408 -351 q 81 -306 149 -351 q 14 -186 14 -260 q 144 -22 14 -78 l 144 -17 q 81 19 107 -10 q 56 83 56 49 q 88 158 56 122 q 168 217 119 194 q 169 219 168 218 l 169 221 q 83 295 115 246 q 51 413 51 344 q 122 574 51 508 q 297 640 192 640 q 453 606 379 640 l 642 604 l 642 524 m 510 -149 q 360 -25 510 -31 q 317 -25 325 -25 q 274 -26 308 -25 q 199 -28 239 -28 q 138 -74 168 -40 q 108 -154 108 -108 q 165 -261 108 -222 q 311 -300 222 -300 q 453 -256 397 -300 q 510 -149 510 -212 m 433 417 q 383 561 433 515 q 296 596 346 596 q 194 549 233 596 q 156 431 156 503 q 215 272 156 328 q 293 243 251 243 q 383 274 351 243 q 433 417 433 317 z "},"h":{"ha":733,"x_min":6,"x_max":715,"o":"m 715 0 l 421 0 l 425 47 l 482 53 q 517 74 517 54 l 517 376 q 483 515 517 475 q 383 556 450 556 q 218 486 303 556 l 218 72 q 256 53 218 54 l 319 47 l 324 0 l 24 0 l 28 47 l 83 53 q 118 74 118 54 l 118 824 q 103 853 118 849 l 6 883 l 10 918 l 218 968 l 218 540 l 225 540 q 447 640 343 640 q 564 596 519 640 q 615 442 615 544 l 615 74 q 657 53 615 56 l 711 47 l 715 0 z "},"i":{"ha":369,"x_min":33,"x_max":336,"o":"m 242 843 q 223 788 242 811 q 171 765 204 765 q 119 788 138 765 q 100 843 100 811 q 119 898 100 875 q 171 921 138 921 q 223 899 204 921 q 242 843 242 876 m 336 0 l 39 0 l 43 47 l 101 53 q 136 74 136 54 l 136 464 q 128 527 136 513 q 89 549 119 542 l 33 557 l 36 594 l 235 640 l 235 72 q 274 53 235 54 l 332 47 l 336 0 z "},"j":{"ha":350,"x_min":-89,"x_max":238,"o":"m 238 843 q 219 788 238 811 q 167 765 200 765 q 115 788 133 765 q 96 843 96 811 q 115 898 96 875 q 167 921 133 921 q 219 899 200 921 q 238 843 238 876 m 231 -46 q 158 -275 224 -187 q 11 -362 93 -362 q -60 -341 -32 -362 q -89 -281 -89 -319 q -69 -234 -89 -253 q -22 -215 -49 -215 q 65 -297 43 -215 q 132 -111 132 -278 l 132 464 q 124 527 132 513 q 85 549 115 542 l 29 557 l 32 594 l 231 640 l 231 -46 z "},"k":{"ha":674,"x_min":6,"x_max":663,"o":"m 663 0 l 483 0 l 411 118 l 281 306 l 218 249 l 218 72 q 256 53 218 56 l 310 47 l 314 0 l 24 0 l 28 47 l 83 53 q 118 74 118 57 l 118 824 q 103 853 118 849 l 6 883 l 10 918 l 218 968 l 218 314 l 365 451 q 443 543 443 522 q 404 569 443 563 l 360 574 l 356 619 l 644 619 l 640 574 l 606 568 q 550 544 578 564 q 464 472 522 525 l 351 369 l 550 99 q 604 53 583 54 l 658 47 l 663 0 z "},"l":{"ha":371,"x_min":18,"x_max":335,"o":"m 335 0 l 38 0 l 42 47 l 100 53 q 135 74 135 54 l 135 824 q 119 853 135 849 l 18 883 l 22 918 l 233 968 l 233 72 q 272 53 233 54 l 331 47 l 335 0 z "},"m":{"ha":1122,"x_min":33,"x_max":1097,"o":"m 1097 0 l 806 0 l 810 47 l 864 53 q 899 74 899 54 l 899 381 q 771 556 899 556 q 615 485 694 556 q 617 403 617 475 l 617 74 q 657 53 617 56 l 715 47 l 719 0 l 424 0 l 428 47 l 482 53 q 517 74 517 54 l 517 381 q 389 556 517 556 q 235 488 315 556 l 235 72 q 272 53 235 54 l 339 47 l 343 0 l 40 0 l 44 47 l 100 53 q 135 74 135 54 l 135 464 q 126 527 135 513 q 89 549 118 542 l 33 557 l 35 594 l 235 640 l 235 540 l 239 540 q 451 640 356 640 q 564 599 519 640 q 604 531 592 571 l 610 531 q 831 640 729 640 q 947 596 903 640 q 999 444 999 544 l 999 74 q 1039 53 999 56 l 1093 47 l 1097 0 z "},"n":{"ha":753,"x_min":33,"x_max":733,"o":"m 733 0 l 438 0 l 442 47 l 499 53 q 533 74 533 54 l 533 376 q 500 515 533 475 q 400 556 467 556 q 235 486 319 556 l 235 72 q 272 53 235 54 l 336 47 l 340 0 l 40 0 l 44 47 l 100 53 q 135 74 135 54 l 135 467 q 127 528 135 514 q 92 549 119 542 l 33 557 l 35 594 l 235 640 l 235 540 l 242 540 q 464 640 360 640 q 581 596 536 640 q 632 442 632 544 l 632 74 q 674 53 632 56 l 729 47 l 733 0 z "},"o":{"ha":719,"x_min":49,"x_max":672,"o":"m 672 324 q 580 78 672 178 q 351 -21 488 -21 q 133 72 217 -21 q 49 307 49 165 q 142 544 49 449 q 371 640 236 640 q 588 551 504 640 q 672 324 672 461 m 564 282 q 489 531 564 451 q 357 588 432 588 q 215 519 271 588 q 158 338 158 450 q 235 89 158 167 q 365 33 288 33 q 507 102 450 33 q 564 282 564 171 z "},"p":{"ha":728,"x_min":19,"x_max":679,"o":"m 679 331 q 591 82 679 185 q 358 -21 503 -21 q 224 4 292 -21 l 221 4 l 221 -269 q 260 -289 221 -287 l 332 -294 l 336 -342 l 25 -342 l 29 -294 l 86 -289 q 121 -268 121 -287 l 121 467 q 113 528 121 514 q 78 549 106 542 l 19 557 l 22 594 l 221 640 l 221 535 l 226 535 q 428 633 318 633 q 610 547 540 633 q 679 331 679 461 m 572 292 q 521 479 572 408 q 386 550 469 550 q 221 467 293 550 l 221 110 q 381 33 303 33 q 517 106 461 33 q 572 292 572 178 z "},"q":{"ha":714,"x_min":47,"x_max":707,"o":"m 707 -342 l 396 -342 l 400 -294 l 472 -289 q 507 -268 507 -287 l 507 72 l 503 72 q 307 -19 419 -19 q 122 69 196 -19 q 47 292 47 157 q 140 537 47 438 q 379 636 233 636 q 525 603 453 636 l 528 603 l 590 642 l 606 642 l 606 -268 q 647 -289 606 -286 l 703 -294 l 707 -342 m 507 128 l 507 500 q 347 581 426 581 q 209 510 263 581 q 156 328 156 440 q 210 136 156 208 q 354 64 264 64 q 507 128 436 64 z "},"r":{"ha":514,"x_min":35,"x_max":508,"o":"m 488 622 q 498 611 488 622 q 508 571 508 601 q 491 520 508 540 q 443 500 474 500 q 376 544 400 500 q 301 478 342 522 q 235 385 260 433 l 235 72 q 272 53 235 54 l 346 47 l 350 0 l 40 0 l 44 47 l 100 53 q 135 74 135 54 l 135 467 q 127 528 135 514 q 92 549 119 542 l 35 557 l 38 594 l 235 640 l 235 460 l 240 460 q 343 601 300 561 q 431 642 386 642 q 488 622 467 642 z "},"s":{"ha":558,"x_min":68,"x_max":499,"o":"m 499 176 q 435 37 499 94 q 257 -21 371 -21 q 76 8 151 -21 l 68 188 l 131 188 l 160 64 q 274 28 211 28 q 369 60 328 28 q 411 144 411 93 q 400 189 411 169 q 362 224 389 208 q 315 248 335 240 q 256 271 296 256 q 201 293 221 285 q 153 319 181 301 q 110 354 125 336 q 83 400 94 372 q 72 463 72 428 q 131 590 72 536 q 289 643 189 643 q 424 621 354 643 l 465 635 l 476 440 l 415 440 l 389 561 q 278 594 338 594 q 193 567 226 594 q 160 496 160 539 q 182 440 160 464 q 230 403 204 415 q 313 369 256 392 q 382 340 356 353 q 439 305 408 328 q 484 250 469 282 q 499 176 499 218 z "},"t":{"ha":476,"x_min":13,"x_max":449,"o":"m 449 58 q 367 1 415 24 q 272 -21 318 -21 q 155 24 197 -21 q 114 160 113 68 l 122 551 l 13 557 l 14 597 l 108 654 l 174 742 l 222 736 l 221 618 l 446 618 l 436 554 l 221 554 l 213 185 q 324 58 208 58 q 440 94 375 58 l 449 58 z "},"u":{"ha":731,"x_min":14,"x_max":722,"o":"m 722 38 l 718 4 l 510 -21 l 510 81 l 503 81 q 281 -21 382 -21 q 164 25 208 -21 q 113 178 113 75 l 115 547 q 115 556 115 553 q 113 560 114 558 q 107 563 111 563 q 99 565 103 564 q 86 566 94 565 q 71 568 78 567 l 18 574 l 14 619 l 221 619 l 211 244 q 244 104 211 144 q 344 64 278 64 q 510 135 428 64 l 510 547 q 472 568 510 565 l 403 574 l 399 619 l 610 619 l 610 86 q 622 60 610 64 l 722 38 z "},"v":{"ha":639,"x_min":-25,"x_max":663,"o":"m 663 619 l 658 574 l 613 564 q 578 549 590 563 q 550 490 567 535 l 358 -10 l 289 -10 l 78 524 q 58 553 68 546 q 24 564 49 560 l -19 572 l -25 619 l 265 619 l 261 574 l 210 567 q 185 529 174 563 l 349 104 l 492 496 q 502 546 506 531 q 472 564 499 561 l 418 574 l 414 619 l 663 619 z "},"w":{"ha":958,"x_min":-19,"x_max":979,"o":"m 979 619 l 975 574 l 932 567 q 894 549 906 563 q 867 490 882 536 l 706 -10 l 638 -10 l 486 394 l 326 -10 l 258 -10 l 75 524 q 58 554 68 546 q 26 565 49 563 l -15 572 l -19 619 l 258 619 l 254 574 l 208 567 q 182 526 169 561 l 322 110 l 457 465 l 436 524 q 417 553 428 546 q 383 564 407 561 l 340 574 l 336 619 l 618 619 l 614 574 l 569 567 q 542 526 529 563 l 692 107 l 808 489 q 815 544 821 526 q 778 567 808 563 l 735 574 l 731 619 l 979 619 z "},"x":{"ha":661,"x_min":-4,"x_max":663,"o":"m 663 0 l 381 0 l 385 46 l 425 54 q 447 65 442 58 q 447 82 451 71 q 429 114 443 93 l 317 268 l 315 268 l 197 115 q 173 70 172 83 q 200 54 174 57 l 246 46 l 250 0 l -4 0 l 0 46 l 47 54 q 84 70 68 57 q 133 122 100 83 l 283 304 l 133 499 q 89 549 106 536 q 49 564 72 561 l 8 574 l 4 619 l 288 619 l 283 574 l 243 565 q 220 549 219 561 q 243 507 221 538 l 343 369 l 344 369 l 449 506 q 472 549 472 536 q 446 565 472 563 l 400 574 l 396 619 l 653 619 l 649 574 l 601 565 q 561 550 576 563 q 514 499 546 538 l 376 333 l 538 122 q 619 56 583 63 l 658 47 l 663 0 z "},"y":{"ha":628,"x_min":-25,"x_max":660,"o":"m 660 619 l 656 574 l 610 564 q 576 547 588 561 q 546 490 564 533 l 376 29 l 310 -182 q 243 -321 279 -278 q 147 -364 207 -364 q 81 -344 106 -364 q 57 -292 57 -324 q 74 -242 57 -261 q 122 -222 90 -222 q 201 -272 175 -222 q 263 -165 232 -258 l 315 -14 l 315 -12 l 74 524 q 55 553 64 546 q 21 564 46 560 l -19 572 l -25 619 l 261 619 l 257 574 l 210 567 q 186 529 171 564 l 358 119 l 490 496 q 497 546 503 531 q 464 564 492 561 l 413 574 l 408 619 l 660 619 z "},"z":{"ha":622,"x_min":39,"x_max":600,"o":"m 563 578 l 163 49 l 222 49 q 423 61 376 49 q 490 119 469 74 l 542 235 l 600 235 l 544 0 l 39 0 l 39 42 l 440 572 l 396 572 q 199 560 243 572 q 146 501 156 547 l 124 385 l 63 385 l 63 619 l 563 619 l 563 578 z "},"{":{"ha":463,"x_min":35,"x_max":418,"o":"m 418 -324 q 223 -263 292 -318 q 154 -115 154 -208 q 193 28 154 -53 q 232 153 232 108 q 50 261 232 253 l 35 300 l 50 338 q 232 446 232 343 q 193 572 232 490 q 154 715 154 653 q 222 862 154 808 q 418 924 290 915 l 418 878 q 293 834 339 871 q 247 747 247 797 q 286 621 247 703 q 325 476 325 539 q 267 360 325 411 q 147 307 208 310 l 147 290 q 267 236 208 286 q 325 121 325 186 q 286 -21 325 60 q 247 -146 247 -101 q 293 -235 247 -196 q 418 -281 339 -274 l 418 -324 z "},"|":{"ha":386,"x_min":163,"x_max":224,"o":"m 163 -258 l 163 956 l 224 956 l 224 -258 l 163 -258 z "},"}":{"ha":463,"x_min":44,"x_max":428,"o":"m 428 300 l 413 261 q 231 153 231 253 q 269 28 231 108 q 308 -115 308 -53 q 240 -263 308 -208 q 44 -324 171 -318 l 44 -281 q 169 -235 122 -274 q 215 -146 215 -196 q 176 -21 215 -101 q 138 121 138 60 q 196 236 138 186 q 315 290 254 286 l 315 307 q 196 360 254 310 q 138 476 138 411 q 176 621 138 539 q 215 747 215 703 q 169 834 215 797 q 44 878 124 871 l 44 924 q 240 862 172 915 q 308 715 308 808 q 269 572 308 653 q 231 446 231 490 q 413 338 231 343 l 428 300 z "},"~":{"ha":556,"x_min":53,"x_max":503,"o":"m 503 393 q 369 231 475 231 q 253 281 322 231 q 164 331 185 331 q 126 312 142 331 q 89 240 110 293 l 53 240 q 186 403 81 403 q 302 353 233 403 q 392 303 371 303 q 430 322 414 303 q 467 393 446 340 l 503 393 z "}," ":{"ha":317,"x_min":0,"x_max":0,"o":""},"¡":{"ha":390,"x_min":115,"x_max":274,"o":"m 274 808 q 252 754 274 776 q 196 732 231 732 q 139 755 163 732 q 115 808 115 778 q 139 864 115 840 q 196 888 163 888 q 252 865 231 888 q 274 808 274 842 m 263 31 q 253 -8 265 6 q 207 -21 242 -21 l 186 -21 q 140 -8 151 -21 q 131 31 128 6 l 182 593 q 196 601 183 601 q 210 593 208 601 l 263 31 z "},"¢":{"ha":613,"x_min":47,"x_max":578,"o":"m 308 -19 l 251 -231 l 201 -231 l 260 -10 q 106 103 164 17 q 47 303 47 190 q 142 544 47 449 q 371 640 236 640 q 432 635 408 640 l 499 882 l 549 882 l 479 621 q 567 513 567 582 q 549 469 567 486 q 511 451 532 451 q 444 492 464 451 l 332 72 q 376 67 350 67 q 550 153 476 67 l 578 138 q 474 20 539 61 q 332 -21 410 -21 q 308 -19 315 -21 m 286 88 l 415 572 q 343 588 386 588 q 206 522 260 588 q 153 342 153 456 q 189 186 153 254 q 286 88 225 118 z "},"£":{"ha":642,"x_min":6,"x_max":619,"o":"m 186 414 q 181 558 181 525 q 255 788 181 700 q 456 875 329 875 q 564 847 524 875 q 604 771 604 818 q 585 725 604 744 q 539 706 565 706 q 483 733 504 706 q 471 803 463 761 q 407 821 443 821 q 283 600 283 821 q 285 553 283 581 q 288 483 286 525 q 290 414 289 440 l 517 414 l 521 360 l 292 360 q 293 299 293 340 q 246 114 290 190 l 246 107 q 332 81 250 106 q 454 56 414 56 q 529 79 508 56 q 589 185 560 110 l 619 176 q 580 28 622 90 q 450 -33 538 -33 q 365 -16 406 -33 q 272 40 325 1 l 218 79 q 21 -37 150 -8 l 6 10 q 149 102 106 40 q 192 260 192 164 q 189 360 192 290 l 49 360 l 53 414 l 186 414 z "},"¤":{"ha":601,"x_min":50,"x_max":551,"o":"m 544 696 l 467 618 q 500 499 500 565 q 465 379 500 433 l 551 293 l 504 246 l 419 331 q 299 294 365 294 q 178 329 231 294 l 100 251 l 54 297 l 132 375 q 96 499 96 428 q 131 619 96 571 l 50 700 l 97 747 l 178 667 q 299 703 232 703 q 422 665 369 703 l 499 742 l 544 696 m 440 499 q 401 602 440 560 q 299 644 363 644 q 195 602 235 644 q 156 499 156 560 q 195 396 156 439 q 299 353 235 353 q 401 396 363 353 q 440 499 440 439 z "},"¥":{"ha":850,"x_min":14,"x_max":831,"o":"m 831 868 l 826 821 l 786 814 q 693 739 726 796 l 508 425 l 743 425 l 747 369 l 485 369 l 485 251 l 743 251 l 747 196 l 485 196 l 485 86 q 510 61 485 65 l 618 47 l 622 0 l 240 0 l 244 47 l 353 61 q 378 86 378 65 l 378 196 l 122 196 l 126 251 l 378 251 l 378 369 l 122 369 l 126 425 l 351 425 l 133 772 q 76 811 114 803 l 18 821 l 14 868 l 344 868 l 340 821 l 271 813 q 268 740 232 807 q 289 706 276 725 l 447 442 l 453 442 l 621 738 q 608 814 657 804 l 556 821 l 551 868 l 831 868 z "},"¦":{"ha":386,"x_min":163,"x_max":224,"o":"m 163 426 l 163 892 l 224 892 l 224 426 l 163 426 m 163 -193 l 163 272 l 224 272 l 224 -193 l 163 -193 z "},"§":{"ha":597,"x_min":42,"x_max":554,"o":"m 554 354 q 522 256 554 300 q 436 186 489 213 q 465 90 465 142 q 404 -35 465 19 q 253 -90 343 -90 q 146 -63 192 -90 q 100 10 100 -36 q 117 54 100 36 q 161 72 135 72 q 247 -26 228 72 q 304 -36 268 -36 q 366 -11 343 -36 q 389 58 389 14 q 363 128 389 93 q 308 183 336 163 q 225 236 279 203 q 156 281 176 267 q 103 324 136 294 q 56 383 69 353 q 42 451 42 414 q 74 548 42 504 q 160 618 107 592 q 131 715 131 664 q 190 833 131 779 q 335 888 250 888 q 442 860 397 888 q 488 788 488 833 q 470 743 488 761 q 426 725 453 725 q 340 824 360 725 q 290 833 319 833 q 231 810 254 833 q 207 746 207 788 q 234 677 207 711 q 289 624 261 643 q 371 569 317 604 q 382 563 375 567 q 468 506 439 526 q 526 443 497 485 q 554 354 554 401 m 479 310 q 448 391 479 357 q 353 468 417 425 q 308 496 338 478 q 260 526 279 514 q 219 556 242 538 q 182 592 197 574 q 135 549 154 575 q 117 496 117 522 q 149 413 117 449 q 243 338 181 378 q 287 310 253 332 q 337 278 321 289 q 376 249 353 268 q 415 213 400 231 q 479 310 479 251 z "},"¨":{"ha":556,"x_min":63,"x_max":493,"o":"m 472 887 q 482 875 472 887 q 493 829 493 863 q 472 772 493 796 q 417 747 451 747 q 361 772 382 747 q 340 829 340 796 q 361 887 340 863 q 417 911 382 911 q 472 887 450 911 m 194 887 q 205 875 194 887 q 215 829 215 863 q 194 772 215 796 q 139 747 174 747 q 83 772 104 747 q 63 829 63 796 q 83 887 63 863 q 139 911 104 911 q 194 887 174 911 z "},"©":{"ha":1019,"x_min":56,"x_max":964,"o":"m 831 756 q 898 689 831 756 q 964 433 964 622 q 831 112 964 244 q 510 -21 699 -21 q 188 112 321 -21 q 56 433 56 244 q 188 756 56 622 q 510 889 321 889 q 831 756 699 889 m 795 145 q 855 205 795 145 q 914 433 914 265 q 795 722 914 601 q 510 843 676 843 q 224 722 343 843 q 106 433 106 601 q 224 145 106 265 q 510 25 343 25 q 795 145 676 25 m 706 350 l 688 186 l 649 194 q 526 175 593 175 q 334 244 404 175 q 264 425 264 314 q 337 617 264 542 q 524 692 410 692 q 636 676 585 692 l 699 692 l 699 515 l 663 515 l 633 618 q 517 647 592 647 q 392 592 442 647 q 342 446 342 536 q 394 281 342 343 q 538 218 446 218 q 625 240 592 218 l 668 350 l 706 350 z "},"ª":{"ha":469,"x_min":39,"x_max":472,"o":"m 472 450 q 371 397 433 397 q 299 469 308 397 l 296 469 q 154 397 217 397 q 75 428 110 397 q 40 506 40 458 q 106 610 40 569 q 303 675 172 651 l 304 721 q 276 806 308 774 q 193 838 243 838 q 147 827 169 838 q 125 810 125 817 q 129 802 125 808 q 138 785 133 796 q 142 764 142 774 q 128 732 142 744 q 92 719 114 719 q 53 734 68 719 q 39 771 39 749 q 108 847 39 810 q 247 885 178 885 q 358 844 322 885 q 392 733 394 804 l 383 511 q 390 472 382 485 q 419 460 399 460 q 468 475 442 460 l 472 450 m 297 507 l 301 643 q 129 536 129 610 q 149 485 129 506 q 200 464 168 464 q 297 507 244 464 z "},"«":{"ha":676,"x_min":46,"x_max":619,"o":"m 619 92 l 607 64 l 307 278 l 307 336 l 607 550 l 619 522 l 406 307 l 619 92 m 360 106 l 347 78 l 46 278 l 46 336 l 347 536 l 360 508 l 158 307 l 360 106 z "},"¬":{"ha":667,"x_min":49,"x_max":618,"o":"m 618 426 l 618 135 l 547 135 l 547 358 l 49 358 l 53 426 l 618 426 z "},"­":{"ha":456,"x_min":47,"x_max":411,"o":"m 411 290 l 47 290 l 51 361 l 407 361 l 411 290 z "},"®":{"ha":1019,"x_min":56,"x_max":964,"o":"m 831 756 q 898 689 831 756 q 964 433 964 622 q 831 112 964 244 q 510 -21 699 -21 q 188 112 321 -21 q 56 433 56 244 q 188 756 56 622 q 510 889 321 889 q 831 756 699 889 m 795 145 q 855 205 795 145 q 914 433 914 265 q 795 722 914 601 q 510 843 676 843 q 224 722 343 843 q 106 433 106 601 q 224 145 106 265 q 510 25 343 25 q 795 145 676 25 m 763 190 l 633 190 l 603 246 l 507 397 l 442 400 l 442 254 q 456 239 442 240 l 515 231 l 518 190 l 299 190 l 303 231 l 354 239 q 368 254 368 240 l 368 619 q 354 635 368 633 l 303 643 l 299 683 l 518 683 q 653 647 607 683 q 699 557 699 610 q 578 414 699 451 l 676 264 q 711 236 696 240 l 758 231 l 763 190 m 618 544 q 483 640 618 646 l 442 639 l 442 444 l 506 438 q 618 544 618 447 z "},"¯":{"ha":556,"x_min":108,"x_max":451,"o":"m 451 749 l 108 749 l 113 806 l 447 806 l 451 749 z "},"°":{"ha":571,"x_min":54,"x_max":515,"o":"m 515 669 q 452 507 515 574 q 285 440 389 440 q 118 507 182 440 q 54 669 54 574 q 117 834 54 767 q 285 901 181 901 q 452 835 389 901 q 515 669 515 768 m 407 794 q 384 819 407 794 q 285 844 361 844 q 163 794 208 844 q 118 669 118 744 q 164 548 118 599 q 285 497 210 497 q 406 548 360 497 q 453 669 453 599 q 407 794 453 743 z "},"±":{"ha":667,"x_min":44,"x_max":622,"o":"m 622 319 l 369 319 l 369 113 l 299 113 l 299 319 l 44 319 l 49 388 l 299 388 l 299 617 l 369 617 l 369 388 l 618 388 l 622 319 m 622 19 l 44 19 l 49 88 l 618 88 l 622 19 z "},"²":{"ha":458,"x_min":28,"x_max":428,"o":"m 32 379 l 28 424 q 92 482 51 446 q 153 536 133 518 q 202 583 172 554 q 246 629 232 611 q 275 670 260 647 q 297 713 290 693 q 303 753 303 732 q 273 824 303 799 q 197 850 243 850 q 54 779 115 850 l 40 797 q 233 917 115 917 q 351 876 306 917 q 397 775 397 835 q 385 715 397 743 q 338 650 374 686 q 279 593 303 614 q 190 520 256 572 q 96 444 125 468 l 106 440 l 174 440 q 328 447 297 440 q 371 481 358 453 l 389 521 l 428 521 l 400 379 l 32 379 z "},"³":{"ha":458,"x_min":35,"x_max":406,"o":"m 161 360 q 69 378 104 360 q 35 428 35 397 q 48 458 35 446 q 81 469 61 469 q 129 449 110 469 q 154 399 149 429 q 183 397 160 397 q 277 431 239 397 q 315 517 315 465 q 282 592 315 565 q 200 619 249 619 q 118 600 163 619 l 106 624 q 251 717 224 689 q 283 779 283 747 q 257 833 283 814 q 183 851 231 851 q 51 789 117 851 l 35 808 q 231 917 121 917 q 336 888 293 917 q 379 813 379 860 q 338 731 379 764 q 213 656 296 697 l 213 654 q 346 642 288 675 q 406 539 404 608 q 333 414 406 468 q 161 360 260 360 z "},"´":{"ha":556,"x_min":208,"x_max":469,"o":"m 469 961 l 240 706 l 208 706 l 339 961 l 469 961 z "},"µ":{"ha":731,"x_min":14,"x_max":722,"o":"m 93 -342 l 113 154 l 115 547 q 115 556 115 553 q 113 560 114 558 q 107 563 111 563 q 99 565 103 564 q 86 566 94 565 q 71 568 78 567 l 18 574 l 14 619 l 221 619 l 215 197 q 344 64 211 64 q 510 139 422 64 l 510 547 q 472 568 510 565 l 403 574 l 399 619 l 610 619 l 610 86 q 622 60 610 64 l 722 38 l 718 4 l 510 -21 l 510 85 l 503 85 q 456 31 475 50 q 406 -4 438 13 q 338 -21 374 -21 q 208 60 249 -21 l 204 60 l 215 -329 l 93 -342 z "},"¶":{"ha":686,"x_min":56,"x_max":567,"o":"m 567 -44 l 500 -44 l 500 381 q 374 361 433 361 q 137 432 218 361 q 56 614 56 503 q 137 803 56 738 q 356 868 218 868 l 567 868 l 567 -44 z "},"·":{"ha":314,"x_min":72,"x_max":244,"o":"m 220 374 q 232 362 220 374 q 244 315 244 350 q 220 255 244 281 q 160 229 196 229 q 97 255 122 229 q 72 315 72 281 q 97 374 72 350 q 160 399 122 399 q 220 374 196 399 z "},"¸":{"ha":556,"x_min":142,"x_max":436,"o":"m 436 -204 q 362 -316 436 -271 q 153 -371 288 -361 l 142 -340 q 358 -218 358 -311 q 328 -163 358 -183 q 240 -143 299 -143 q 160 -150 206 -143 l 160 -126 l 304 26 l 360 26 l 257 -82 q 387 -112 338 -79 q 436 -204 436 -144 z "},"¹":{"ha":458,"x_min":74,"x_max":388,"o":"m 81 379 l 83 414 l 179 425 q 200 444 200 431 l 200 842 l 74 850 l 76 875 l 283 917 l 283 444 q 304 425 283 429 l 385 414 l 388 379 l 81 379 z "},"º":{"ha":535,"x_min":33,"x_max":500,"o":"m 437 815 q 468 780 437 815 q 500 642 500 744 q 434 468 500 539 q 265 397 368 397 q 97 467 161 397 q 33 639 33 536 q 101 813 33 742 q 269 885 168 885 q 437 815 374 885 m 404 617 q 347 803 404 749 q 258 842 308 842 q 165 793 201 842 q 129 664 129 744 q 189 475 129 538 q 276 442 222 442 q 369 489 333 442 q 404 617 404 536 z "},"»":{"ha":676,"x_min":58,"x_max":632,"o":"m 632 278 l 331 78 l 318 106 l 521 307 l 318 508 l 331 536 l 632 336 l 632 278 m 371 278 l 72 64 l 58 92 l 272 307 l 58 522 l 72 550 l 371 336 l 371 278 z "},"¼":{"ha":993,"x_min":74,"x_max":975,"o":"m 801 -199 l 801 -44 l 556 -44 l 551 -11 l 824 333 l 881 333 l 881 -3 l 975 -3 l 969 -44 l 881 -44 l 881 -199 l 801 -199 m 601 -3 l 801 -3 l 801 244 l 797 244 l 601 -3 m 117 -161 l 863 868 l 933 868 l 186 -161 l 117 -161 m 81 379 l 83 414 l 179 425 q 200 444 200 431 l 200 842 l 74 850 l 76 875 l 283 917 l 283 444 q 304 425 283 429 l 385 414 l 388 379 l 81 379 z "},"½":{"ha":993,"x_min":74,"x_max":963,"o":"m 567 -199 l 563 -154 q 627 -96 586 -132 q 688 -42 668 -60 q 737 5 707 -24 q 781 51 767 33 q 810 92 794 69 q 831 135 825 115 q 838 175 838 154 q 808 247 838 221 q 732 272 778 272 q 589 201 650 272 l 575 219 q 768 339 650 339 q 886 298 840 339 q 932 197 932 257 q 920 137 932 165 q 873 72 908 108 q 814 15 838 36 q 725 -58 790 -6 q 631 -133 660 -110 l 640 -137 l 708 -137 q 863 -131 832 -137 q 906 -97 893 -125 l 924 -57 l 963 -57 l 935 -199 l 567 -199 m 96 -161 l 842 868 l 913 868 l 165 -161 l 96 -161 m 81 379 l 83 414 l 179 425 q 200 444 200 431 l 200 842 l 74 850 l 76 875 l 283 917 l 283 444 q 304 425 283 429 l 385 414 l 388 379 l 81 379 z "},"¾":{"ha":993,"x_min":35,"x_max":975,"o":"m 161 360 q 69 378 104 360 q 35 428 35 397 q 48 458 35 446 q 81 469 61 469 q 129 449 110 469 q 154 399 149 429 q 183 397 160 397 q 277 431 239 397 q 315 517 315 465 q 282 592 315 565 q 200 619 249 619 q 118 600 163 619 l 106 624 q 251 717 224 689 q 283 779 283 747 q 257 833 283 814 q 183 851 231 851 q 51 789 117 851 l 35 808 q 231 917 121 917 q 336 888 293 917 q 379 813 379 860 q 338 731 379 764 q 213 656 296 697 l 213 654 q 346 642 288 675 q 406 539 404 608 q 333 414 406 468 q 161 360 260 360 m 801 -199 l 801 -44 l 556 -44 l 551 -11 l 824 333 l 881 333 l 881 -3 l 975 -3 l 969 -44 l 881 -44 l 881 -199 l 801 -199 m 601 -3 l 801 -3 l 801 244 l 797 244 l 601 -3 m 117 -161 l 863 868 l 933 868 l 186 -161 l 117 -161 z "},"¿":{"ha":496,"x_min":58,"x_max":424,"o":"m 368 808 q 344 755 368 778 q 286 732 321 732 q 231 755 253 732 q 208 808 208 778 q 231 864 208 840 q 286 888 253 888 q 344 864 321 888 q 368 808 368 840 m 424 51 q 395 -1 424 19 q 321 -21 367 -21 q 135 49 211 -21 q 58 208 58 119 q 93 321 58 286 q 204 388 128 356 q 250 406 238 400 q 284 424 263 411 q 314 453 306 438 q 322 492 322 469 q 249 611 322 544 l 290 611 q 388 456 388 533 q 376 395 388 421 q 340 350 365 369 q 292 319 314 331 q 231 290 271 307 q 169 265 189 274 q 131 237 150 256 q 111 196 111 218 q 172 117 111 149 q 326 85 232 85 q 411 93 349 85 q 424 51 424 79 z "},"À":{"ha":829,"x_min":-22,"x_max":851,"o":"m 851 0 l 494 0 l 499 47 l 578 57 q 602 70 596 61 q 605 99 608 79 q 588 161 601 118 l 536 314 l 236 314 l 186 163 q 166 85 165 107 q 190 57 167 63 l 260 47 l 264 0 l -22 0 l -18 47 l 38 57 q 90 97 69 64 q 154 256 110 131 l 347 800 l 347 844 l 463 893 l 731 88 q 765 61 738 65 l 847 47 l 851 0 m 518 371 l 394 761 l 388 761 l 256 371 l 518 371 m 449 940 l 418 940 l 189 1196 l 315 1196 l 449 940 z "},"Á":{"ha":829,"x_min":-22,"x_max":851,"o":"m 851 0 l 494 0 l 499 47 l 578 57 q 602 70 596 61 q 605 99 608 79 q 588 161 601 118 l 536 314 l 236 314 l 186 163 q 166 85 165 107 q 190 57 167 63 l 260 47 l 264 0 l -22 0 l -18 47 l 38 57 q 90 97 69 64 q 154 256 110 131 l 347 800 l 347 844 l 463 893 l 731 88 q 765 61 738 65 l 847 47 l 851 0 m 518 371 l 394 761 l 388 761 l 256 371 l 518 371 m 617 1196 l 388 940 l 356 940 l 486 1196 l 617 1196 z "},"Â":{"ha":829,"x_min":-22,"x_max":851,"o":"m 851 0 l 494 0 l 499 47 l 578 57 q 602 70 596 61 q 605 99 608 79 q 588 161 601 118 l 536 314 l 236 314 l 186 163 q 166 85 165 107 q 190 57 167 63 l 260 47 l 264 0 l -22 0 l -18 47 l 38 57 q 90 97 69 64 q 154 256 110 131 l 347 800 l 347 844 l 463 893 l 731 88 q 765 61 738 65 l 847 47 l 851 0 m 518 371 l 394 761 l 388 761 l 256 371 l 518 371 m 588 940 l 550 940 l 408 1111 l 406 1111 l 264 940 l 226 940 l 381 1210 l 433 1210 l 588 940 z "},"Ã":{"ha":829,"x_min":-22,"x_max":851,"o":"m 851 0 l 494 0 l 499 47 l 578 57 q 602 70 596 61 q 605 99 608 79 q 588 161 601 118 l 536 314 l 236 314 l 186 163 q 166 85 165 107 q 190 57 167 63 l 260 47 l 264 0 l -22 0 l -18 47 l 38 57 q 90 97 69 64 q 154 256 110 131 l 347 800 l 347 844 l 463 893 l 731 88 q 765 61 738 65 l 847 47 l 851 0 m 518 371 l 394 761 l 388 761 l 256 371 l 518 371 m 632 1119 q 499 957 604 957 q 383 1007 451 957 q 293 1057 314 1057 q 255 1038 271 1057 q 218 967 239 1019 l 182 967 q 315 1129 210 1129 q 431 1079 363 1129 q 521 1029 500 1029 q 559 1048 543 1029 q 596 1119 575 1067 l 632 1119 z "},"Ä":{"ha":829,"x_min":-22,"x_max":851,"o":"m 851 0 l 494 0 l 499 47 l 578 57 q 602 70 596 61 q 605 99 608 79 q 588 161 601 118 l 536 314 l 236 314 l 186 163 q 166 85 165 107 q 190 57 167 63 l 260 47 l 264 0 l -22 0 l -18 47 l 38 57 q 90 97 69 64 q 154 256 110 131 l 347 800 l 347 844 l 463 893 l 731 88 q 765 61 738 65 l 847 47 l 851 0 m 518 371 l 394 761 l 388 761 l 256 371 l 518 371 m 601 1113 q 611 1101 601 1113 q 622 1056 622 1089 q 601 998 622 1022 q 546 974 581 974 q 490 998 511 974 q 469 1056 469 1022 q 490 1113 469 1089 q 546 1138 511 1138 q 601 1113 579 1138 m 324 1113 q 334 1101 324 1113 q 344 1056 344 1089 q 324 998 344 1022 q 268 974 303 974 q 213 998 233 974 q 192 1056 192 1022 q 213 1113 192 1089 q 268 1138 233 1138 q 324 1113 303 1138 z "},"Å":{"ha":829,"x_min":-22,"x_max":851,"o":"m 363 842 q 309 887 329 856 q 289 957 289 918 q 323 1046 289 1010 q 413 1082 357 1082 q 502 1046 468 1082 q 536 957 536 1010 q 478 847 536 882 l 731 88 q 765 61 738 65 l 847 47 l 851 0 l 494 0 l 499 47 l 578 57 q 602 70 596 61 q 605 99 608 79 q 588 161 601 118 l 536 314 l 236 314 l 186 163 q 166 85 165 107 q 190 57 167 63 l 260 47 l 264 0 l -22 0 l -18 47 l 38 57 q 90 97 69 64 q 154 256 110 131 l 363 842 m 518 371 l 394 763 l 388 763 l 256 371 l 518 371 m 496 957 q 473 1019 496 993 q 413 1044 450 1044 q 353 1019 375 1044 q 331 957 331 993 q 353 894 331 919 q 413 868 375 868 q 473 894 450 868 q 496 957 496 919 z "},"Æ":{"ha":1117,"x_min":-72,"x_max":1069,"o":"m 1069 246 l 1043 0 l 399 0 l 403 47 l 488 61 q 513 86 513 65 l 513 314 l 244 314 l 175 178 q 147 117 156 139 q 136 83 138 96 q 139 65 135 69 q 154 58 143 61 l 224 47 l 228 0 l -72 0 l -68 47 l -10 57 q 31 74 17 64 q 72 126 44 85 q 144 257 99 168 l 403 749 q 375 813 432 803 l 315 821 l 311 868 l 1043 868 l 1043 617 l 989 617 l 958 757 q 946 790 953 781 q 906 806 939 799 q 822 815 874 814 q 661 817 771 817 l 619 817 l 619 468 l 660 468 q 774 472 751 468 q 801 494 796 476 l 833 588 l 878 588 l 850 299 l 806 299 l 796 388 q 787 406 794 400 q 750 415 779 411 q 657 418 721 418 l 619 418 l 619 51 l 643 51 q 861 56 797 51 q 944 72 925 61 q 972 111 963 82 l 1007 246 l 1069 246 m 513 371 l 513 810 l 500 810 l 274 371 l 513 371 z "},"Ç":{"ha":922,"x_min":64,"x_max":849,"o":"m 506 -19 q 188 108 311 -10 q 64 421 64 226 q 200 760 64 632 q 543 888 336 888 q 736 861 651 888 l 842 883 l 842 601 l 783 601 l 747 782 q 535 833 657 833 q 286 722 382 833 q 190 439 190 611 q 286 144 190 256 q 550 32 382 32 q 729 74 650 32 l 788 261 l 849 261 l 815 -1 l 751 13 q 561 -21 671 -14 l 503 -82 q 633 -112 583 -79 q 682 -204 682 -144 q 608 -316 682 -271 q 399 -371 533 -361 l 388 -340 q 604 -218 604 -311 q 574 -163 604 -183 q 486 -143 544 -143 q 406 -150 451 -143 l 406 -126 l 506 -19 z "},"È":{"ha":810,"x_min":58,"x_max":751,"o":"m 751 246 l 725 0 l 58 0 l 63 47 l 135 56 q 171 75 171 60 l 171 794 q 164 806 171 803 q 135 813 157 810 l 63 821 l 58 868 l 725 868 l 725 617 l 665 617 l 635 757 q 608 797 626 786 q 534 813 589 808 q 338 817 479 817 l 285 817 l 285 468 l 338 468 q 449 472 426 468 q 478 494 472 476 l 508 588 l 557 588 l 528 299 l 482 299 l 471 388 q 463 406 469 400 q 426 415 456 411 q 335 418 397 418 l 285 418 l 285 51 l 322 51 q 536 56 474 51 q 619 72 599 61 q 649 111 639 82 l 683 246 l 751 246 m 464 940 l 433 940 l 204 1196 l 331 1196 l 464 940 z "},"É":{"ha":810,"x_min":58,"x_max":751,"o":"m 751 246 l 725 0 l 58 0 l 63 47 l 135 56 q 171 75 171 60 l 171 794 q 164 806 171 803 q 135 813 157 810 l 63 821 l 58 868 l 725 868 l 725 617 l 665 617 l 635 757 q 608 797 626 786 q 534 813 589 808 q 338 817 479 817 l 285 817 l 285 468 l 338 468 q 449 472 426 468 q 478 494 472 476 l 508 588 l 557 588 l 528 299 l 482 299 l 471 388 q 463 406 469 400 q 426 415 456 411 q 335 418 397 418 l 285 418 l 285 51 l 322 51 q 536 56 474 51 q 619 72 599 61 q 649 111 639 82 l 683 246 l 751 246 m 626 1196 l 397 940 l 365 940 l 496 1196 l 626 1196 z "},"Ê":{"ha":810,"x_min":58,"x_max":751,"o":"m 751 246 l 725 0 l 58 0 l 63 47 l 135 56 q 171 75 171 60 l 171 794 q 164 806 171 803 q 135 813 157 810 l 63 821 l 58 868 l 725 868 l 725 617 l 665 617 l 635 757 q 608 797 626 786 q 534 813 589 808 q 338 817 479 817 l 285 817 l 285 468 l 338 468 q 449 472 426 468 q 478 494 472 476 l 508 588 l 557 588 l 528 299 l 482 299 l 471 388 q 463 406 469 400 q 426 415 456 411 q 335 418 397 418 l 285 418 l 285 51 l 322 51 q 536 56 474 51 q 619 72 599 61 q 649 111 639 82 l 683 246 l 751 246 m 586 940 l 549 940 l 407 1111 l 404 1111 l 263 940 l 225 940 l 379 1210 l 432 1210 l 586 940 z "},"Ë":{"ha":810,"x_min":58,"x_max":751,"o":"m 751 246 l 725 0 l 58 0 l 63 47 l 135 56 q 171 75 171 60 l 171 794 q 164 806 171 803 q 135 813 157 810 l 63 821 l 58 868 l 725 868 l 725 617 l 665 617 l 635 757 q 608 797 626 786 q 534 813 589 808 q 338 817 479 817 l 285 817 l 285 468 l 338 468 q 449 472 426 468 q 478 494 472 476 l 508 588 l 557 588 l 528 299 l 482 299 l 471 388 q 463 406 469 400 q 426 415 456 411 q 335 418 397 418 l 285 418 l 285 51 l 322 51 q 536 56 474 51 q 619 72 599 61 q 649 111 639 82 l 683 246 l 751 246 m 599 1113 q 610 1101 599 1113 q 621 1056 621 1089 q 600 998 621 1022 q 544 974 579 974 q 489 998 510 974 q 468 1056 468 1022 q 489 1113 468 1089 q 544 1138 510 1138 q 599 1113 578 1138 m 322 1113 q 333 1101 322 1113 q 343 1056 343 1089 q 322 998 343 1022 q 267 974 301 974 q 211 998 232 974 q 190 1056 190 1022 q 211 1113 190 1089 q 267 1138 232 1138 q 322 1113 301 1138 z "},"Ì":{"ha":488,"x_min":11,"x_max":428,"o":"m 428 0 l 61 0 l 65 47 l 151 56 q 188 75 188 60 l 188 794 q 181 806 188 803 q 151 813 174 810 l 65 821 l 61 868 l 428 868 l 424 821 l 338 813 q 301 793 301 808 l 301 74 q 338 56 301 60 l 424 47 l 428 0 m 271 940 l 240 940 l 11 1196 l 138 1196 l 271 940 z "},"Í":{"ha":488,"x_min":61,"x_max":479,"o":"m 428 0 l 61 0 l 65 47 l 151 56 q 188 75 188 60 l 188 794 q 181 806 188 803 q 151 813 174 810 l 65 821 l 61 868 l 428 868 l 424 821 l 338 813 q 301 793 301 808 l 301 74 q 338 56 301 60 l 424 47 l 428 0 m 479 1196 l 250 940 l 218 940 l 349 1196 l 479 1196 z "},"Î":{"ha":488,"x_min":61,"x_max":428,"o":"m 428 0 l 61 0 l 65 47 l 151 56 q 188 75 188 60 l 188 794 q 181 806 188 803 q 151 813 174 810 l 65 821 l 61 868 l 428 868 l 424 821 l 338 813 q 301 793 301 808 l 301 74 q 338 56 301 60 l 424 47 l 428 0 m 424 940 l 386 940 l 244 1111 l 242 1111 l 100 940 l 63 940 l 217 1210 l 269 1210 l 424 940 z "},"Ï":{"ha":488,"x_min":28,"x_max":458,"o":"m 428 0 l 61 0 l 65 47 l 151 56 q 188 75 188 60 l 188 794 q 181 806 188 803 q 151 813 174 810 l 65 821 l 61 868 l 428 868 l 424 821 l 338 813 q 301 793 301 808 l 301 74 q 338 56 301 60 l 424 47 l 428 0 m 437 1117 q 448 1105 437 1117 q 458 1060 458 1093 q 438 1002 458 1026 q 382 978 417 978 q 326 1002 347 978 q 306 1060 306 1026 q 326 1117 306 1093 q 382 1142 347 1142 q 437 1117 415 1142 m 160 1117 q 170 1105 160 1117 q 181 1060 181 1093 q 160 1002 181 1026 q 104 978 139 978 q 49 1002 69 978 q 28 1060 28 1026 q 49 1117 28 1093 q 104 1142 69 1142 q 160 1117 139 1142 z "},"Ð":{"ha":929,"x_min":46,"x_max":872,"o":"m 171 417 l 46 417 l 50 471 l 171 471 l 171 782 q 146 807 171 803 l 61 821 l 57 868 l 358 872 q 731 756 589 874 q 872 451 872 638 q 740 124 872 249 q 357 0 607 0 l 57 0 l 61 47 l 146 61 q 171 86 171 65 l 171 417 m 278 471 l 450 471 l 454 417 l 278 417 l 278 69 l 390 51 q 656 152 557 49 q 756 415 756 256 q 645 710 756 601 q 331 818 535 818 l 278 818 l 278 471 z "},"Ñ":{"ha":1022,"x_min":51,"x_max":990,"o":"m 990 868 l 986 821 l 903 810 q 878 802 886 807 q 865 775 871 797 q 858 718 860 753 q 857 613 857 683 l 857 -11 l 790 -11 l 244 753 l 239 753 l 239 256 q 240 149 239 183 q 246 93 240 115 q 259 66 251 71 q 283 58 267 61 l 367 47 l 371 0 l 51 0 l 56 47 l 139 58 q 163 66 156 61 q 176 93 171 71 q 183 149 182 115 q 183 256 183 183 l 183 714 q 174 777 183 757 q 140 808 164 797 l 61 821 l 57 868 l 297 868 l 797 168 l 801 168 l 801 613 q 795 776 801 747 q 757 810 789 804 l 674 821 l 669 868 l 990 868 m 736 1119 q 603 957 708 957 q 487 1007 556 957 q 397 1057 418 1057 q 359 1038 375 1057 q 322 967 343 1019 l 286 967 q 419 1129 314 1129 q 535 1079 467 1129 q 625 1029 604 1029 q 663 1048 647 1029 q 700 1119 679 1067 l 736 1119 z "},"Ò":{"ha":1026,"x_min":64,"x_max":963,"o":"m 963 438 q 833 114 963 249 q 511 -21 703 -21 q 191 103 318 -21 q 64 426 64 228 q 194 751 64 615 q 515 886 324 886 q 835 761 708 886 q 963 438 963 636 m 836 422 q 740 723 836 610 q 510 836 644 836 q 283 729 375 836 q 190 442 190 622 q 285 141 190 254 q 515 28 381 28 q 743 135 650 28 q 836 422 836 242 m 567 940 l 536 940 l 307 1196 l 433 1196 l 567 940 z "},"Ó":{"ha":1026,"x_min":64,"x_max":963,"o":"m 963 438 q 833 114 963 249 q 511 -21 703 -21 q 191 103 318 -21 q 64 426 64 228 q 194 751 64 615 q 515 886 324 886 q 835 761 708 886 q 963 438 963 636 m 836 422 q 740 723 836 610 q 510 836 644 836 q 283 729 375 836 q 190 442 190 622 q 285 141 190 254 q 515 28 381 28 q 743 135 650 28 q 836 422 836 242 m 704 1196 l 475 940 l 443 940 l 574 1196 l 704 1196 z "},"Ô":{"ha":1026,"x_min":64,"x_max":963,"o":"m 963 438 q 833 114 963 249 q 511 -21 703 -21 q 191 103 318 -21 q 64 426 64 228 q 194 751 64 615 q 515 886 324 886 q 835 761 708 886 q 963 438 963 636 m 836 422 q 740 723 836 610 q 510 836 644 836 q 283 729 375 836 q 190 442 190 622 q 285 141 190 254 q 515 28 381 28 q 743 135 650 28 q 836 422 836 242 m 693 940 l 656 940 l 514 1111 l 511 1111 l 369 940 l 332 940 l 486 1210 l 539 1210 l 693 940 z "},"Õ":{"ha":1026,"x_min":64,"x_max":963,"o":"m 738 1119 q 604 957 710 957 q 488 1007 557 957 q 399 1057 419 1057 q 360 1038 376 1057 q 324 967 344 1019 l 288 967 q 421 1129 315 1129 q 537 1079 468 1129 q 626 1029 606 1029 q 665 1048 649 1029 q 701 1119 681 1067 l 738 1119 m 963 438 q 833 114 963 249 q 511 -21 703 -21 q 191 103 318 -21 q 64 426 64 228 q 194 751 64 615 q 515 886 324 886 q 835 761 708 886 q 963 438 963 636 m 836 422 q 740 723 836 610 q 510 836 644 836 q 283 729 375 836 q 190 442 190 622 q 285 141 190 254 q 515 28 381 28 q 743 135 650 28 q 836 422 836 242 z "},"Ö":{"ha":1026,"x_min":64,"x_max":963,"o":"m 963 438 q 833 114 963 249 q 511 -21 703 -21 q 191 103 318 -21 q 64 426 64 228 q 194 751 64 615 q 515 886 324 886 q 835 761 708 886 q 963 438 963 636 m 836 422 q 740 723 836 610 q 510 836 644 836 q 283 729 375 836 q 190 442 190 622 q 285 141 190 254 q 515 28 381 28 q 743 135 650 28 q 836 422 836 242 m 706 1113 q 717 1101 706 1113 q 728 1056 728 1089 q 707 998 728 1022 q 651 974 686 974 q 596 998 617 974 q 575 1056 575 1022 q 596 1113 575 1089 q 651 1138 617 1138 q 706 1113 685 1138 m 429 1113 q 440 1101 429 1113 q 450 1056 450 1089 q 429 998 450 1022 q 374 974 408 974 q 318 998 339 974 q 297 1056 297 1022 q 318 1113 297 1089 q 374 1138 339 1138 q 429 1113 408 1138 z "},"×":{"ha":667,"x_min":50,"x_max":617,"o":"m 617 561 l 382 326 l 617 90 l 569 42 l 333 278 l 97 42 l 50 90 l 285 326 l 50 561 l 97 608 l 333 374 l 569 608 l 617 561 z "},"Ø":{"ha":1026,"x_min":58,"x_max":939,"o":"m 939 440 q 817 115 939 250 q 497 -21 696 -21 q 293 25 389 -21 l 219 -103 l 158 -103 l 247 51 q 108 206 158 108 q 58 426 58 304 q 179 752 58 617 q 499 888 300 888 q 707 839 614 888 l 774 956 l 835 956 l 753 814 q 890 658 840 754 q 939 440 939 561 m 667 771 q 488 832 589 832 q 261 728 350 832 q 172 451 172 625 q 292 128 172 247 l 667 771 m 825 415 q 707 736 825 615 q 332 93 333 93 q 508 38 413 38 q 735 140 646 38 q 825 415 825 242 z "},"Ù":{"ha":988,"x_min":47,"x_max":953,"o":"m 953 868 l 949 821 l 867 810 q 849 806 856 808 q 837 794 843 803 q 828 776 831 786 q 824 741 825 765 q 822 689 822 717 q 821 613 821 661 l 821 288 q 732 62 821 144 q 489 -21 643 -21 q 246 58 332 -21 q 160 299 160 136 l 160 794 q 124 813 160 810 l 51 821 l 47 868 l 386 868 l 382 821 l 310 813 q 274 793 274 808 l 274 313 q 528 50 274 50 q 703 116 642 50 q 765 294 765 182 l 765 613 q 765 719 765 685 q 758 775 764 753 q 745 802 753 797 q 721 810 738 807 l 638 821 l 633 868 l 953 868 m 546 940 l 515 940 l 286 1196 l 413 1196 l 546 940 z "},"Ú":{"ha":988,"x_min":47,"x_max":953,"o":"m 953 868 l 949 821 l 867 810 q 849 806 856 808 q 837 794 843 803 q 828 776 831 786 q 824 741 825 765 q 822 689 822 717 q 821 613 821 661 l 821 288 q 732 62 821 144 q 489 -21 643 -21 q 246 58 332 -21 q 160 299 160 136 l 160 794 q 124 813 160 810 l 51 821 l 47 868 l 386 868 l 382 821 l 310 813 q 274 793 274 808 l 274 313 q 528 50 274 50 q 703 116 642 50 q 765 294 765 182 l 765 613 q 765 719 765 685 q 758 775 764 753 q 745 802 753 797 q 721 810 738 807 l 638 821 l 633 868 l 953 868 m 725 1196 l 496 940 l 464 940 l 594 1196 l 725 1196 z "},"Û":{"ha":988,"x_min":47,"x_max":953,"o":"m 953 868 l 949 821 l 867 810 q 849 806 856 808 q 837 794 843 803 q 828 776 831 786 q 824 741 825 765 q 822 689 822 717 q 821 613 821 661 l 821 288 q 732 62 821 144 q 489 -21 643 -21 q 246 58 332 -21 q 160 299 160 136 l 160 794 q 124 813 160 810 l 51 821 l 47 868 l 386 868 l 382 821 l 310 813 q 274 793 274 808 l 274 313 q 528 50 274 50 q 703 116 642 50 q 765 294 765 182 l 765 613 q 765 719 765 685 q 758 775 764 753 q 745 802 753 797 q 721 810 738 807 l 638 821 l 633 868 l 953 868 m 693 940 l 656 940 l 514 1111 l 511 1111 l 369 940 l 332 940 l 486 1210 l 539 1210 l 693 940 z "},"Ü":{"ha":988,"x_min":47,"x_max":953,"o":"m 953 868 l 949 821 l 867 810 q 849 806 856 808 q 837 794 843 803 q 828 776 831 786 q 824 741 825 765 q 822 689 822 717 q 821 613 821 661 l 821 288 q 732 62 821 144 q 489 -21 643 -21 q 246 58 332 -21 q 160 299 160 136 l 160 794 q 124 813 160 810 l 51 821 l 47 868 l 386 868 l 382 821 l 310 813 q 274 793 274 808 l 274 313 q 528 50 274 50 q 703 116 642 50 q 765 294 765 182 l 765 613 q 765 719 765 685 q 758 775 764 753 q 745 802 753 797 q 721 810 738 807 l 638 821 l 633 868 l 953 868 m 410 1113 q 420 1101 410 1113 q 431 1056 431 1089 q 410 998 431 1022 q 354 974 389 974 q 299 998 319 974 q 278 1056 278 1022 q 299 1113 278 1089 q 354 1138 319 1138 q 410 1113 389 1138 m 687 1113 q 698 1101 687 1113 q 708 1056 708 1089 q 688 998 708 1022 q 632 974 667 974 q 576 998 597 974 q 556 1056 556 1022 q 576 1113 556 1089 q 632 1138 597 1138 q 687 1113 665 1138 z "},"Ý":{"ha":833,"x_min":-10,"x_max":839,"o":"m 839 868 l 835 821 l 793 814 q 742 790 763 804 q 699 739 722 775 l 481 378 l 481 74 q 517 56 481 58 l 611 47 l 615 0 l 231 0 l 235 47 l 331 56 q 367 75 367 60 l 367 364 l 108 772 q 51 811 85 804 l -6 821 l -10 868 l 329 868 l 325 821 l 256 813 q 251 742 217 807 q 272 706 260 726 l 439 429 l 446 429 l 626 738 q 615 814 667 804 l 563 821 l 558 868 l 839 868 m 613 1200 l 383 944 l 351 944 l 482 1200 l 613 1200 z "},"Þ":{"ha":801,"x_min":58,"x_max":738,"o":"m 738 457 q 642 257 738 331 q 403 183 546 183 q 285 190 354 183 l 285 74 q 321 56 285 60 l 419 47 l 424 0 l 58 0 l 63 47 l 135 56 q 171 75 171 60 l 171 794 q 135 813 171 810 l 63 821 l 58 868 l 397 868 l 393 821 l 321 813 q 285 793 285 810 l 285 700 l 394 700 q 649 633 561 700 q 738 457 738 565 m 615 435 q 547 593 615 538 q 357 647 479 649 l 285 647 l 285 247 q 407 233 340 233 q 560 287 506 233 q 615 435 615 340 z "},"ß":{"ha":715,"x_min":17,"x_max":688,"o":"m 440 585 q 613 434 539 529 q 688 231 688 339 q 622 53 688 129 q 465 -22 556 -22 q 348 12 394 -22 q 301 96 301 46 q 323 150 301 128 q 375 172 344 172 q 445 119 433 172 q 418 39 457 67 q 469 26 446 26 q 558 74 521 26 q 596 188 596 121 q 526 385 596 285 q 328 557 457 485 l 328 590 q 465 651 421 607 q 508 778 508 696 q 470 874 508 833 q 378 915 432 915 q 232 704 232 915 l 232 0 l 36 0 l 40 47 l 104 53 q 133 74 133 53 l 133 549 l 17 557 l 24 614 l 126 622 l 128 654 q 207 884 138 804 q 392 964 276 964 q 549 912 490 964 q 607 775 607 860 q 562 655 607 703 q 440 585 517 607 z "},"à":{"ha":619,"x_min":49,"x_max":619,"o":"m 619 65 q 490 -21 549 -21 q 426 5 450 -21 q 401 82 401 31 l 396 82 q 222 -21 300 -21 q 103 25 153 -21 q 53 140 53 71 q 135 281 53 226 q 407 382 217 335 l 407 394 q 373 541 408 500 q 265 582 338 582 q 192 569 228 582 q 156 546 156 557 l 169 525 q 183 482 183 503 q 164 438 183 457 q 115 419 144 419 q 67 437 86 419 q 49 481 49 454 q 135 586 49 531 q 306 642 222 642 q 467 583 422 642 q 506 371 511 525 l 494 106 q 525 57 492 57 q 596 96 547 57 l 619 65 m 396 129 l 404 338 q 211 261 268 301 q 154 164 154 221 q 185 86 154 115 q 260 57 215 57 q 396 129 317 57 m 346 706 l 315 706 l 86 961 l 213 961 l 346 706 z "},"á":{"ha":619,"x_min":47,"x_max":618,"o":"m 618 65 q 489 -21 547 -21 q 424 5 449 -21 q 400 82 400 31 l 394 82 q 221 -21 299 -21 q 101 25 151 -21 q 51 140 51 71 q 133 281 51 226 q 406 382 215 335 l 406 394 q 372 541 407 500 q 264 582 336 582 q 190 569 226 582 q 154 546 154 557 l 168 525 q 182 482 182 503 q 163 438 182 457 q 114 419 143 419 q 66 437 85 419 q 47 481 47 454 q 134 586 47 531 q 304 642 221 642 q 465 583 421 642 q 504 371 510 525 l 493 106 q 524 57 490 57 q 594 96 546 57 l 618 65 m 394 129 l 403 338 q 210 261 267 301 q 153 164 153 221 q 183 86 153 115 q 258 57 214 57 q 394 129 315 57 m 497 961 l 268 706 l 236 706 l 367 961 l 497 961 z "},"â":{"ha":619,"x_min":47,"x_max":618,"o":"m 618 65 q 489 -21 547 -21 q 424 5 449 -21 q 400 82 400 31 l 394 82 q 221 -21 299 -21 q 101 25 151 -21 q 51 140 51 71 q 133 281 51 226 q 406 382 215 335 l 406 394 q 372 541 407 500 q 264 582 336 582 q 190 569 226 582 q 154 546 154 557 l 168 525 q 182 482 182 503 q 163 438 182 457 q 114 419 143 419 q 66 437 85 419 q 47 481 47 454 q 134 586 47 531 q 304 642 221 642 q 465 583 421 642 q 504 371 510 525 l 493 106 q 524 57 490 57 q 594 96 546 57 l 618 65 m 394 129 l 403 338 q 210 261 267 301 q 153 164 153 221 q 183 86 153 115 q 258 57 214 57 q 394 129 315 57 m 461 706 l 424 706 l 282 876 l 279 876 l 138 706 l 100 706 l 254 975 l 307 975 l 461 706 z "},"ã":{"ha":619,"x_min":47,"x_max":618,"o":"m 618 65 q 489 -21 547 -21 q 424 5 449 -21 q 400 82 400 31 l 394 82 q 221 -21 299 -21 q 101 25 151 -21 q 51 140 51 71 q 133 281 51 226 q 406 382 215 335 l 406 394 q 372 541 407 500 q 264 582 336 582 q 190 569 226 582 q 154 546 154 557 l 168 525 q 182 482 182 503 q 163 438 182 457 q 114 419 143 419 q 66 437 85 419 q 47 481 47 454 q 134 586 47 531 q 304 642 221 642 q 465 583 421 642 q 504 371 510 525 l 493 106 q 524 57 490 57 q 594 96 546 57 l 618 65 m 394 129 l 403 338 q 210 261 267 301 q 153 164 153 221 q 183 86 153 115 q 258 57 214 57 q 394 129 315 57 m 508 885 q 375 722 481 722 q 259 772 328 722 q 169 822 190 822 q 131 803 147 822 q 94 732 115 785 l 58 732 q 192 894 86 894 q 308 844 239 894 q 397 794 376 794 q 435 813 419 794 q 472 885 451 832 l 508 885 z "},"ä":{"ha":619,"x_min":47,"x_max":618,"o":"m 618 65 q 489 -21 547 -21 q 424 5 449 -21 q 400 82 400 31 l 394 82 q 221 -21 299 -21 q 101 25 151 -21 q 51 140 51 71 q 133 281 51 226 q 406 382 215 335 l 406 394 q 372 541 407 500 q 264 582 336 582 q 190 569 226 582 q 154 546 154 557 l 168 525 q 182 482 182 503 q 163 438 182 457 q 114 419 143 419 q 66 437 85 419 q 47 481 47 454 q 134 586 47 531 q 304 642 221 642 q 465 583 421 642 q 504 371 510 525 l 493 106 q 524 57 490 57 q 594 96 546 57 l 618 65 m 394 129 l 403 338 q 210 261 267 301 q 153 164 153 221 q 183 86 153 115 q 258 57 214 57 q 394 129 315 57 m 485 887 q 496 875 485 887 q 507 829 507 863 q 486 772 507 796 q 431 747 465 747 q 375 772 396 747 q 354 829 354 796 q 375 887 354 863 q 431 911 396 911 q 485 887 464 911 m 208 887 q 219 875 208 887 q 229 829 229 863 q 208 772 229 796 q 153 747 188 747 q 97 772 118 747 q 76 829 76 796 q 97 887 76 863 q 153 911 118 911 q 208 887 188 911 z "},"å":{"ha":619,"x_min":47,"x_max":618,"o":"m 390 929 q 407 911 390 929 q 424 840 424 893 q 390 751 424 788 q 300 715 356 715 q 210 751 244 715 q 176 840 176 788 q 210 929 176 893 q 300 965 244 965 q 390 929 356 965 m 618 65 q 489 -21 547 -21 q 424 5 449 -21 q 400 82 400 31 l 394 82 q 221 -21 299 -21 q 101 25 151 -21 q 51 140 51 71 q 133 281 51 226 q 406 382 215 335 l 406 394 q 372 541 407 500 q 264 582 336 582 q 190 569 226 582 q 154 546 154 557 l 168 525 q 182 482 182 503 q 163 438 182 457 q 114 419 143 419 q 66 437 85 419 q 47 481 47 454 q 134 586 47 531 q 304 642 221 642 q 465 583 421 642 q 504 371 510 525 l 493 106 q 524 57 490 57 q 594 96 546 57 l 618 65 m 382 840 q 360 903 382 878 q 300 929 338 929 q 240 903 263 929 q 218 840 218 878 q 240 778 218 804 q 300 753 263 753 q 360 778 338 753 q 382 840 382 804 m 394 129 l 403 338 q 210 261 267 301 q 153 164 153 221 q 183 86 153 115 q 258 57 214 57 q 394 129 315 57 z "},"æ":{"ha":988,"x_min":47,"x_max":932,"o":"m 440 121 q 340 19 400 60 q 219 -21 279 -21 q 101 26 150 -21 q 51 140 51 72 q 134 280 51 225 q 406 382 217 335 l 406 399 q 264 582 418 582 q 190 569 226 582 q 154 546 154 557 l 168 525 q 182 482 182 503 q 163 438 182 457 q 114 419 143 419 q 66 437 85 419 q 47 481 47 454 q 134 586 47 531 q 304 642 221 642 q 490 538 460 642 q 718 640 585 640 q 874 585 815 640 q 932 439 932 529 q 924 365 932 394 l 506 371 q 505 354 506 368 q 504 338 504 340 q 566 144 504 219 q 722 68 628 68 q 900 153 831 68 l 928 136 q 825 22 890 63 q 679 -19 760 -19 q 540 18 603 -19 q 440 121 478 56 m 821 414 q 790 544 825 496 q 692 592 756 592 q 580 543 632 592 q 511 413 528 494 q 563 413 531 413 q 665 413 596 413 q 778 414 733 414 q 821 414 822 414 m 403 338 q 210 261 267 301 q 153 164 153 221 q 183 86 153 115 q 261 57 214 57 q 424 153 349 57 q 399 292 399 221 q 403 338 399 304 z "},"ç":{"ha":614,"x_min":47,"x_max":576,"o":"m 310 -19 q 121 75 194 -12 q 47 292 47 163 q 142 541 47 442 q 371 640 238 640 q 515 601 461 640 q 569 511 569 563 q 549 458 569 475 q 499 440 528 440 q 440 476 460 440 q 435 563 419 513 l 435 565 q 347 590 400 590 q 208 521 264 590 q 153 340 153 451 q 215 146 153 224 q 371 68 276 68 q 549 153 478 68 l 576 136 q 368 -17 510 3 l 306 -82 q 435 -112 386 -79 q 485 -204 485 -144 q 410 -316 485 -271 q 201 -371 336 -361 l 190 -340 q 407 -218 407 -311 q 377 -163 407 -183 q 289 -143 347 -143 q 208 -150 254 -143 l 208 -126 l 310 -19 z "},"è":{"ha":635,"x_min":47,"x_max":579,"o":"m 576 136 q 474 22 539 63 q 326 -19 408 -19 q 126 69 206 -19 q 47 292 47 157 q 140 541 47 442 q 365 640 233 640 q 521 585 463 640 q 579 439 579 529 q 572 365 579 397 l 154 371 q 153 338 153 365 q 215 144 153 219 q 371 68 276 68 q 549 153 478 68 l 576 136 m 468 414 q 438 543 474 494 q 340 592 403 592 q 228 543 281 592 q 160 413 176 494 q 183 413 168 413 q 240 413 199 413 q 317 413 281 413 q 390 414 353 414 q 448 414 426 414 q 468 414 469 414 m 383 706 l 353 706 l 124 961 l 250 961 l 383 706 z "},"é":{"ha":635,"x_min":47,"x_max":579,"o":"m 576 136 q 474 22 539 63 q 326 -19 408 -19 q 126 69 206 -19 q 47 292 47 157 q 140 541 47 442 q 365 640 233 640 q 521 585 463 640 q 579 439 579 529 q 572 365 579 397 l 154 371 q 153 338 153 365 q 215 144 153 219 q 371 68 276 68 q 549 153 478 68 l 576 136 m 468 414 q 438 543 474 494 q 340 592 403 592 q 228 543 281 592 q 160 413 176 494 q 183 413 168 413 q 240 413 199 413 q 317 413 281 413 q 390 414 353 414 q 448 414 426 414 q 468 414 469 414 m 515 961 l 286 706 l 254 706 l 385 961 l 515 961 z "},"ê":{"ha":635,"x_min":47,"x_max":579,"o":"m 576 136 q 474 22 539 63 q 326 -19 408 -19 q 126 69 206 -19 q 47 292 47 157 q 140 541 47 442 q 365 640 233 640 q 521 585 463 640 q 579 439 579 529 q 572 365 579 397 l 154 371 q 153 338 153 365 q 215 144 153 219 q 371 68 276 68 q 549 153 478 68 l 576 136 m 468 414 q 438 543 474 494 q 340 592 403 592 q 228 543 281 592 q 160 413 176 494 q 183 413 168 413 q 240 413 199 413 q 317 413 281 413 q 390 414 353 414 q 448 414 426 414 q 468 414 469 414 m 503 706 l 465 706 l 324 876 l 321 876 l 179 706 l 142 706 l 296 975 l 349 975 l 503 706 z "},"ë":{"ha":635,"x_min":47,"x_max":579,"o":"m 576 136 q 474 22 539 63 q 326 -19 408 -19 q 126 69 206 -19 q 47 292 47 157 q 140 541 47 442 q 365 640 233 640 q 521 585 463 640 q 579 439 579 529 q 572 365 579 397 l 154 371 q 153 338 153 365 q 215 144 153 219 q 371 68 276 68 q 549 153 478 68 l 576 136 m 468 414 q 438 543 474 494 q 340 592 403 592 q 228 543 281 592 q 160 413 176 494 q 183 413 168 413 q 240 413 199 413 q 317 413 281 413 q 390 414 353 414 q 448 414 426 414 q 468 414 469 414 m 516 887 q 527 875 516 887 q 538 829 538 863 q 517 772 538 796 q 461 747 496 747 q 406 772 426 747 q 385 829 385 796 q 406 887 385 863 q 461 911 426 911 q 516 887 494 911 m 239 887 q 249 875 239 887 q 260 829 260 863 q 239 772 260 796 q 183 747 218 747 q 128 772 149 747 q 107 829 107 796 q 128 887 107 863 q 183 911 149 911 q 239 887 218 911 z "},"ì":{"ha":369,"x_min":-24,"x_max":336,"o":"m 336 0 l 39 0 l 43 47 l 101 53 q 136 74 136 54 l 136 464 q 128 527 136 513 q 89 549 119 542 l 33 557 l 36 594 l 235 640 l 235 72 q 274 53 235 54 l 332 47 l 336 0 m 236 706 l 206 706 l -24 961 l 103 961 l 236 706 z "},"í":{"ha":369,"x_min":33,"x_max":376,"o":"m 336 0 l 39 0 l 43 47 l 101 53 q 136 74 136 54 l 136 464 q 128 527 136 513 q 89 549 119 542 l 33 557 l 36 594 l 235 640 l 235 72 q 274 53 235 54 l 332 47 l 336 0 m 376 961 l 147 706 l 115 706 l 246 961 l 376 961 z "},"î":{"ha":369,"x_min":1,"x_max":363,"o":"m 336 0 l 39 0 l 43 47 l 101 53 q 136 74 136 54 l 136 464 q 128 527 136 513 q 89 549 119 542 l 33 557 l 36 594 l 235 640 l 235 72 q 274 53 235 54 l 332 47 l 336 0 m 363 706 l 325 706 l 183 876 l 181 876 l 39 706 l 1 706 l 156 975 l 208 975 l 363 706 z "},"ï":{"ha":369,"x_min":-33,"x_max":397,"o":"m 336 0 l 39 0 l 43 47 l 101 53 q 136 74 136 54 l 136 464 q 128 527 136 513 q 89 549 119 542 l 33 557 l 36 594 l 235 640 l 235 72 q 274 53 235 54 l 332 47 l 336 0 m 376 887 q 386 875 376 887 q 397 829 397 863 q 376 772 397 796 q 321 747 356 747 q 265 772 286 747 q 244 829 244 796 q 265 887 244 863 q 321 911 286 911 q 376 887 354 911 m 99 887 q 109 875 99 887 q 119 829 119 863 q 99 772 119 796 q 43 747 78 747 q -12 772 8 747 q -33 829 -33 796 q -12 887 -33 863 q 43 911 8 911 q 99 887 78 911 z "},"ð":{"ha":694,"x_min":36,"x_max":660,"o":"m 383 783 l 178 715 l 178 772 l 331 824 q 175 893 261 869 l 196 929 q 400 846 307 907 l 582 907 l 582 850 l 454 807 q 606 613 551 726 q 660 368 660 499 q 575 90 660 200 q 344 -21 490 -21 q 122 74 207 -21 q 36 308 36 169 q 123 544 36 451 q 326 636 210 636 q 451 601 393 636 q 544 500 510 567 q 383 783 506 676 m 146 344 q 233 88 146 175 q 360 33 288 33 q 496 97 443 33 q 549 276 549 161 q 465 529 549 443 q 335 586 408 586 q 198 522 250 586 q 146 344 146 458 z "},"ñ":{"ha":753,"x_min":33,"x_max":733,"o":"m 733 0 l 438 0 l 442 47 l 499 53 q 533 74 533 54 l 533 376 q 500 515 533 475 q 400 556 467 556 q 235 486 319 556 l 235 72 q 272 53 235 54 l 336 47 l 340 0 l 40 0 l 44 47 l 100 53 q 135 74 135 54 l 135 467 q 127 528 135 514 q 92 549 119 542 l 33 557 l 35 594 l 235 640 l 235 540 l 242 540 q 464 640 360 640 q 581 596 536 640 q 632 442 632 544 l 632 74 q 674 53 632 56 l 729 47 l 733 0 m 601 885 q 468 722 574 722 q 352 772 421 722 q 263 822 283 822 q 224 803 240 822 q 188 732 208 785 l 151 732 q 285 894 179 894 q 401 844 332 894 q 490 794 469 794 q 528 813 513 794 q 565 885 544 832 l 601 885 z "},"ò":{"ha":719,"x_min":49,"x_max":672,"o":"m 672 324 q 580 78 672 178 q 351 -21 488 -21 q 133 72 217 -21 q 49 307 49 165 q 142 544 49 449 q 371 640 236 640 q 588 551 504 640 q 672 324 672 461 m 564 282 q 489 531 564 451 q 357 588 432 588 q 215 519 271 588 q 158 338 158 450 q 235 89 158 167 q 365 33 288 33 q 507 102 450 33 q 564 282 564 171 m 418 706 l 388 706 l 158 961 l 285 961 l 418 706 z "},"ó":{"ha":719,"x_min":49,"x_max":672,"o":"m 672 324 q 580 78 672 178 q 351 -21 488 -21 q 133 72 217 -21 q 49 307 49 165 q 142 544 49 449 q 371 640 236 640 q 588 551 504 640 q 672 324 672 461 m 564 282 q 489 531 564 451 q 357 588 432 588 q 215 519 271 588 q 158 338 158 450 q 235 89 158 167 q 365 33 288 33 q 507 102 450 33 q 564 282 564 171 m 561 961 l 332 706 l 300 706 l 431 961 l 561 961 z "},"ô":{"ha":719,"x_min":49,"x_max":672,"o":"m 672 324 q 580 78 672 178 q 351 -21 488 -21 q 133 72 217 -21 q 49 307 49 165 q 142 544 49 449 q 371 640 236 640 q 588 551 504 640 q 672 324 672 461 m 564 282 q 489 531 564 451 q 357 588 432 588 q 215 519 271 588 q 158 338 158 450 q 235 89 158 167 q 365 33 288 33 q 507 102 450 33 q 564 282 564 171 m 540 706 l 503 706 l 361 876 l 358 876 l 217 706 l 179 706 l 333 975 l 386 975 l 540 706 z "},"õ":{"ha":719,"x_min":49,"x_max":672,"o":"m 672 324 q 580 78 672 178 q 351 -21 488 -21 q 133 72 217 -21 q 49 307 49 165 q 142 544 49 449 q 371 640 236 640 q 588 551 504 640 q 672 324 672 461 m 564 282 q 489 531 564 451 q 357 588 432 588 q 215 519 271 588 q 158 338 158 450 q 235 89 158 167 q 365 33 288 33 q 507 102 450 33 q 564 282 564 171 m 585 885 q 451 722 557 722 q 335 772 404 722 q 246 822 267 822 q 208 803 224 822 q 171 732 192 785 l 135 732 q 268 894 163 894 q 384 844 315 894 q 474 794 453 794 q 512 813 496 794 q 549 885 528 832 l 585 885 z "},"ö":{"ha":719,"x_min":49,"x_max":672,"o":"m 672 324 q 580 78 672 178 q 351 -21 488 -21 q 133 72 217 -21 q 49 307 49 165 q 142 544 49 449 q 371 640 236 640 q 588 551 504 640 q 672 324 672 461 m 564 282 q 489 531 564 451 q 357 588 432 588 q 215 519 271 588 q 158 338 158 450 q 235 89 158 167 q 365 33 288 33 q 507 102 450 33 q 564 282 564 171 m 553 887 q 564 875 553 887 q 575 829 575 863 q 554 772 575 796 q 499 747 533 747 q 443 772 464 747 q 422 829 422 796 q 443 887 422 863 q 499 911 464 911 q 553 887 532 911 m 276 887 q 287 875 276 887 q 297 829 297 863 q 276 772 297 796 q 221 747 256 747 q 165 772 186 747 q 144 829 144 796 q 165 887 144 863 q 221 911 186 911 q 276 887 256 911 z "},"÷":{"ha":667,"x_min":44,"x_max":622,"o":"m 622 292 l 44 292 l 49 360 l 618 360 l 622 292 m 387 181 q 397 170 387 181 q 407 131 407 160 q 387 80 407 101 q 336 58 367 58 q 285 80 306 58 q 264 131 264 101 q 285 181 264 160 q 336 201 306 201 q 387 181 367 201 m 386 570 q 397 559 386 570 q 407 519 407 549 q 386 469 407 490 q 335 447 365 447 q 284 469 304 447 q 264 519 264 490 q 284 570 264 549 q 335 592 304 592 q 386 570 365 592 z "},"ø":{"ha":719,"x_min":51,"x_max":667,"o":"m 667 796 l 543 581 q 633 465 600 536 q 665 311 665 394 q 576 76 665 172 q 354 -21 488 -21 q 214 13 281 -21 l 118 -156 l 64 -156 l 175 36 q 84 152 117 81 q 51 308 51 224 q 140 544 51 447 q 363 640 229 640 q 504 607 438 640 l 614 796 l 667 796 m 464 538 q 338 586 411 586 q 204 522 256 586 q 153 343 153 458 q 221 115 153 206 l 464 538 m 563 276 q 497 501 563 414 l 253 79 q 378 33 307 33 q 510 98 458 33 q 563 276 563 163 z "},"ù":{"ha":731,"x_min":14,"x_max":722,"o":"m 722 38 l 718 4 l 510 -21 l 510 81 l 503 81 q 281 -21 382 -21 q 164 25 208 -21 q 113 178 113 75 l 115 547 q 115 556 115 553 q 113 560 114 558 q 107 563 111 563 q 99 565 103 564 q 86 566 94 565 q 71 568 78 567 l 18 574 l 14 619 l 221 619 l 211 244 q 244 104 211 144 q 344 64 278 64 q 510 135 428 64 l 510 547 q 472 568 510 565 l 403 574 l 399 619 l 610 619 l 610 86 q 622 60 610 64 l 722 38 m 406 706 l 375 706 l 146 961 l 272 961 l 406 706 z "},"ú":{"ha":731,"x_min":14,"x_max":722,"o":"m 722 38 l 718 4 l 510 -21 l 510 81 l 503 81 q 281 -21 382 -21 q 164 25 208 -21 q 113 178 113 75 l 115 547 q 115 556 115 553 q 113 560 114 558 q 107 563 111 563 q 99 565 103 564 q 86 566 94 565 q 71 568 78 567 l 18 574 l 14 619 l 221 619 l 211 244 q 244 104 211 144 q 344 64 278 64 q 510 135 428 64 l 510 547 q 472 568 510 565 l 403 574 l 399 619 l 610 619 l 610 86 q 622 60 610 64 l 722 38 m 561 961 l 332 706 l 300 706 l 431 961 l 561 961 z "},"û":{"ha":731,"x_min":14,"x_max":722,"o":"m 722 38 l 718 4 l 510 -21 l 510 81 l 503 81 q 281 -21 382 -21 q 164 25 208 -21 q 113 178 113 75 l 115 547 q 115 556 115 553 q 113 560 114 558 q 107 563 111 563 q 99 565 103 564 q 86 566 94 565 q 71 568 78 567 l 18 574 l 14 619 l 221 619 l 211 244 q 244 104 211 144 q 344 64 278 64 q 510 135 428 64 l 510 547 q 472 568 510 565 l 403 574 l 399 619 l 610 619 l 610 86 q 622 60 610 64 l 722 38 m 529 706 l 492 706 l 350 876 l 347 876 l 206 706 l 168 706 l 322 975 l 375 975 l 529 706 z "},"ü":{"ha":731,"x_min":14,"x_max":722,"o":"m 722 38 l 718 4 l 510 -21 l 510 81 l 503 81 q 281 -21 382 -21 q 164 25 208 -21 q 113 178 113 75 l 115 547 q 115 556 115 553 q 113 560 114 558 q 107 563 111 563 q 99 565 103 564 q 86 566 94 565 q 71 568 78 567 l 18 574 l 14 619 l 221 619 l 211 244 q 244 104 211 144 q 344 64 278 64 q 510 135 428 64 l 510 547 q 472 568 510 565 l 403 574 l 399 619 l 610 619 l 610 86 q 622 60 610 64 l 722 38 m 261 887 q 272 875 261 887 q 282 829 282 863 q 261 772 282 796 q 206 747 240 747 q 150 772 171 747 q 129 829 129 796 q 150 887 129 863 q 206 911 171 911 q 261 887 240 911 m 538 887 q 549 875 538 887 q 560 829 560 863 q 539 772 560 796 q 483 747 518 747 q 428 772 449 747 q 407 829 407 796 q 428 887 407 863 q 483 911 449 911 q 538 887 517 911 z "},"ý":{"ha":628,"x_min":-25,"x_max":660,"o":"m 660 619 l 656 574 l 610 564 q 576 547 588 561 q 546 490 564 533 l 376 29 l 310 -182 q 243 -321 279 -278 q 147 -364 207 -364 q 81 -344 106 -364 q 57 -292 57 -324 q 74 -242 57 -261 q 122 -222 90 -222 q 201 -272 175 -222 q 263 -165 232 -258 l 315 -14 l 315 -12 l 74 524 q 55 553 64 546 q 21 564 46 560 l -19 572 l -25 619 l 261 619 l 257 574 l 210 567 q 186 529 171 564 l 358 119 l 490 496 q 497 546 503 531 q 464 564 492 561 l 413 574 l 408 619 l 660 619 m 506 961 l 276 706 l 244 706 l 375 961 l 506 961 z "},"þ":{"ha":713,"x_min":-11,"x_max":664,"o":"m 664 336 q 575 85 664 190 q 340 -21 486 -21 q 208 3 272 -21 l 206 3 l 206 -269 q 244 -289 206 -287 l 317 -294 l 321 -342 l 10 -342 l 14 -294 l 72 -289 q 107 -268 107 -287 l 107 824 q 92 853 107 849 l -11 883 l -7 918 l 206 968 l 206 532 l 211 532 q 413 633 307 633 q 594 548 525 633 q 664 336 664 463 m 556 290 q 503 476 556 404 q 369 547 451 547 q 206 461 276 547 l 206 110 q 367 33 285 33 q 499 106 443 33 q 556 290 556 178 z "},"ÿ":{"ha":628,"x_min":-25,"x_max":660,"o":"m 660 619 l 656 574 l 610 564 q 576 547 588 561 q 546 490 564 533 l 376 29 l 310 -182 q 243 -321 279 -278 q 147 -364 207 -364 q 81 -344 106 -364 q 57 -292 57 -324 q 74 -242 57 -261 q 122 -222 90 -222 q 201 -272 175 -222 q 263 -165 232 -258 l 315 -14 l 315 -12 l 74 524 q 55 553 64 546 q 21 564 46 560 l -19 572 l -25 619 l 261 619 l 257 574 l 210 567 q 186 529 171 564 l 358 119 l 490 496 q 497 546 503 531 q 464 564 492 561 l 413 574 l 408 619 l 660 619 m 520 887 q 531 875 520 887 q 542 829 542 863 q 521 772 542 796 q 465 747 500 747 q 410 772 431 747 q 389 829 389 796 q 410 887 389 863 q 465 911 431 911 q 520 887 499 911 m 243 887 q 253 875 243 887 q 264 829 264 863 q 243 772 264 796 q 188 747 222 747 q 132 772 153 747 q 111 829 111 796 q 132 887 111 863 q 188 911 153 911 q 243 887 222 911 z "},"Ā":{"ha":829,"x_min":-22,"x_max":851,"o":"m 851 0 l 494 0 l 499 47 l 578 57 q 602 70 596 61 q 605 99 608 79 q 588 161 601 118 l 536 314 l 236 314 l 186 163 q 166 85 165 107 q 190 57 167 63 l 260 47 l 264 0 l -22 0 l -18 47 l 38 57 q 90 97 69 64 q 154 256 110 131 l 347 800 l 347 844 l 463 893 l 731 88 q 765 61 738 65 l 847 47 l 851 0 m 518 371 l 394 761 l 388 761 l 256 371 l 518 371 m 593 996 l 250 996 l 254 1053 l 589 1053 l 593 996 z "},"ā":{"ha":619,"x_min":47,"x_max":618,"o":"m 618 65 q 489 -21 547 -21 q 424 5 449 -21 q 400 82 400 31 l 394 82 q 221 -21 299 -21 q 101 25 151 -21 q 51 140 51 71 q 133 281 51 226 q 406 382 215 335 l 406 394 q 372 541 407 500 q 264 582 336 582 q 190 569 226 582 q 154 546 154 557 l 168 525 q 182 482 182 503 q 163 438 182 457 q 114 419 143 419 q 66 437 85 419 q 47 481 47 454 q 134 586 47 531 q 304 642 221 642 q 465 583 421 642 q 504 371 510 525 l 493 106 q 524 57 490 57 q 594 96 546 57 l 618 65 m 394 129 l 403 338 q 210 261 267 301 q 153 164 153 221 q 183 86 153 115 q 258 57 214 57 q 394 129 315 57 m 471 749 l 128 749 l 132 806 l 467 806 l 471 749 z "},"Ă":{"ha":829,"x_min":-22,"x_max":851,"o":"m 851 0 l 494 0 l 499 47 l 578 57 q 602 70 596 61 q 605 99 608 79 q 588 161 601 118 l 536 314 l 236 314 l 186 163 q 166 85 165 107 q 190 57 167 63 l 260 47 l 264 0 l -22 0 l -18 47 l 38 57 q 90 97 69 64 q 154 256 110 131 l 347 800 l 347 844 l 463 893 l 731 88 q 765 61 738 65 l 847 47 l 851 0 m 518 371 l 394 761 l 388 761 l 256 371 l 518 371 m 607 1208 q 590 1134 597 1163 q 566 1066 582 1106 q 532 1004 550 1026 q 484 965 514 982 q 417 949 454 949 q 349 965 379 949 q 301 1004 319 982 q 267 1066 283 1026 q 244 1134 251 1106 q 226 1208 236 1163 l 258 1208 q 331 1067 294 1117 q 417 1017 367 1017 q 503 1067 467 1017 q 575 1208 539 1117 l 607 1208 z "},"ă":{"ha":619,"x_min":47,"x_max":618,"o":"m 618 65 q 489 -21 547 -21 q 424 5 449 -21 q 400 82 400 31 l 394 82 q 221 -21 299 -21 q 101 25 151 -21 q 51 140 51 71 q 133 281 51 226 q 406 382 215 335 l 406 394 q 372 541 407 500 q 264 582 336 582 q 190 569 226 582 q 154 546 154 557 l 168 525 q 182 482 182 503 q 163 438 182 457 q 114 419 143 419 q 66 437 85 419 q 47 481 47 454 q 134 586 47 531 q 304 642 221 642 q 465 583 421 642 q 504 371 510 525 l 493 106 q 524 57 490 57 q 594 96 546 57 l 618 65 m 394 129 l 403 338 q 210 261 267 301 q 153 164 153 221 q 183 86 153 115 q 258 57 214 57 q 394 129 315 57 m 492 961 q 474 887 482 915 q 451 819 467 858 q 417 757 435 779 q 369 718 399 735 q 301 701 339 701 q 234 718 264 701 q 186 757 204 735 q 152 819 168 779 q 128 887 136 858 q 111 961 121 915 l 143 961 q 215 819 179 869 q 301 769 251 769 q 388 819 351 769 q 460 961 424 869 l 492 961 z "},"Ą":{"ha":829,"x_min":-22,"x_max":851,"o":"m 732 -294 q 645 -263 679 -294 q 611 -175 611 -232 q 736 0 611 -78 l 494 0 l 499 47 l 578 57 q 606 81 604 63 q 588 161 607 100 l 536 314 l 236 314 l 188 163 q 167 83 167 104 q 190 58 167 63 l 260 47 l 264 0 l -22 0 l -18 47 l 38 57 q 90 97 69 64 q 154 256 110 131 l 347 800 l 347 844 l 463 893 l 731 88 q 765 61 738 65 l 847 47 l 851 0 q 739 -56 782 -15 q 696 -149 696 -96 q 714 -202 696 -181 q 764 -224 732 -224 q 835 -194 808 -224 l 850 -211 q 810 -269 842 -244 q 732 -294 778 -294 m 518 371 l 394 761 l 388 761 l 256 371 l 518 371 z "},"ą":{"ha":619,"x_min":47,"x_max":618,"o":"m 496 -294 q 404 -262 439 -294 q 369 -172 369 -231 q 399 -78 369 -121 q 474 -12 429 -36 q 400 82 399 -12 l 394 82 q 221 -21 299 -21 q 101 25 151 -21 q 51 140 51 71 q 133 281 51 226 q 406 382 215 335 l 406 394 q 372 541 407 500 q 264 582 336 582 q 190 569 226 582 q 154 546 154 557 l 168 525 q 182 482 182 503 q 163 438 182 457 q 114 419 144 419 q 66 437 85 419 q 47 481 47 454 q 134 586 47 531 q 304 642 221 642 q 465 583 421 642 q 504 371 510 525 l 493 106 q 525 57 490 57 q 594 96 546 57 l 618 65 q 539 -8 597 31 q 453 -150 453 -68 q 474 -202 453 -181 q 528 -224 494 -224 q 599 -194 572 -224 l 614 -211 q 574 -269 606 -244 q 496 -294 542 -294 m 394 129 l 403 338 q 210 261 267 301 q 154 164 154 221 q 184 86 154 115 q 258 57 214 57 q 394 129 315 57 z "},"Ć":{"ha":922,"x_min":64,"x_max":849,"o":"m 849 261 l 815 -1 l 751 13 q 538 -21 649 -21 q 198 99 332 -21 q 64 421 64 218 q 200 760 64 632 q 543 888 336 888 q 736 861 651 888 l 842 883 l 842 601 l 783 601 l 747 782 q 535 833 657 833 q 286 722 382 833 q 190 439 190 611 q 286 144 190 256 q 550 32 382 32 q 729 74 650 32 l 788 261 l 849 261 m 717 1208 l 488 953 l 456 953 l 586 1208 l 717 1208 z "},"ć":{"ha":614,"x_min":47,"x_max":576,"o":"m 576 136 q 474 22 539 63 q 326 -19 408 -19 q 126 69 206 -19 q 47 292 47 157 q 142 541 47 442 q 371 640 238 640 q 515 601 461 640 q 569 511 569 563 q 549 458 569 475 q 499 440 528 440 q 440 476 460 440 q 435 563 419 513 l 435 565 q 347 590 400 590 q 208 521 264 590 q 153 340 153 451 q 215 146 153 224 q 371 68 276 68 q 549 153 478 68 l 576 136 m 532 961 l 303 706 l 271 706 l 401 961 l 532 961 z "},"Ĉ":{"ha":922,"x_min":64,"x_max":849,"o":"m 849 261 l 815 -1 l 751 13 q 538 -21 649 -21 q 198 99 332 -21 q 64 421 64 218 q 200 760 64 632 q 543 888 336 888 q 736 861 651 888 l 842 883 l 842 601 l 783 601 l 747 782 q 535 833 657 833 q 286 722 382 833 q 190 439 190 611 q 286 144 190 256 q 550 32 382 32 q 729 74 650 32 l 788 261 l 849 261 m 688 953 l 650 953 l 508 1124 l 506 1124 l 364 953 l 326 953 l 481 1222 l 533 1222 l 688 953 z "},"ĉ":{"ha":614,"x_min":47,"x_max":576,"o":"m 576 136 q 474 22 539 63 q 326 -19 408 -19 q 126 69 206 -19 q 47 292 47 157 q 142 541 47 442 q 371 640 238 640 q 515 601 461 640 q 569 511 569 563 q 549 458 569 475 q 499 440 528 440 q 440 476 460 440 q 435 563 419 513 l 435 565 q 347 590 400 590 q 208 521 264 590 q 153 340 153 451 q 215 146 153 224 q 371 68 276 68 q 549 153 478 68 l 576 136 m 524 706 l 486 706 l 344 876 l 342 876 l 200 706 l 163 706 l 317 975 l 369 975 l 524 706 z "},"Ċ":{"ha":922,"x_min":64,"x_max":849,"o":"m 849 261 l 815 -1 l 751 13 q 538 -21 649 -21 q 198 99 332 -21 q 64 421 64 218 q 200 760 64 632 q 543 888 336 888 q 736 861 651 888 l 842 883 l 842 601 l 783 601 l 747 782 q 535 833 657 833 q 286 722 382 833 q 190 439 190 611 q 286 144 190 256 q 550 32 382 32 q 729 74 650 32 l 788 261 l 849 261 m 610 1085 q 588 1025 610 1050 q 532 1000 567 1000 q 474 1025 496 1000 q 453 1085 453 1050 q 474 1144 453 1119 q 532 1168 496 1168 q 588 1143 567 1168 q 610 1085 610 1118 z "},"ċ":{"ha":614,"x_min":47,"x_max":576,"o":"m 576 136 q 474 22 539 63 q 326 -19 408 -19 q 126 69 206 -19 q 47 292 47 157 q 142 541 47 442 q 371 640 238 640 q 515 601 461 640 q 569 511 569 563 q 549 458 569 475 q 499 440 528 440 q 440 476 460 440 q 435 563 419 513 l 435 565 q 347 590 400 590 q 208 521 264 590 q 153 340 153 451 q 215 146 153 224 q 371 68 276 68 q 549 153 478 68 l 576 136 m 425 838 q 403 778 425 803 q 347 753 382 753 q 290 778 311 753 q 268 838 268 803 q 290 897 268 872 q 347 921 311 921 q 403 896 382 921 q 425 838 425 871 z "},"Č":{"ha":922,"x_min":64,"x_max":849,"o":"m 849 261 l 815 -1 l 751 13 q 538 -21 649 -21 q 198 99 332 -21 q 64 421 64 218 q 200 760 64 632 q 543 888 336 888 q 736 861 651 888 l 842 883 l 842 601 l 783 601 l 747 782 q 535 833 657 833 q 286 722 382 833 q 190 439 190 611 q 286 144 190 256 q 550 32 382 32 q 729 74 650 32 l 788 261 l 849 261 m 682 1222 l 528 953 l 475 953 l 321 1222 l 358 1222 l 500 1051 l 503 1051 l 644 1222 l 682 1222 z "},"č":{"ha":614,"x_min":47,"x_max":576,"o":"m 576 136 q 474 22 539 63 q 326 -19 408 -19 q 126 69 206 -19 q 47 292 47 157 q 142 541 47 442 q 371 640 238 640 q 515 601 461 640 q 569 511 569 563 q 549 458 569 475 q 499 440 528 440 q 440 476 460 440 q 435 563 419 513 l 435 565 q 347 590 400 590 q 208 521 264 590 q 153 340 153 451 q 215 146 153 224 q 371 68 276 68 q 549 153 478 68 l 576 136 m 524 975 l 369 706 l 317 706 l 163 975 l 200 975 l 342 804 l 344 804 l 486 975 l 524 975 z "},"Ď":{"ha":943,"x_min":58,"x_max":881,"o":"m 881 451 q 848 279 881 360 q 753 135 815 199 q 590 36 690 72 q 365 0 490 0 l 58 0 l 63 47 l 135 56 q 171 75 171 60 l 171 794 q 164 806 171 803 q 135 813 157 810 l 63 821 l 58 868 l 367 872 q 740 756 600 874 q 881 451 881 638 m 756 419 q 647 710 756 603 q 338 818 539 818 l 285 818 l 285 69 l 396 51 q 660 158 564 54 q 756 419 756 261 m 608 1222 l 454 953 l 401 953 l 247 1222 l 285 1222 l 426 1051 l 429 1051 l 571 1222 l 608 1222 z "},"ď":{"ha":1036,"x_min":47,"x_max":958,"o":"m 718 38 l 714 4 l 507 -21 l 507 72 l 503 72 q 307 -19 419 -19 q 122 69 196 -19 q 47 292 47 157 q 140 537 47 438 q 379 636 233 636 q 504 611 436 636 l 507 611 l 507 854 q 494 879 507 875 l 386 904 l 392 938 l 606 968 l 606 86 q 619 60 606 64 l 718 38 m 507 128 l 507 500 q 347 581 426 581 q 209 510 263 581 q 156 328 156 440 q 210 136 156 208 q 354 64 264 64 q 507 128 436 64 m 958 847 q 765 576 958 717 l 735 599 q 851 782 851 685 q 841 824 851 804 q 815 856 831 843 q 785 877 800 868 q 759 890 769 886 q 749 896 749 894 q 772 951 749 929 q 836 974 796 974 q 921 937 883 974 q 958 847 958 900 z "},"Đ":{"ha":929,"x_min":46,"x_max":872,"o":"m 171 417 l 46 417 l 50 471 l 171 471 l 171 782 q 146 807 171 803 l 61 821 l 57 868 l 358 872 q 731 756 589 874 q 872 451 872 638 q 740 124 872 249 q 357 0 607 0 l 57 0 l 61 47 l 146 61 q 171 86 171 65 l 171 417 m 278 471 l 450 471 l 454 417 l 278 417 l 278 69 l 390 51 q 656 152 557 49 q 756 415 756 256 q 645 710 756 601 q 331 818 535 818 l 278 818 l 278 471 z "},"đ":{"ha":731,"x_min":47,"x_max":728,"o":"m 718 38 l 714 4 l 507 -21 l 507 72 l 503 72 q 307 -19 419 -19 q 122 69 196 -19 q 47 292 47 157 q 140 537 47 438 q 379 636 233 636 q 504 611 436 636 l 507 611 l 507 735 l 347 735 l 353 789 l 507 789 l 507 854 q 494 879 507 875 l 386 904 l 392 938 l 606 968 l 606 789 l 725 789 l 728 735 l 606 735 l 606 86 q 619 60 606 64 l 718 38 m 507 128 l 507 500 q 347 581 426 581 q 209 510 263 581 q 156 328 156 440 q 210 136 156 208 q 354 64 264 64 q 507 128 436 64 z "},"Ē":{"ha":811,"x_min":58,"x_max":751,"o":"m 751 246 l 725 0 l 58 0 l 63 47 l 135 56 q 171 75 171 60 l 171 794 q 164 806 171 803 q 135 813 157 810 l 63 821 l 58 868 l 725 868 l 725 617 l 665 617 l 635 757 q 608 797 626 786 q 534 813 589 808 q 338 817 479 817 l 285 817 l 285 468 l 338 468 q 449 472 426 468 q 478 494 472 476 l 508 588 l 557 588 l 528 299 l 482 299 l 471 388 q 463 406 469 400 q 426 415 456 411 q 335 418 397 418 l 285 418 l 285 51 l 322 51 q 536 56 474 51 q 619 72 599 61 q 649 111 639 82 l 683 246 l 751 246 m 594 996 l 251 996 l 256 1053 l 590 1053 l 594 996 z "},"ē":{"ha":635,"x_min":47,"x_max":579,"o":"m 576 136 q 474 22 539 63 q 326 -19 408 -19 q 126 69 206 -19 q 47 292 47 157 q 140 541 47 442 q 365 640 233 640 q 521 585 463 640 q 579 439 579 529 q 572 365 579 397 l 154 371 q 153 338 153 365 q 215 144 153 219 q 371 68 276 68 q 549 153 478 68 l 576 136 m 468 414 q 438 543 474 494 q 340 592 403 592 q 228 543 281 592 q 160 413 176 494 q 183 413 168 413 q 240 413 199 413 q 317 413 281 413 q 390 414 353 414 q 448 414 426 414 q 468 414 469 414 m 508 749 l 165 749 l 169 806 l 504 806 l 508 749 z "},"Ĕ":{"ha":811,"x_min":58,"x_max":751,"o":"m 751 246 l 725 0 l 58 0 l 63 47 l 135 56 q 171 75 171 60 l 171 794 q 164 806 171 803 q 135 813 157 810 l 63 821 l 58 868 l 725 868 l 725 617 l 665 617 l 635 757 q 608 797 626 786 q 534 813 589 808 q 338 817 479 817 l 285 817 l 285 468 l 338 468 q 449 472 426 468 q 478 494 472 476 l 508 588 l 557 588 l 528 299 l 482 299 l 471 388 q 463 406 469 400 q 426 415 456 411 q 335 418 397 418 l 285 418 l 285 51 l 322 51 q 536 56 474 51 q 619 72 599 61 q 649 111 639 82 l 683 246 l 751 246 m 613 1208 q 595 1134 603 1163 q 572 1066 588 1106 q 538 1004 556 1026 q 490 965 519 982 q 422 949 460 949 q 355 965 385 949 q 307 1004 325 982 q 273 1066 289 1026 q 249 1134 257 1106 q 232 1208 242 1163 l 264 1208 q 336 1067 300 1117 q 422 1017 372 1017 q 508 1067 472 1017 q 581 1208 544 1117 l 613 1208 z "},"ĕ":{"ha":635,"x_min":47,"x_max":579,"o":"m 576 136 q 474 22 539 63 q 326 -19 408 -19 q 126 69 206 -19 q 47 292 47 157 q 140 541 47 442 q 365 640 233 640 q 521 585 463 640 q 579 439 579 529 q 572 365 579 397 l 154 371 q 153 338 153 365 q 215 144 153 219 q 371 68 276 68 q 549 153 478 68 l 576 136 m 468 414 q 438 543 474 494 q 340 592 403 592 q 228 543 281 592 q 160 413 176 494 q 183 413 168 413 q 240 413 199 413 q 317 413 281 413 q 390 414 353 414 q 448 414 426 414 q 468 414 469 414 m 538 961 q 520 887 528 915 q 497 819 513 858 q 463 757 481 779 q 415 718 444 735 q 347 701 385 701 q 280 718 310 701 q 232 757 250 735 q 198 819 214 779 q 174 887 182 858 q 157 961 167 915 l 189 961 q 261 819 225 869 q 347 769 297 769 q 433 819 397 769 q 506 961 469 869 l 538 961 z "},"Ė":{"ha":811,"x_min":58,"x_max":751,"o":"m 751 246 l 725 0 l 58 0 l 63 47 l 135 56 q 171 75 171 60 l 171 794 q 164 806 171 803 q 135 813 157 810 l 63 821 l 58 868 l 725 868 l 725 617 l 665 617 l 635 757 q 608 797 626 786 q 534 813 589 808 q 338 817 479 817 l 285 817 l 285 468 l 338 468 q 449 472 426 468 q 478 494 472 476 l 508 588 l 557 588 l 528 299 l 482 299 l 471 388 q 463 406 469 400 q 426 415 456 411 q 335 418 397 418 l 285 418 l 285 51 l 322 51 q 536 56 474 51 q 619 72 599 61 q 649 111 639 82 l 683 246 l 751 246 m 497 1085 q 476 1025 497 1050 q 419 1000 454 1000 q 362 1025 383 1000 q 340 1085 340 1050 q 362 1144 340 1119 q 419 1168 383 1168 q 476 1143 454 1168 q 497 1085 497 1118 z "},"ė":{"ha":635,"x_min":47,"x_max":579,"o":"m 576 136 q 474 22 539 63 q 326 -19 408 -19 q 126 69 206 -19 q 47 292 47 157 q 140 541 47 442 q 365 640 233 640 q 521 585 463 640 q 579 439 579 529 q 572 365 579 397 l 154 371 q 153 338 153 365 q 215 144 153 219 q 371 68 276 68 q 549 153 478 68 l 576 136 m 468 414 q 438 543 474 494 q 340 592 403 592 q 228 543 281 592 q 160 413 176 494 q 183 413 168 413 q 240 413 199 413 q 317 413 281 413 q 390 414 353 414 q 448 414 426 414 q 468 414 469 414 m 421 838 q 399 778 421 803 q 343 753 378 753 q 285 778 307 753 q 264 838 264 803 q 285 897 264 872 q 343 921 307 921 q 399 896 378 921 q 421 838 421 871 z "},"Ę":{"ha":811,"x_min":58,"x_max":751,"o":"m 607 -294 q 521 -262 554 -294 q 488 -174 488 -231 q 603 0 488 -81 l 58 0 l 63 47 l 135 56 q 171 75 171 60 l 171 794 q 164 806 171 803 q 135 813 157 810 l 63 821 l 58 868 l 725 868 l 725 617 l 665 617 l 635 757 q 608 797 626 786 q 535 813 589 808 q 339 817 481 817 l 285 817 l 285 468 l 338 468 q 449 472 426 468 q 478 494 472 476 l 508 588 l 557 588 l 528 299 l 482 299 l 471 388 q 463 406 469 400 q 426 415 456 411 q 335 418 397 418 l 285 418 l 285 51 l 322 51 q 537 56 474 51 q 620 72 600 61 q 650 111 640 82 l 683 246 l 751 246 l 725 0 l 654 0 q 574 -147 574 -72 q 591 -202 574 -181 q 640 -224 608 -224 q 710 -194 685 -224 l 725 -211 q 685 -269 717 -244 q 607 -294 653 -294 z "},"ę":{"ha":635,"x_min":47,"x_max":579,"o":"m 394 -294 q 308 -262 342 -294 q 274 -174 274 -231 q 301 -88 274 -131 q 372 -15 329 -46 q 326 -19 353 -19 q 126 69 206 -19 q 47 292 47 157 q 141 541 47 442 q 367 640 235 640 q 521 585 463 640 q 579 439 579 529 q 572 365 579 397 l 154 371 q 153 338 153 365 q 215 144 153 219 q 371 68 276 68 q 549 153 479 68 l 576 136 q 461 8 538 61 q 388 -65 415 -22 q 360 -147 360 -108 q 378 -202 360 -181 q 426 -224 396 -224 q 497 -194 471 -224 l 513 -211 q 472 -269 504 -244 q 394 -294 440 -294 m 160 413 l 468 414 q 438 543 474 494 q 340 592 403 592 q 228 543 281 592 q 160 413 176 494 z "},"Ě":{"ha":811,"x_min":58,"x_max":751,"o":"m 751 246 l 725 0 l 58 0 l 63 47 l 135 56 q 171 75 171 60 l 171 794 q 164 806 171 803 q 135 813 157 810 l 63 821 l 58 868 l 725 868 l 725 617 l 665 617 l 635 757 q 608 797 626 786 q 534 813 589 808 q 338 817 479 817 l 285 817 l 285 468 l 338 468 q 449 472 426 468 q 478 494 472 476 l 508 588 l 557 588 l 528 299 l 482 299 l 471 388 q 463 406 469 400 q 426 415 456 411 q 335 418 397 418 l 285 418 l 285 51 l 322 51 q 536 56 474 51 q 619 72 599 61 q 649 111 639 82 l 683 246 l 751 246 m 613 1222 l 458 953 l 406 953 l 251 1222 l 289 1222 l 431 1051 l 433 1051 l 575 1222 l 613 1222 z "},"ě":{"ha":635,"x_min":47,"x_max":579,"o":"m 576 136 q 474 22 539 63 q 326 -19 408 -19 q 126 69 206 -19 q 47 292 47 157 q 140 541 47 442 q 365 640 233 640 q 521 585 463 640 q 579 439 579 529 q 572 365 579 397 l 154 371 q 153 338 153 365 q 215 144 153 219 q 371 68 276 68 q 549 153 478 68 l 576 136 m 468 414 q 438 543 474 494 q 340 592 403 592 q 228 543 281 592 q 160 413 176 494 q 183 413 168 413 q 240 413 199 413 q 317 413 281 413 q 390 414 353 414 q 448 414 426 414 q 468 414 469 414 m 521 975 l 367 706 l 314 706 l 160 975 l 197 975 l 339 804 l 342 804 l 483 975 l 521 975 z "},"Ĝ":{"ha":983,"x_min":64,"x_max":947,"o":"m 947 382 l 943 336 l 871 328 q 835 307 835 322 l 835 90 l 915 83 l 918 47 q 539 -21 719 -21 q 198 99 332 -21 q 64 421 64 218 q 204 760 64 632 q 551 888 344 888 q 743 861 661 888 l 849 883 l 849 601 l 790 601 l 754 782 q 540 833 667 833 q 290 722 390 833 q 190 439 190 610 q 285 144 190 256 q 544 32 379 32 q 722 67 639 32 l 722 310 q 686 328 722 325 l 599 336 l 594 382 l 947 382 m 707 953 l 669 953 l 528 1124 l 525 1124 l 383 953 l 346 953 l 500 1222 l 553 1222 l 707 953 z "},"ĝ":{"ha":638,"x_min":14,"x_max":642,"o":"m 642 524 l 493 550 l 493 543 q 536 419 536 490 q 465 263 536 328 q 292 199 393 199 q 215 207 242 199 q 150 135 150 175 q 174 89 150 107 q 238 71 199 71 q 324 72 263 71 q 399 74 385 74 q 547 23 490 74 q 603 -104 603 -28 q 506 -282 603 -212 q 260 -351 408 -351 q 81 -306 149 -351 q 14 -186 14 -260 q 144 -22 14 -78 l 144 -17 q 81 19 107 -10 q 56 83 56 49 q 88 158 56 122 q 168 217 119 194 q 169 219 168 218 l 169 221 q 83 295 115 246 q 51 413 51 344 q 122 574 51 508 q 297 640 192 640 q 453 606 379 640 l 642 604 l 642 524 m 510 -149 q 360 -25 510 -31 q 317 -25 325 -25 q 274 -26 308 -25 q 199 -28 239 -28 q 138 -74 168 -40 q 108 -154 108 -108 q 165 -261 108 -222 q 311 -300 222 -300 q 453 -256 397 -300 q 510 -149 510 -212 m 433 417 q 383 561 433 515 q 296 596 346 596 q 194 549 233 596 q 156 431 156 503 q 215 272 156 328 q 293 243 251 243 q 383 274 351 243 q 433 417 433 317 m 479 706 l 442 706 l 300 876 l 297 876 l 156 706 l 118 706 l 272 975 l 325 975 l 479 706 z "},"Ğ":{"ha":983,"x_min":64,"x_max":947,"o":"m 947 382 l 943 336 l 871 328 q 835 307 835 322 l 835 90 l 915 83 l 918 47 q 539 -21 719 -21 q 198 99 332 -21 q 64 421 64 218 q 204 760 64 632 q 551 888 344 888 q 743 861 661 888 l 849 883 l 849 601 l 790 601 l 754 782 q 540 833 667 833 q 290 722 390 833 q 190 439 190 610 q 285 144 190 256 q 544 32 379 32 q 722 67 639 32 l 722 310 q 686 328 722 325 l 599 336 l 594 382 l 947 382 m 731 1208 q 713 1134 721 1163 q 690 1066 706 1106 q 656 1004 674 1026 q 608 965 638 982 q 540 949 578 949 q 473 965 503 949 q 425 1004 443 982 q 391 1066 407 1026 q 367 1134 375 1106 q 350 1208 360 1163 l 382 1208 q 454 1067 418 1117 q 540 1017 490 1017 q 626 1067 590 1017 q 699 1208 663 1117 l 731 1208 z "},"ğ":{"ha":638,"x_min":14,"x_max":642,"o":"m 642 524 l 493 550 l 493 543 q 536 419 536 490 q 465 263 536 328 q 292 199 393 199 q 215 207 242 199 q 150 135 150 175 q 174 89 150 107 q 238 71 199 71 q 324 72 263 71 q 399 74 385 74 q 547 23 490 74 q 603 -104 603 -28 q 506 -282 603 -212 q 260 -351 408 -351 q 81 -306 149 -351 q 14 -186 14 -260 q 144 -22 14 -78 l 144 -17 q 81 19 107 -10 q 56 83 56 49 q 88 158 56 122 q 168 217 119 194 q 169 219 168 218 l 169 221 q 83 295 115 246 q 51 413 51 344 q 122 574 51 508 q 297 640 192 640 q 453 606 379 640 l 642 604 l 642 524 m 510 -149 q 360 -25 510 -31 q 317 -25 325 -25 q 274 -26 308 -25 q 199 -28 239 -28 q 138 -74 168 -40 q 108 -154 108 -108 q 165 -261 108 -222 q 311 -300 222 -300 q 453 -256 397 -300 q 510 -149 510 -212 m 433 417 q 383 561 433 515 q 296 596 346 596 q 194 549 233 596 q 156 431 156 503 q 215 272 156 328 q 293 243 251 243 q 383 274 351 243 q 433 417 433 317 m 488 961 q 470 887 478 915 q 447 819 463 858 q 413 757 431 779 q 365 718 394 735 q 297 701 335 701 q 230 718 260 701 q 182 757 200 735 q 148 819 164 779 q 124 887 132 858 q 107 961 117 915 l 139 961 q 211 819 175 869 q 297 769 247 769 q 383 819 347 769 q 456 961 419 869 l 488 961 z "},"Ġ":{"ha":983,"x_min":64,"x_max":947,"o":"m 947 382 l 943 336 l 871 328 q 835 307 835 322 l 835 90 l 915 83 l 918 47 q 539 -21 719 -21 q 198 99 332 -21 q 64 421 64 218 q 204 760 64 632 q 551 888 344 888 q 743 861 661 888 l 849 883 l 849 601 l 790 601 l 754 782 q 540 833 667 833 q 290 722 390 833 q 190 439 190 610 q 285 144 190 256 q 544 32 379 32 q 722 67 639 32 l 722 310 q 686 328 722 325 l 599 336 l 594 382 l 947 382 m 618 1085 q 597 1025 618 1050 q 540 1000 575 1000 q 483 1025 504 1000 q 461 1085 461 1050 q 483 1144 461 1119 q 540 1168 504 1168 q 597 1143 575 1168 q 618 1085 618 1118 z "},"ġ":{"ha":638,"x_min":14,"x_max":642,"o":"m 642 524 l 493 550 l 493 543 q 536 419 536 490 q 465 263 536 328 q 292 199 393 199 q 215 207 242 199 q 150 135 150 175 q 174 89 150 107 q 238 71 199 71 q 324 72 263 71 q 399 74 385 74 q 547 23 490 74 q 603 -104 603 -28 q 506 -282 603 -212 q 260 -351 408 -351 q 81 -306 149 -351 q 14 -186 14 -260 q 144 -22 14 -78 l 144 -17 q 81 19 107 -10 q 56 83 56 49 q 88 158 56 122 q 168 217 119 194 q 169 219 168 218 l 169 221 q 83 295 115 246 q 51 413 51 344 q 122 574 51 508 q 297 640 192 640 q 453 606 379 640 l 642 604 l 642 524 m 510 -149 q 360 -25 510 -31 q 317 -25 325 -25 q 274 -26 308 -25 q 199 -28 239 -28 q 138 -74 168 -40 q 108 -154 108 -108 q 165 -261 108 -222 q 311 -300 222 -300 q 453 -256 397 -300 q 510 -149 510 -212 m 433 417 q 383 561 433 515 q 296 596 346 596 q 194 549 233 596 q 156 431 156 503 q 215 272 156 328 q 293 243 251 243 q 383 274 351 243 q 433 417 433 317 m 382 838 q 360 778 382 803 q 304 753 339 753 q 247 778 268 753 q 225 838 225 803 q 247 897 225 872 q 304 921 268 921 q 360 896 339 921 q 382 838 382 871 z "},"Ģ":{"ha":983,"x_min":64,"x_max":947,"o":"m 947 382 l 943 336 l 871 328 q 835 307 835 322 l 835 90 l 915 83 l 918 47 q 539 -21 719 -21 q 198 99 332 -21 q 64 421 64 218 q 204 760 64 632 q 551 888 344 888 q 743 861 661 888 l 849 883 l 849 601 l 790 601 l 754 782 q 540 833 667 833 q 290 722 390 833 q 190 439 190 610 q 285 144 190 256 q 544 32 379 32 q 722 67 639 32 l 722 310 q 686 328 722 325 l 599 336 l 594 382 l 947 382 m 650 -178 q 605 -290 650 -242 q 496 -364 560 -337 l 472 -342 q 565 -224 565 -303 q 557 -187 565 -203 q 536 -162 549 -171 q 511 -147 524 -153 q 490 -139 499 -142 q 482 -135 482 -136 q 501 -89 482 -107 q 554 -71 519 -71 q 622 -103 593 -71 q 650 -178 650 -135 z "},"ģ":{"ha":638,"x_min":14,"x_max":642,"o":"m 642 524 l 493 550 l 493 543 q 536 419 536 490 q 465 263 536 328 q 292 199 393 199 q 215 207 242 199 q 150 135 150 175 q 174 89 150 107 q 238 71 199 71 q 324 72 263 71 q 399 74 385 74 q 547 23 490 74 q 603 -104 603 -28 q 506 -282 603 -212 q 260 -351 408 -351 q 81 -306 149 -351 q 14 -186 14 -260 q 144 -22 14 -78 l 144 -17 q 81 19 107 -10 q 56 83 56 49 q 88 158 56 122 q 168 217 119 194 q 169 219 168 218 l 169 221 q 83 295 115 246 q 51 413 51 344 q 122 574 51 508 q 297 640 192 640 q 453 606 379 640 l 642 604 l 642 524 m 510 -149 q 360 -25 510 -31 q 317 -25 325 -25 q 274 -26 308 -25 q 199 -28 239 -28 q 138 -74 168 -40 q 108 -154 108 -108 q 165 -261 108 -222 q 311 -300 222 -300 q 453 -256 397 -300 q 510 -149 510 -212 m 433 417 q 383 561 433 515 q 296 596 346 596 q 194 549 233 596 q 156 431 156 503 q 215 272 156 328 q 293 243 251 243 q 383 274 351 243 q 433 417 433 317 m 215 811 q 260 923 215 875 q 369 997 306 971 l 393 975 q 300 857 300 936 q 308 820 300 836 q 329 795 317 804 q 354 781 342 786 q 375 772 367 775 q 383 768 383 769 q 365 722 383 740 q 311 704 346 704 q 244 736 272 704 q 215 811 215 768 z "},"Ĥ":{"ha":1018,"x_min":58,"x_max":960,"o":"m 960 0 l 621 0 l 625 47 l 697 56 q 733 75 733 60 l 733 417 l 285 417 l 285 74 q 321 56 285 60 l 393 47 l 397 0 l 58 0 l 63 47 l 135 56 q 171 75 171 60 l 171 794 q 164 806 171 803 q 135 813 157 810 l 63 821 l 58 868 l 397 868 l 393 821 l 321 813 q 285 793 285 808 l 285 474 l 733 474 l 733 794 q 697 813 733 810 l 625 821 l 621 868 l 960 868 l 956 821 l 883 813 q 847 793 847 808 l 847 74 q 854 62 847 65 q 883 56 861 58 l 956 47 l 960 0 m 688 953 l 650 953 l 508 1124 l 506 1124 l 364 953 l 326 953 l 481 1222 l 533 1222 l 688 953 z "},"ĥ":{"ha":733,"x_min":6,"x_max":715,"o":"m 715 0 l 421 0 l 425 47 l 482 53 q 517 74 517 54 l 517 376 q 483 515 517 475 q 383 556 450 556 q 218 486 303 556 l 218 72 q 256 53 218 54 l 319 47 l 324 0 l 24 0 l 28 47 l 83 53 q 118 74 118 54 l 118 824 q 103 853 118 849 l 6 883 l 10 918 l 218 968 l 218 540 l 225 540 q 447 640 343 640 q 564 596 519 640 q 615 442 615 544 l 615 74 q 657 53 615 56 l 711 47 l 715 0 m 490 1025 l 453 1025 l 311 1196 l 308 1196 l 167 1025 l 129 1025 l 283 1294 l 336 1294 l 490 1025 z "},"Ħ":{"ha":1018,"x_min":17,"x_max":1001,"o":"m 17 624 l 21 678 l 171 678 l 171 794 q 164 806 171 803 q 135 813 157 810 l 63 821 l 58 868 l 397 868 l 393 821 l 321 813 q 285 793 285 808 l 285 678 l 733 678 l 733 794 q 697 813 733 810 l 625 821 l 621 868 l 960 868 l 956 821 l 883 813 q 847 793 847 808 l 847 678 l 997 678 l 1001 624 l 847 624 l 847 74 q 854 62 847 65 q 883 56 861 58 l 956 47 l 960 0 l 621 0 l 625 47 l 697 56 q 733 75 733 60 l 733 417 l 285 417 l 285 74 q 321 56 285 60 l 393 47 l 397 0 l 58 0 l 63 47 l 135 56 q 171 75 171 60 l 171 624 l 17 624 m 285 474 l 733 474 l 733 624 l 285 624 l 285 474 z "},"ħ":{"ha":733,"x_min":-4,"x_max":715,"o":"m 715 0 l 422 0 l 426 47 l 482 53 q 517 74 517 54 l 517 376 q 483 515 517 475 q 383 556 450 556 q 218 486 303 556 l 218 72 q 256 53 218 54 l 319 47 l 324 0 l 24 0 l 28 47 l 83 53 q 118 74 118 54 l 118 735 l -4 735 l 0 789 l 118 789 l 118 824 q 103 853 118 849 l 6 883 l 10 918 l 218 968 l 218 789 l 372 789 l 376 735 l 218 735 l 218 540 l 225 540 q 447 640 346 640 q 564 596 519 640 q 615 442 615 544 l 615 74 q 657 53 615 57 l 711 47 l 715 0 z "},"Ī":{"ha":488,"x_min":61,"x_max":428,"o":"m 428 0 l 61 0 l 65 47 l 151 56 q 188 75 188 60 l 188 794 q 181 806 188 803 q 151 813 174 810 l 65 821 l 61 868 l 428 868 l 424 821 l 338 813 q 301 793 301 808 l 301 74 q 338 56 301 60 l 424 47 l 428 0 m 418 996 l 75 996 l 79 1053 l 414 1053 l 418 996 z "},"ī":{"ha":369,"x_min":15,"x_max":358,"o":"m 336 0 l 39 0 l 43 47 l 101 53 q 136 74 136 54 l 136 464 q 128 527 136 513 q 89 549 119 542 l 33 557 l 36 594 l 235 640 l 235 72 q 274 53 235 54 l 332 47 l 336 0 m 358 749 l 15 749 l 19 806 l 354 806 l 358 749 z "},"Ĭ":{"ha":488,"x_min":54,"x_max":435,"o":"m 435 1208 q 417 1134 425 1163 q 394 1066 410 1106 q 360 1004 378 1026 q 312 965 342 982 q 244 949 282 949 q 177 965 207 949 q 129 1004 147 982 q 95 1066 111 1026 q 72 1134 79 1106 q 54 1208 64 1163 l 86 1208 q 158 1067 122 1117 q 244 1017 194 1017 q 331 1067 294 1017 q 403 1208 367 1117 l 435 1208 m 428 0 l 61 0 l 65 47 l 151 56 q 188 75 188 60 l 188 794 q 181 806 188 803 q 151 813 174 810 l 65 821 l 61 868 l 428 868 l 424 821 l 338 813 q 301 793 301 808 l 301 74 q 338 56 301 60 l 424 47 l 428 0 z "},"ĭ":{"ha":369,"x_min":-6,"x_max":375,"o":"m 375 961 q 358 887 365 915 q 334 819 350 858 q 300 757 318 779 q 252 718 282 735 q 185 701 222 701 q 117 718 147 701 q 69 757 88 735 q 35 819 51 779 q 12 887 19 858 q -6 961 4 915 l 26 961 q 99 819 63 869 q 185 769 135 769 q 271 819 235 769 q 343 961 307 869 l 375 961 m 336 0 l 39 0 l 43 47 l 101 53 q 136 74 136 54 l 136 464 q 128 527 136 513 q 89 549 119 542 l 33 557 l 36 594 l 235 640 l 235 72 q 274 53 235 54 l 332 47 l 336 0 z "},"Į":{"ha":488,"x_min":61,"x_max":428,"o":"m 311 -294 q 224 -264 258 -294 q 190 -176 190 -233 q 230 -74 190 -124 q 321 0 269 -25 l 61 0 l 65 47 l 151 56 q 188 75 188 60 l 188 794 q 181 806 188 803 q 151 813 174 810 l 65 821 l 61 868 l 428 868 l 424 821 l 338 813 q 301 793 301 808 l 301 74 q 338 56 301 60 l 424 47 l 428 0 q 318 -51 361 -10 q 275 -149 275 -93 q 293 -202 275 -181 q 343 -224 311 -224 q 414 -194 388 -224 l 428 -211 q 389 -269 421 -244 q 311 -294 357 -294 z "},"į":{"ha":369,"x_min":33,"x_max":336,"o":"m 218 -294 q 127 -265 163 -294 q 92 -181 92 -236 q 133 -76 92 -124 q 235 0 175 -28 l 39 0 l 43 47 l 101 53 q 136 74 136 54 l 136 464 q 128 527 136 513 q 89 549 119 542 l 33 557 l 36 594 l 235 640 l 235 72 q 274 53 235 54 l 332 47 l 336 0 q 222 -53 267 -14 q 178 -154 178 -93 q 197 -205 178 -186 q 250 -224 217 -224 q 321 -194 294 -224 l 336 -211 q 296 -269 328 -244 q 218 -294 264 -294 m 223 788 q 214 777 223 788 q 171 765 204 765 q 119 788 138 765 q 100 843 100 811 q 119 898 100 875 q 171 921 138 921 q 223 899 204 921 q 242 843 242 876 q 223 788 242 811 z "},"İ":{"ha":488,"x_min":61,"x_max":428,"o":"m 428 0 l 61 0 l 65 47 l 151 56 q 188 75 188 60 l 188 794 q 181 806 188 803 q 151 813 174 810 l 65 821 l 61 868 l 428 868 l 424 821 l 338 813 q 301 793 301 808 l 301 74 q 338 56 301 60 l 424 47 l 428 0 m 322 1085 q 301 1025 322 1050 q 244 1000 279 1000 q 187 1025 208 1000 q 165 1085 165 1050 q 187 1144 165 1119 q 244 1168 208 1168 q 301 1143 279 1168 q 322 1085 322 1118 z "},"ı":{"ha":369,"x_min":33,"x_max":336,"o":"m 336 0 l 39 0 l 43 47 l 101 53 q 136 74 136 54 l 136 464 q 128 527 136 513 q 89 549 119 542 l 33 557 l 36 594 l 235 640 l 235 72 q 274 53 235 54 l 332 47 l 336 0 z "},"Ĵ":{"ha":540,"x_min":1,"x_max":508,"o":"m 508 868 l 504 821 l 424 813 q 388 793 388 808 l 388 342 q 322 74 388 168 q 135 -21 256 -21 q 38 3 75 -21 q 1 65 1 28 q 19 109 1 93 q 65 125 36 125 q 129 99 101 125 q 167 26 154 74 l 168 26 q 249 102 225 42 q 272 321 272 163 l 272 794 q 236 813 272 810 l 140 821 l 136 868 l 508 868 m 501 953 l 464 953 l 322 1124 l 319 1124 l 178 953 l 140 953 l 294 1222 l 347 1222 l 501 953 z "},"ĵ":{"ha":351,"x_min":-89,"x_max":349,"o":"m 231 -46 q 158 -275 224 -187 q 11 -362 93 -362 q -60 -341 -32 -362 q -89 -281 -89 -319 q -69 -234 -89 -253 q -22 -215 -49 -215 q 65 -297 43 -215 q 132 -111 132 -278 l 132 464 q 124 527 132 513 q 85 549 115 542 l 29 557 l 32 594 l 231 640 l 231 -46 m 349 706 l 311 706 l 169 876 l 167 876 l 25 706 l -12 706 l 142 975 l 194 975 l 349 706 z "},"Ķ":{"ha":879,"x_min":58,"x_max":872,"o":"m 872 0 l 565 0 l 569 47 l 624 56 q 624 86 642 60 l 379 431 l 285 338 l 285 74 q 321 56 285 60 l 393 47 l 397 0 l 58 0 l 63 47 l 135 56 q 171 75 171 60 l 171 794 q 164 806 171 803 q 135 813 157 810 l 63 821 l 58 868 l 397 868 l 393 821 l 321 813 q 285 793 285 808 l 285 413 l 583 713 q 613 813 681 806 l 542 821 l 538 868 l 869 868 l 865 821 l 807 814 q 703 746 764 807 l 456 500 l 754 100 q 784 65 772 74 q 818 54 796 57 l 868 47 l 872 0 m 564 -178 q 519 -290 564 -242 q 410 -364 474 -337 l 386 -342 q 479 -224 479 -303 q 471 -187 479 -203 q 450 -162 463 -171 q 425 -147 438 -153 q 404 -139 413 -142 q 396 -135 396 -136 q 415 -89 396 -107 q 468 -71 433 -71 q 535 -103 507 -71 q 564 -178 564 -135 z "},"ķ":{"ha":674,"x_min":6,"x_max":663,"o":"m 663 0 l 483 0 l 411 118 l 281 306 l 218 249 l 218 72 q 256 53 218 56 l 310 47 l 314 0 l 24 0 l 28 47 l 83 53 q 118 74 118 57 l 118 824 q 103 853 118 849 l 6 883 l 10 918 l 218 968 l 218 314 l 365 451 q 443 543 443 522 q 404 569 443 563 l 360 574 l 356 619 l 644 619 l 640 574 l 606 568 q 550 544 578 564 q 464 472 522 525 l 351 369 l 550 99 q 604 53 583 54 l 658 47 l 663 0 m 456 -178 q 410 -290 456 -242 q 301 -364 365 -337 l 278 -342 q 371 -224 371 -303 q 363 -187 371 -203 q 342 -162 354 -171 q 317 -147 329 -153 q 296 -139 304 -142 q 288 -135 288 -136 q 306 -89 288 -107 q 360 -71 325 -71 q 427 -103 399 -71 q 456 -178 456 -135 z "},"Ĺ":{"ha":785,"x_min":58,"x_max":733,"o":"m 733 276 l 703 0 l 58 0 l 63 47 l 135 56 q 171 75 171 60 l 171 794 q 164 806 171 803 q 135 813 157 810 l 63 821 l 58 868 l 410 868 l 406 821 l 321 813 q 285 793 285 808 l 285 51 l 319 51 q 521 56 461 51 q 600 72 581 61 q 628 111 619 83 l 669 276 l 733 276 m 454 1208 l 225 953 l 193 953 l 324 1208 l 454 1208 z "},"ĺ":{"ha":372,"x_min":18,"x_max":374,"o":"m 335 0 l 38 0 l 42 47 l 100 53 q 135 74 135 54 l 135 824 q 119 853 135 849 l 18 883 l 22 918 l 233 968 l 233 72 q 272 53 233 54 l 331 47 l 335 0 m 374 1268 l 144 1013 l 113 1013 l 243 1268 l 374 1268 z "},"Ļ":{"ha":785,"x_min":58,"x_max":733,"o":"m 733 276 l 703 0 l 58 0 l 63 47 l 135 56 q 171 75 171 60 l 171 794 q 164 806 171 803 q 135 813 157 810 l 63 821 l 58 868 l 410 868 l 406 821 l 321 813 q 285 793 285 808 l 285 51 l 319 51 q 521 56 461 51 q 600 72 581 61 q 628 111 619 83 l 669 276 l 733 276 m 493 -178 q 448 -290 493 -242 q 339 -364 403 -337 l 315 -342 q 408 -224 408 -303 q 400 -187 408 -203 q 379 -162 392 -171 q 354 -147 367 -153 q 333 -139 342 -142 q 325 -135 325 -136 q 344 -89 325 -107 q 397 -71 363 -71 q 465 -103 436 -71 q 493 -178 493 -135 z "},"ļ":{"ha":372,"x_min":18,"x_max":335,"o":"m 276 -178 q 231 -290 276 -242 q 122 -364 186 -337 l 99 -342 q 192 -224 192 -303 q 183 -187 192 -203 q 163 -162 175 -171 q 138 -147 150 -153 q 117 -139 125 -142 q 108 -135 108 -136 q 127 -89 108 -107 q 181 -71 146 -71 q 248 -103 219 -71 q 276 -178 276 -135 m 335 0 l 38 0 l 42 47 l 100 53 q 135 74 135 54 l 135 824 q 119 853 135 849 l 18 883 l 22 918 l 233 968 l 233 72 q 272 53 233 54 l 331 47 l 335 0 z "},"Ľ":{"ha":942,"x_min":58,"x_max":932,"o":"m 733 276 l 703 0 l 58 0 l 63 47 l 135 56 q 171 75 171 60 l 171 794 q 164 806 171 803 q 135 813 157 810 l 63 821 l 58 868 l 410 868 l 406 821 l 321 813 q 285 793 285 808 l 285 51 l 319 51 q 521 56 461 51 q 600 72 581 61 q 628 111 619 83 l 669 276 l 733 276 m 932 758 q 739 488 932 628 l 708 510 q 825 693 825 596 q 815 735 825 715 q 789 767 804 754 q 758 788 774 779 q 733 801 743 797 q 722 807 722 806 q 746 863 722 840 q 810 885 769 885 q 894 848 857 885 q 932 758 932 811 z "},"ľ":{"ha":665,"x_min":18,"x_max":588,"o":"m 335 0 l 38 0 l 42 47 l 100 53 q 135 74 135 54 l 135 824 q 119 853 135 849 l 18 883 l 22 918 l 233 968 l 233 72 q 272 53 233 54 l 331 47 l 335 0 m 588 846 q 394 575 588 715 l 364 597 q 481 781 481 683 q 470 822 481 803 q 444 854 460 842 q 414 876 429 867 q 388 889 399 885 q 378 894 378 893 q 401 950 378 928 q 465 972 425 972 q 550 935 513 972 q 588 846 588 899 z "},"Ŀ":{"ha":972,"x_min":58,"x_max":990,"o":"m 733 276 l 703 0 l 58 0 l 63 47 l 135 56 q 171 75 171 60 l 171 794 q 164 806 171 803 q 135 813 157 810 l 63 821 l 58 868 l 410 868 l 406 821 l 321 813 q 285 793 285 808 l 285 51 l 319 51 q 521 56 461 51 q 600 72 581 61 q 628 111 619 83 l 669 276 l 733 276 m 966 480 q 978 468 966 480 q 990 421 990 456 q 966 361 990 386 q 906 336 942 336 q 843 361 868 336 q 818 421 818 386 q 843 480 818 456 q 906 504 868 504 q 966 480 942 504 z "},"ŀ":{"ha":597,"x_min":18,"x_max":574,"o":"m 335 0 l 38 0 l 42 47 l 100 53 q 135 74 135 54 l 135 824 q 119 853 135 849 l 18 883 l 22 918 l 233 968 l 233 72 q 272 53 233 54 l 331 47 l 335 0 m 549 492 q 561 480 549 492 q 574 433 574 468 q 549 374 574 399 q 489 349 525 349 q 426 374 451 349 q 401 433 401 399 q 426 492 401 468 q 489 517 451 517 q 549 492 525 517 z "},"Ł":{"ha":785,"x_min":51,"x_max":733,"o":"m 171 285 l 51 253 l 51 310 l 171 342 l 171 782 q 146 807 171 803 l 63 821 l 58 868 l 410 868 l 406 821 l 310 807 q 285 782 285 803 l 285 372 l 443 414 l 443 356 l 285 314 l 285 51 l 319 51 q 521 56 461 51 q 600 72 581 61 q 628 111 619 83 l 669 276 l 733 276 l 703 0 l 58 0 l 63 47 l 146 61 q 171 86 171 65 l 171 285 z "},"ł":{"ha":371,"x_min":18,"x_max":347,"o":"m 233 310 l 233 86 q 258 60 233 64 l 340 47 l 344 0 l 38 0 l 42 47 l 111 60 q 135 86 135 68 l 135 283 l 18 251 l 18 308 l 135 340 l 135 819 q 119 847 135 843 l 18 878 l 22 913 l 233 968 l 233 367 l 347 399 l 347 340 l 233 310 z "},"Ń":{"ha":1022,"x_min":51,"x_max":990,"o":"m 990 868 l 986 821 l 903 810 q 878 802 886 807 q 865 775 871 797 q 858 718 860 753 q 857 613 857 683 l 857 -11 l 790 -11 l 244 753 l 239 753 l 239 256 q 240 149 239 183 q 246 93 240 115 q 259 66 251 71 q 283 58 267 61 l 367 47 l 371 0 l 51 0 l 56 47 l 139 58 q 163 66 156 61 q 176 93 171 71 q 183 149 182 115 q 183 256 183 183 l 183 714 q 174 777 183 757 q 140 808 164 797 l 61 821 l 57 868 l 297 868 l 797 168 l 801 168 l 801 613 q 795 776 801 747 q 757 810 789 804 l 674 821 l 669 868 l 990 868 m 718 1208 l 489 953 l 457 953 l 588 1208 l 718 1208 z "},"ń":{"ha":753,"x_min":33,"x_max":733,"o":"m 733 0 l 438 0 l 442 47 l 499 53 q 533 74 533 54 l 533 376 q 500 515 533 475 q 400 556 467 556 q 235 486 319 556 l 235 72 q 272 53 235 54 l 336 47 l 340 0 l 40 0 l 44 47 l 100 53 q 135 74 135 54 l 135 467 q 127 528 135 514 q 92 549 119 542 l 33 557 l 35 594 l 235 640 l 235 540 l 242 540 q 464 640 360 640 q 581 596 536 640 q 632 442 632 544 l 632 74 q 674 53 632 56 l 729 47 l 733 0 m 583 961 l 354 706 l 322 706 l 453 961 l 583 961 z "},"Ņ":{"ha":1022,"x_min":51,"x_max":990,"o":"m 990 868 l 986 821 l 903 810 q 878 802 886 807 q 865 775 871 797 q 858 718 860 753 q 857 613 857 683 l 857 -11 l 790 -11 l 244 753 l 239 753 l 239 256 q 240 149 239 183 q 246 93 240 115 q 259 66 251 71 q 283 58 267 61 l 367 47 l 371 0 l 51 0 l 56 47 l 139 58 q 163 66 156 61 q 176 93 171 71 q 183 149 182 115 q 183 256 183 183 l 183 714 q 174 777 183 757 q 140 808 164 797 l 61 821 l 57 868 l 297 868 l 797 168 l 801 168 l 801 613 q 795 776 801 747 q 757 810 789 804 l 674 821 l 669 868 l 990 868 m 617 -178 q 572 -290 617 -242 q 463 -364 526 -337 l 439 -342 q 532 -224 532 -303 q 524 -187 532 -203 q 503 -162 515 -171 q 478 -147 490 -153 q 457 -139 465 -142 q 449 -135 449 -136 q 467 -89 449 -107 q 521 -71 486 -71 q 588 -103 560 -71 q 617 -178 617 -135 z "},"ņ":{"ha":753,"x_min":33,"x_max":733,"o":"m 733 0 l 438 0 l 442 47 l 499 53 q 533 74 533 54 l 533 376 q 500 515 533 475 q 400 556 467 556 q 235 486 319 556 l 235 72 q 272 53 235 54 l 336 47 l 340 0 l 40 0 l 44 47 l 100 53 q 135 74 135 54 l 135 467 q 127 528 135 514 q 92 549 119 542 l 33 557 l 35 594 l 235 640 l 235 540 l 242 540 q 464 640 360 640 q 581 596 536 640 q 632 442 632 544 l 632 74 q 674 53 632 56 l 729 47 l 733 0 m 472 -178 q 427 -290 472 -242 q 318 -364 382 -337 l 294 -342 q 388 -224 388 -303 q 379 -187 388 -203 q 358 -162 371 -171 q 333 -147 346 -153 q 313 -139 321 -142 q 304 -135 304 -136 q 323 -89 304 -107 q 376 -71 342 -71 q 444 -103 415 -71 q 472 -178 472 -135 z "},"Ň":{"ha":1022,"x_min":51,"x_max":990,"o":"m 990 868 l 986 821 l 903 810 q 878 802 886 807 q 865 775 871 797 q 858 718 860 753 q 857 613 857 683 l 857 -11 l 790 -11 l 244 753 l 239 753 l 239 256 q 240 149 239 183 q 246 93 240 115 q 259 66 251 71 q 283 58 267 61 l 367 47 l 371 0 l 51 0 l 56 47 l 139 58 q 163 66 156 61 q 176 93 171 71 q 183 149 182 115 q 183 256 183 183 l 183 714 q 174 777 183 757 q 140 808 164 797 l 61 821 l 57 868 l 297 868 l 797 168 l 801 168 l 801 613 q 795 776 801 747 q 757 810 789 804 l 674 821 l 669 868 l 990 868 m 700 1222 l 546 953 l 493 953 l 339 1222 l 376 1222 l 518 1051 l 521 1051 l 663 1222 l 700 1222 z "},"ň":{"ha":753,"x_min":33,"x_max":733,"o":"m 733 0 l 438 0 l 442 47 l 499 53 q 533 74 533 54 l 533 376 q 500 515 533 475 q 400 556 467 556 q 235 486 319 556 l 235 72 q 272 53 235 54 l 336 47 l 340 0 l 40 0 l 44 47 l 100 53 q 135 74 135 54 l 135 467 q 127 528 135 514 q 92 549 119 542 l 33 557 l 35 594 l 235 640 l 235 540 l 242 540 q 464 640 360 640 q 581 596 536 640 q 632 442 632 544 l 632 74 q 674 53 632 56 l 729 47 l 733 0 m 544 975 l 390 706 l 338 706 l 183 975 l 221 975 l 363 804 l 365 804 l 507 975 l 544 975 z "},"Ō":{"ha":1026,"x_min":64,"x_max":963,"o":"m 963 438 q 833 114 963 249 q 511 -21 703 -21 q 191 103 318 -21 q 64 426 64 228 q 194 751 64 615 q 515 886 324 886 q 835 761 708 886 q 963 438 963 636 m 836 422 q 740 723 836 610 q 510 836 644 836 q 283 729 375 836 q 190 442 190 622 q 285 141 190 254 q 515 28 381 28 q 743 135 650 28 q 836 422 836 242 m 696 996 l 353 996 l 357 1053 l 692 1053 l 696 996 z "},"ō":{"ha":719,"x_min":49,"x_max":672,"o":"m 672 324 q 580 78 672 178 q 351 -21 488 -21 q 133 72 217 -21 q 49 307 49 165 q 142 544 49 449 q 371 640 236 640 q 588 551 504 640 q 672 324 672 461 m 564 282 q 489 531 564 451 q 357 588 432 588 q 215 519 271 588 q 158 338 158 450 q 235 89 158 167 q 365 33 288 33 q 507 102 450 33 q 564 282 564 171 m 538 749 l 194 749 l 199 806 l 533 806 l 538 749 z "},"Ŏ":{"ha":1026,"x_min":64,"x_max":963,"o":"m 963 438 q 833 114 963 249 q 511 -21 703 -21 q 191 103 318 -21 q 64 426 64 228 q 194 751 64 615 q 515 886 324 886 q 835 761 708 886 q 963 438 963 636 m 836 422 q 740 723 836 610 q 510 836 644 836 q 283 729 375 836 q 190 442 190 622 q 285 141 190 254 q 515 28 381 28 q 743 135 650 28 q 836 422 836 242 m 714 1208 q 697 1134 704 1163 q 673 1066 689 1106 q 639 1004 657 1026 q 591 965 621 982 q 524 949 561 949 q 456 965 486 949 q 408 1004 426 982 q 374 1066 390 1026 q 351 1134 358 1106 q 333 1208 343 1163 l 365 1208 q 438 1067 401 1117 q 524 1017 474 1017 q 610 1067 574 1017 q 682 1208 646 1117 l 714 1208 z "},"ŏ":{"ha":719,"x_min":49,"x_max":672,"o":"m 672 324 q 580 78 672 178 q 351 -21 488 -21 q 133 72 217 -21 q 49 307 49 165 q 142 544 49 449 q 371 640 236 640 q 588 551 504 640 q 672 324 672 461 m 564 282 q 489 531 564 451 q 357 588 432 588 q 215 519 271 588 q 158 338 158 450 q 235 89 158 167 q 365 33 288 33 q 507 102 450 33 q 564 282 564 171 m 554 961 q 537 887 544 915 q 513 819 529 858 q 479 757 497 779 q 431 718 461 735 q 364 701 401 701 q 297 718 326 701 q 249 757 267 735 q 215 819 231 779 q 191 887 199 858 q 174 961 183 915 l 206 961 q 278 819 242 869 q 364 769 314 769 q 450 819 414 769 q 522 961 486 869 l 554 961 z "},"Ő":{"ha":1026,"x_min":64,"x_max":963,"o":"m 963 438 q 833 114 963 249 q 511 -21 703 -21 q 191 103 318 -21 q 64 426 64 228 q 194 751 64 615 q 515 886 324 886 q 835 761 708 886 q 963 438 963 636 m 836 422 q 740 723 836 610 q 510 836 644 836 q 283 729 375 836 q 190 442 190 622 q 285 141 190 254 q 515 28 381 28 q 743 135 650 28 q 836 422 836 242 m 801 1208 l 596 953 l 565 953 l 686 1208 l 801 1208 m 592 1208 l 386 953 l 356 953 l 476 1208 l 592 1208 z "},"ő":{"ha":719,"x_min":49,"x_max":672,"o":"m 672 324 q 580 78 672 178 q 351 -21 488 -21 q 133 72 217 -21 q 49 307 49 165 q 142 544 49 449 q 371 640 236 640 q 588 551 504 640 q 672 324 672 461 m 564 282 q 489 531 564 451 q 357 588 432 588 q 215 519 271 588 q 158 338 158 450 q 235 89 158 167 q 365 33 288 33 q 507 102 450 33 q 564 282 564 171 m 643 961 l 438 706 l 407 706 l 528 961 l 643 961 m 433 961 l 228 706 l 197 706 l 318 961 l 433 961 z "},"Œ":{"ha":1296,"x_min":64,"x_max":1236,"o":"m 1236 246 l 1210 0 l 576 0 q 205 115 346 -1 q 64 419 64 232 q 198 741 64 613 q 579 869 332 869 l 1211 868 l 1211 617 l 1156 617 l 1125 757 q 1113 790 1119 781 q 1073 806 1106 799 q 989 815 1040 814 q 828 817 938 817 l 765 817 l 765 468 l 826 468 q 940 472 918 468 q 968 494 963 476 l 1000 588 l 1044 588 l 1017 299 l 972 299 l 963 388 q 954 406 961 400 q 918 415 947 411 q 825 418 889 418 l 765 418 l 765 51 l 810 51 q 1028 56 964 51 q 1110 72 1092 61 q 1139 111 1129 82 l 1174 246 l 1236 246 m 658 54 l 658 799 l 546 821 q 278 715 375 818 q 181 453 181 611 q 291 162 181 269 q 606 54 401 54 l 658 54 z "},"œ":{"ha":1151,"x_min":51,"x_max":1099,"o":"m 611 114 q 501 15 568 50 q 354 -21 433 -21 q 133 72 218 -21 q 51 308 49 165 q 147 546 54 451 q 374 640 239 640 q 523 603 457 640 q 628 500 589 565 q 739 603 671 565 q 885 640 807 640 q 1040 585 981 640 q 1099 439 1099 529 q 1090 365 1099 394 l 672 371 q 671 338 671 365 q 733 144 671 219 q 889 68 794 68 q 1067 153 997 68 l 1094 136 q 992 22 1057 63 q 844 -19 926 -19 q 708 16 769 -19 q 611 114 647 51 m 986 414 q 956 543 992 494 q 858 592 921 592 q 747 543 799 592 q 678 413 694 494 q 701 413 686 413 q 758 413 717 413 q 835 413 799 413 q 908 414 871 414 q 966 414 944 414 q 986 414 988 414 m 567 279 q 492 531 567 451 q 360 588 435 588 q 218 520 274 588 q 161 340 163 453 q 238 89 158 169 q 368 33 290 33 q 509 101 453 33 q 567 279 565 168 z "},"Ŕ":{"ha":821,"x_min":58,"x_max":831,"o":"m 514 407 l 703 115 q 769 57 739 64 l 826 47 l 831 0 l 626 0 l 574 96 l 404 385 q 386 385 397 385 q 344 384 375 385 q 303 383 314 383 q 285 383 292 383 l 285 74 q 321 56 285 60 l 400 47 l 404 0 l 58 0 l 63 47 l 135 56 q 171 75 171 60 l 171 794 q 164 806 171 803 q 135 813 157 810 l 63 821 l 58 868 l 414 868 q 643 810 567 868 q 719 656 719 753 q 514 407 719 476 m 596 631 q 378 814 596 826 l 285 811 l 285 442 l 403 432 q 544 492 493 442 q 596 631 596 542 m 593 1208 l 364 953 l 332 953 l 463 1208 l 593 1208 z "},"ŕ":{"ha":514,"x_min":35,"x_max":508,"o":"m 488 622 q 498 611 488 622 q 508 571 508 601 q 491 520 508 540 q 443 500 474 500 q 376 544 400 500 q 301 478 342 522 q 235 385 260 433 l 235 72 q 272 53 235 54 l 346 47 l 350 0 l 40 0 l 44 47 l 100 53 q 135 74 135 54 l 135 467 q 127 528 135 514 q 92 549 119 542 l 35 557 l 38 594 l 235 640 l 235 460 l 240 460 q 343 601 300 561 q 431 642 386 642 q 488 622 467 642 m 508 961 l 279 706 l 247 706 l 378 961 l 508 961 z "},"Ŗ":{"ha":821,"x_min":58,"x_max":831,"o":"m 514 407 l 703 115 q 769 57 739 64 l 826 47 l 831 0 l 626 0 l 574 96 l 404 385 q 386 385 397 385 q 344 384 375 385 q 303 383 314 383 q 285 383 292 383 l 285 74 q 321 56 285 60 l 400 47 l 404 0 l 58 0 l 63 47 l 135 56 q 171 75 171 60 l 171 794 q 164 806 171 803 q 135 813 157 810 l 63 821 l 58 868 l 414 868 q 643 810 567 868 q 719 656 719 753 q 514 407 719 476 m 596 631 q 378 814 596 826 l 285 811 l 285 442 l 403 432 q 544 492 493 442 q 596 631 596 542 m 554 -178 q 509 -290 554 -242 q 400 -364 464 -337 l 376 -342 q 469 -224 469 -303 q 461 -187 469 -203 q 440 -162 453 -171 q 415 -147 428 -153 q 394 -139 403 -142 q 386 -135 386 -136 q 405 -89 386 -107 q 458 -71 424 -71 q 526 -103 497 -71 q 554 -178 554 -135 z "},"ŗ":{"ha":514,"x_min":35,"x_max":508,"o":"m 488 622 q 498 611 488 622 q 508 571 508 601 q 491 520 508 540 q 443 500 474 500 q 376 544 400 500 q 301 478 342 522 q 235 385 260 433 l 235 72 q 272 53 235 54 l 346 47 l 350 0 l 40 0 l 44 47 l 100 53 q 135 74 135 54 l 135 467 q 127 528 135 514 q 92 549 119 542 l 35 557 l 38 594 l 235 640 l 235 460 l 240 460 q 343 601 300 561 q 431 642 386 642 q 488 622 467 642 m 276 -178 q 231 -290 276 -242 q 122 -364 186 -337 l 99 -342 q 192 -224 192 -303 q 183 -187 192 -203 q 163 -162 175 -171 q 138 -147 150 -153 q 117 -139 125 -142 q 108 -135 108 -136 q 127 -89 108 -107 q 181 -71 146 -71 q 248 -103 219 -71 q 276 -178 276 -135 z "},"Ř":{"ha":821,"x_min":58,"x_max":831,"o":"m 514 407 l 703 115 q 769 57 739 64 l 826 47 l 831 0 l 626 0 l 574 96 l 404 385 q 386 385 397 385 q 344 384 375 385 q 303 383 314 383 q 285 383 292 383 l 285 74 q 321 56 285 60 l 400 47 l 404 0 l 58 0 l 63 47 l 135 56 q 171 75 171 60 l 171 794 q 164 806 171 803 q 135 813 157 810 l 63 821 l 58 868 l 414 868 q 643 810 567 868 q 719 656 719 753 q 514 407 719 476 m 596 631 q 378 814 596 826 l 285 811 l 285 442 l 403 432 q 544 492 493 442 q 596 631 596 542 m 588 1222 l 433 953 l 381 953 l 226 1222 l 264 1222 l 406 1051 l 408 1051 l 550 1222 l 588 1222 z "},"ř":{"ha":514,"x_min":35,"x_max":508,"o":"m 488 622 q 498 611 488 622 q 508 571 508 601 q 491 520 508 540 q 443 500 474 500 q 376 544 400 500 q 301 478 342 522 q 235 385 260 433 l 235 72 q 272 53 235 54 l 346 47 l 350 0 l 40 0 l 44 47 l 100 53 q 135 74 135 54 l 135 467 q 127 528 135 514 q 92 549 119 542 l 35 557 l 38 594 l 235 640 l 235 460 l 240 460 q 343 601 300 561 q 431 642 386 642 q 488 622 467 642 m 458 975 l 304 706 l 251 706 l 97 975 l 135 975 l 276 804 l 279 804 l 421 975 l 458 975 z "},"Ś":{"ha":700,"x_min":61,"x_max":643,"o":"m 643 235 q 556 55 643 129 q 325 -21 468 -19 q 82 17 204 -22 l 61 263 l 117 263 l 175 71 q 346 33 257 33 q 488 83 436 35 q 540 197 540 131 q 490 317 540 276 q 322 401 439 357 q 226 442 263 424 q 151 490 189 461 q 97 559 114 519 q 79 651 79 599 q 153 818 79 750 q 365 888 228 886 q 528 872 449 889 l 600 893 l 600 619 l 544 619 l 506 797 q 347 832 429 832 q 223 790 267 832 q 179 688 179 747 q 193 617 179 647 q 242 564 207 588 q 306 527 278 540 q 393 492 335 514 q 581 392 519 446 q 643 235 643 339 m 563 1208 l 333 953 l 301 953 l 432 1208 l 563 1208 z "},"ś":{"ha":558,"x_min":68,"x_max":499,"o":"m 499 176 q 435 37 499 94 q 257 -21 371 -21 q 76 8 151 -21 l 68 188 l 131 188 l 160 64 q 274 28 211 28 q 369 60 328 28 q 411 144 411 93 q 400 189 411 169 q 362 224 389 208 q 315 248 335 240 q 256 271 296 256 q 201 293 221 285 q 153 319 181 301 q 110 354 125 336 q 83 400 94 372 q 72 463 72 428 q 131 590 72 536 q 289 643 189 643 q 424 621 354 643 l 465 635 l 476 440 l 415 440 l 389 561 q 278 594 338 594 q 193 567 226 594 q 160 496 160 539 q 182 440 160 464 q 230 403 204 415 q 313 369 256 392 q 382 340 356 353 q 439 305 408 328 q 484 250 469 282 q 499 176 499 218 m 481 961 l 251 706 l 219 706 l 350 961 l 481 961 z "},"Ŝ":{"ha":700,"x_min":61,"x_max":643,"o":"m 643 235 q 556 55 643 129 q 325 -21 468 -19 q 82 17 204 -22 l 61 263 l 117 263 l 175 71 q 346 33 257 33 q 488 83 436 35 q 540 197 540 131 q 490 317 540 276 q 322 401 439 357 q 226 442 263 424 q 151 490 189 461 q 97 559 114 519 q 79 651 79 599 q 153 818 79 750 q 365 888 228 886 q 528 872 449 889 l 600 893 l 600 619 l 544 619 l 506 797 q 347 832 429 832 q 223 790 267 832 q 179 688 179 747 q 193 617 179 647 q 242 564 207 588 q 306 527 278 540 q 393 492 335 514 q 581 392 519 446 q 643 235 643 339 m 529 953 l 492 953 l 350 1124 l 347 1124 l 206 953 l 168 953 l 322 1222 l 375 1222 l 529 953 z "},"ŝ":{"ha":558,"x_min":68,"x_max":499,"o":"m 499 176 q 435 37 499 94 q 257 -21 371 -21 q 76 8 151 -21 l 68 188 l 131 188 l 160 64 q 274 28 211 28 q 369 60 328 28 q 411 144 411 93 q 400 189 411 169 q 362 224 389 208 q 315 248 335 240 q 256 271 296 256 q 201 293 221 285 q 153 319 181 301 q 110 354 125 336 q 83 400 94 372 q 72 463 72 428 q 131 590 72 536 q 289 643 189 643 q 424 621 354 643 l 465 635 l 476 440 l 415 440 l 389 561 q 278 594 338 594 q 193 567 226 594 q 160 496 160 539 q 182 440 160 464 q 230 403 204 415 q 313 369 256 392 q 382 340 356 353 q 439 305 408 328 q 484 250 469 282 q 499 176 499 218 m 472 706 l 435 706 l 293 876 l 290 876 l 149 706 l 111 706 l 265 975 l 318 975 l 472 706 z "},"Ş":{"ha":700,"x_min":61,"x_max":643,"o":"m 507 -204 q 433 -316 507 -271 q 224 -371 358 -361 l 213 -340 q 429 -218 429 -311 q 399 -163 429 -183 q 311 -143 369 -143 q 231 -150 276 -143 l 231 -126 l 331 -21 l 325 -21 q 82 17 204 -22 l 61 263 l 117 263 l 175 71 q 346 33 257 33 q 488 83 436 35 q 540 197 540 131 q 490 317 540 276 q 322 401 439 357 q 226 442 263 424 q 151 490 189 461 q 97 559 114 519 q 79 651 79 599 q 153 818 79 750 q 365 888 228 886 q 528 872 449 889 l 600 893 l 600 619 l 544 619 l 506 797 q 347 832 429 832 q 223 790 267 832 q 179 688 179 747 q 193 617 179 647 q 242 564 207 588 q 306 527 278 540 q 393 492 335 514 q 581 392 519 446 q 643 235 643 339 q 575 72 643 142 q 390 -15 507 1 l 328 -82 q 458 -112 408 -79 q 507 -204 507 -144 z "},"ş":{"ha":558,"x_min":68,"x_max":499,"o":"m 433 -204 q 359 -316 433 -271 q 150 -371 285 -361 l 139 -340 q 356 -218 356 -311 q 326 -163 356 -183 q 238 -143 296 -143 q 157 -150 203 -143 l 157 -126 l 257 -21 q 76 8 151 -21 l 68 188 l 131 188 l 160 64 q 274 28 211 28 q 369 60 328 28 q 411 144 411 93 q 400 189 411 169 q 362 224 389 208 q 315 248 335 240 q 256 271 296 256 q 201 293 221 285 q 153 319 181 301 q 110 354 125 336 q 83 400 94 372 q 72 463 72 428 q 131 590 72 536 q 289 643 189 643 q 424 621 354 643 l 465 635 l 476 440 l 415 440 l 389 561 q 278 594 338 594 q 193 567 226 594 q 160 496 160 539 q 182 440 160 464 q 230 403 204 415 q 313 369 256 392 q 382 340 356 353 q 439 305 408 328 q 484 250 469 282 q 499 176 499 218 q 451 53 499 107 q 317 -15 403 -1 l 254 -82 q 384 -112 335 -79 q 433 -204 433 -144 z "},"Š":{"ha":700,"x_min":61,"x_max":643,"o":"m 643 235 q 556 55 643 129 q 325 -21 468 -19 q 82 17 204 -22 l 61 263 l 117 263 l 175 71 q 346 33 257 33 q 488 83 436 35 q 540 197 540 131 q 490 317 540 276 q 322 401 439 357 q 226 442 263 424 q 151 490 189 461 q 97 559 114 519 q 79 651 79 599 q 153 818 79 750 q 365 888 228 886 q 528 872 449 889 l 600 893 l 600 619 l 544 619 l 506 797 q 347 832 429 832 q 223 790 267 832 q 179 688 179 747 q 193 617 179 647 q 242 564 207 588 q 306 527 278 540 q 393 492 335 514 q 581 392 519 446 q 643 235 643 339 m 531 1214 l 376 944 l 324 944 l 169 1214 l 207 1214 l 349 1043 l 351 1043 l 493 1214 l 531 1214 z "},"š":{"ha":558,"x_min":68,"x_max":499,"o":"m 499 176 q 435 37 499 94 q 257 -21 371 -21 q 76 8 151 -21 l 68 188 l 131 188 l 160 64 q 274 28 211 28 q 369 60 328 28 q 411 144 411 93 q 400 189 411 169 q 362 224 389 208 q 315 248 335 240 q 256 271 296 256 q 201 293 221 285 q 153 319 181 301 q 110 354 125 336 q 83 400 94 372 q 72 463 72 428 q 131 590 72 536 q 289 643 189 643 q 424 621 354 643 l 465 635 l 476 440 l 415 440 l 389 561 q 278 594 338 594 q 193 567 226 594 q 160 496 160 539 q 182 440 160 464 q 230 403 204 415 q 313 369 256 392 q 382 340 356 353 q 439 305 408 328 q 484 250 469 282 q 499 176 499 218 m 457 975 l 303 706 l 250 706 l 96 975 l 133 975 l 275 804 l 278 804 l 419 975 l 457 975 z "},"Ţ":{"ha":850,"x_min":35,"x_max":801,"o":"m 801 601 l 742 601 l 711 747 q 692 789 704 776 q 634 809 679 801 q 492 817 589 817 l 482 817 l 482 74 q 518 56 482 60 l 613 47 l 617 0 l 233 0 l 238 47 l 332 56 q 368 75 368 60 l 368 817 l 358 817 q 217 812 260 817 q 159 796 175 807 q 135 757 143 785 l 97 601 l 35 601 l 58 868 l 801 868 l 801 601 m 513 -178 q 467 -290 513 -242 q 358 -364 422 -337 l 335 -342 q 428 -224 428 -303 q 419 -187 428 -203 q 399 -162 411 -171 q 374 -147 386 -153 q 353 -139 361 -142 q 344 -135 344 -136 q 363 -89 344 -107 q 417 -71 382 -71 q 484 -103 456 -71 q 513 -178 513 -135 z "},"ţ":{"ha":476,"x_min":13,"x_max":449,"o":"m 357 -178 q 312 -290 357 -242 q 203 -364 267 -337 l 179 -342 q 272 -224 272 -303 q 264 -187 272 -203 q 243 -162 256 -171 q 218 -147 231 -153 q 197 -139 206 -142 q 189 -135 189 -136 q 208 -89 189 -107 q 261 -71 226 -71 q 328 -103 300 -71 q 357 -178 357 -135 m 449 58 q 367 1 415 24 q 272 -21 318 -21 q 155 24 197 -21 q 114 160 113 68 l 122 551 l 13 557 l 14 597 l 108 654 l 174 742 l 222 736 l 221 618 l 446 618 l 436 554 l 221 554 l 213 185 q 324 58 208 58 q 440 94 375 58 l 449 58 z "},"Ť":{"ha":850,"x_min":35,"x_max":801,"o":"m 801 601 l 742 601 l 711 747 q 692 789 704 776 q 634 809 679 801 q 492 817 589 817 l 482 817 l 482 74 q 518 56 482 60 l 613 47 l 617 0 l 233 0 l 238 47 l 332 56 q 368 75 368 60 l 368 817 l 358 817 q 217 812 260 817 q 159 796 175 807 q 135 757 143 785 l 97 601 l 35 601 l 58 868 l 801 868 l 801 601 m 604 1222 l 450 953 l 397 953 l 243 1222 l 281 1222 l 422 1051 l 425 1051 l 567 1222 l 604 1222 z "},"ť":{"ha":496,"x_min":13,"x_max":469,"o":"m 469 872 q 313 651 469 764 l 288 669 q 382 819 382 739 q 374 853 382 838 q 353 879 365 869 q 328 896 340 889 q 307 907 315 903 l 299 911 q 318 956 299 938 q 369 975 338 975 q 438 945 407 975 q 469 872 469 915 m 449 58 q 367 1 415 24 q 272 -21 318 -21 q 155 24 197 -21 q 114 160 113 68 l 122 551 l 13 557 l 14 597 l 108 654 l 174 742 l 222 736 l 221 618 l 446 618 l 436 554 l 221 554 l 213 185 q 324 58 208 58 q 440 94 375 58 l 449 58 z "},"Ū":{"ha":988,"x_min":47,"x_max":953,"o":"m 953 868 l 949 821 l 867 810 q 849 806 856 808 q 837 794 843 803 q 828 776 831 786 q 824 741 825 765 q 822 689 822 717 q 821 613 821 661 l 821 288 q 732 62 821 144 q 489 -21 643 -21 q 246 58 332 -21 q 160 299 160 136 l 160 794 q 124 813 160 810 l 51 821 l 47 868 l 386 868 l 382 821 l 310 813 q 274 793 274 808 l 274 313 q 528 50 274 50 q 703 116 642 50 q 765 294 765 182 l 765 613 q 765 719 765 685 q 758 775 764 753 q 745 802 753 797 q 721 810 738 807 l 638 821 l 633 868 l 953 868 m 686 996 l 343 996 l 347 1053 l 682 1053 l 686 996 z "},"ū":{"ha":731,"x_min":14,"x_max":722,"o":"m 722 38 l 718 4 l 510 -21 l 510 81 l 503 81 q 281 -21 382 -21 q 164 25 208 -21 q 113 178 113 75 l 115 547 q 115 556 115 553 q 113 560 114 558 q 107 563 111 563 q 99 565 103 564 q 86 566 94 565 q 71 568 78 567 l 18 574 l 14 619 l 221 619 l 211 244 q 244 104 211 144 q 344 64 278 64 q 510 135 428 64 l 510 547 q 472 568 510 565 l 403 574 l 399 619 l 610 619 l 610 86 q 622 60 610 64 l 722 38 m 510 749 l 167 749 l 171 806 l 506 806 l 510 749 z "},"Ŭ":{"ha":988,"x_min":47,"x_max":953,"o":"m 953 868 l 949 821 l 867 810 q 849 806 856 808 q 837 794 843 803 q 828 776 831 786 q 824 741 825 765 q 822 689 822 717 q 821 613 821 661 l 821 288 q 732 62 821 144 q 489 -21 643 -21 q 246 58 332 -21 q 160 299 160 136 l 160 794 q 124 813 160 810 l 51 821 l 47 868 l 386 868 l 382 821 l 310 813 q 274 793 274 808 l 274 313 q 528 50 274 50 q 703 116 642 50 q 765 294 765 182 l 765 613 q 765 719 765 685 q 758 775 764 753 q 745 802 753 797 q 721 810 738 807 l 638 821 l 633 868 l 953 868 m 703 1208 q 685 1134 693 1163 q 662 1066 678 1106 q 628 1004 646 1026 q 580 965 610 982 q 513 949 550 949 q 445 965 475 949 q 397 1004 415 982 q 363 1066 379 1026 q 340 1134 347 1106 q 322 1208 332 1163 l 354 1208 q 426 1067 390 1117 q 513 1017 463 1017 q 599 1067 563 1017 q 671 1208 635 1117 l 703 1208 z "},"ŭ":{"ha":731,"x_min":14,"x_max":722,"o":"m 722 38 l 718 4 l 510 -21 l 510 81 l 503 81 q 281 -21 382 -21 q 164 25 208 -21 q 113 178 113 75 l 115 547 q 115 556 115 553 q 113 560 114 558 q 107 563 111 563 q 99 565 103 564 q 86 566 94 565 q 71 568 78 567 l 18 574 l 14 619 l 221 619 l 211 244 q 244 104 211 144 q 344 64 278 64 q 510 135 428 64 l 510 547 q 472 568 510 565 l 403 574 l 399 619 l 610 619 l 610 86 q 622 60 610 64 l 722 38 m 526 961 q 509 887 517 915 q 485 819 501 858 q 451 757 469 779 q 403 718 433 735 q 336 701 374 701 q 269 718 299 701 q 221 757 239 735 q 187 819 203 779 q 163 887 171 858 q 146 961 156 915 l 178 961 q 250 819 214 869 q 336 769 286 769 q 422 819 386 769 q 494 961 458 869 l 526 961 z "},"Ů":{"ha":988,"x_min":47,"x_max":953,"o":"m 953 868 l 949 821 l 867 810 q 849 806 856 808 q 837 794 843 803 q 828 776 831 786 q 824 741 825 765 q 822 689 822 717 q 821 613 821 661 l 821 288 q 732 62 821 144 q 489 -21 643 -21 q 246 58 332 -21 q 160 299 160 136 l 160 794 q 124 813 160 810 l 51 821 l 47 868 l 386 868 l 382 821 l 310 813 q 274 793 274 808 l 274 313 q 528 50 274 50 q 703 116 642 50 q 765 294 765 182 l 765 613 q 765 719 765 685 q 758 775 764 753 q 745 802 753 797 q 721 810 738 807 l 638 821 l 633 868 l 953 868 m 603 1176 q 620 1158 603 1176 q 638 1088 638 1140 q 603 999 638 1035 q 514 963 569 963 q 424 999 458 963 q 390 1088 390 1035 q 424 1176 390 1140 q 514 1213 458 1213 q 603 1176 569 1213 m 596 1088 q 574 1151 596 1125 q 514 1176 551 1176 q 454 1151 476 1176 q 432 1088 432 1125 q 454 1026 432 1051 q 514 1000 476 1000 q 574 1026 551 1000 q 596 1088 596 1051 z "},"ů":{"ha":731,"x_min":14,"x_max":722,"o":"m 722 38 l 718 4 l 510 -21 l 510 81 l 503 81 q 281 -21 382 -21 q 164 25 208 -21 q 113 178 113 75 l 115 547 q 115 556 115 553 q 113 560 114 558 q 107 563 111 563 q 99 565 103 564 q 86 566 94 565 q 71 568 78 567 l 18 574 l 14 619 l 221 619 l 211 244 q 244 104 211 144 q 344 64 278 64 q 510 135 428 64 l 510 547 q 472 568 510 565 l 403 574 l 399 619 l 610 619 l 610 86 q 622 60 610 64 l 722 38 m 437 929 q 454 911 437 929 q 471 840 471 893 q 437 751 471 788 q 347 715 403 715 q 258 751 292 715 q 224 840 224 788 q 258 929 224 893 q 347 965 292 965 q 437 929 403 965 m 429 840 q 407 903 429 878 q 347 929 385 929 q 288 903 310 929 q 265 840 265 878 q 288 778 265 804 q 347 753 310 753 q 407 778 385 753 q 429 840 429 804 z "},"Ű":{"ha":988,"x_min":47,"x_max":953,"o":"m 953 868 l 949 821 l 867 810 q 849 806 856 808 q 837 794 843 803 q 828 776 831 786 q 824 741 825 765 q 822 689 822 717 q 821 613 821 661 l 821 288 q 732 62 821 144 q 489 -21 643 -21 q 246 58 332 -21 q 160 299 160 136 l 160 794 q 124 813 160 810 l 51 821 l 47 868 l 386 868 l 382 821 l 310 813 q 274 793 274 808 l 274 313 q 528 50 274 50 q 703 116 642 50 q 765 294 765 182 l 765 613 q 765 719 765 685 q 758 775 764 753 q 745 802 753 797 q 721 810 738 807 l 638 821 l 633 868 l 953 868 m 585 1208 l 379 953 l 349 953 l 469 1208 l 585 1208 m 794 1208 l 589 953 l 558 953 l 679 1208 l 794 1208 z "},"ű":{"ha":731,"x_min":14,"x_max":722,"o":"m 722 38 l 718 4 l 510 -21 l 510 81 l 503 81 q 281 -21 382 -21 q 164 25 208 -21 q 113 178 113 75 l 115 547 q 115 556 115 553 q 113 560 114 558 q 107 563 111 563 q 99 565 103 564 q 86 566 94 565 q 71 568 78 567 l 18 574 l 14 619 l 221 619 l 211 244 q 244 104 211 144 q 344 64 278 64 q 510 135 428 64 l 510 547 q 472 568 510 565 l 403 574 l 399 619 l 610 619 l 610 86 q 622 60 610 64 l 722 38 m 418 961 l 213 706 l 182 706 l 303 961 l 418 961 m 628 961 l 422 706 l 392 706 l 513 961 l 628 961 z "},"Ų":{"ha":988,"x_min":47,"x_max":953,"o":"m 600 -294 q 514 -262 547 -294 q 481 -174 481 -231 q 579 -12 481 -90 q 489 -21 538 -21 q 246 58 332 -21 q 160 299 160 136 l 160 794 q 124 813 160 810 l 51 821 l 47 868 l 386 868 l 382 821 l 310 813 q 274 793 274 808 l 274 313 q 528 50 274 50 q 703 116 642 50 q 765 294 765 182 l 765 613 q 765 719 765 685 q 758 775 764 753 q 745 802 753 797 q 721 810 738 807 l 638 821 l 633 868 l 953 868 l 949 821 l 867 810 q 849 806 856 808 q 837 794 843 803 q 828 776 831 786 q 824 741 825 765 q 822 689 822 717 q 821 613 821 661 l 821 288 q 676 17 821 111 q 597 -61 626 -17 q 567 -147 567 -106 q 584 -202 567 -181 q 633 -224 601 -224 q 703 -194 678 -224 l 718 -211 q 678 -269 710 -244 q 600 -294 646 -294 z "},"ų":{"ha":731,"x_min":14,"x_max":722,"o":"m 600 -294 q 510 -266 544 -294 q 475 -185 475 -237 q 614 -10 475 -71 l 510 -21 l 510 81 l 503 81 q 281 -21 382 -21 q 164 25 208 -21 q 113 178 113 75 l 115 547 q 115 556 115 553 q 113 560 114 558 q 107 563 111 563 q 99 565 103 564 q 86 566 94 565 q 71 568 78 567 l 18 574 l 14 621 l 221 621 l 211 244 q 244 106 211 146 q 344 65 278 65 q 510 135 429 65 l 510 547 q 472 568 510 565 l 403 574 l 399 621 l 610 621 l 610 86 q 622 60 610 64 l 722 38 l 718 4 q 605 -62 649 -18 q 561 -160 561 -106 q 633 -224 561 -224 q 703 -194 678 -224 l 718 -211 q 678 -269 710 -244 q 600 -294 646 -294 z "},"Ŵ":{"ha":1275,"x_min":-21,"x_max":1292,"o":"m 1292 868 l 1288 821 l 1238 811 q 1201 792 1213 803 q 1174 742 1190 781 q 1128 613 1157 704 l 933 -3 l 853 -3 l 651 597 l 649 597 l 439 -3 l 357 -3 l 99 781 q 65 807 92 803 l -17 821 l -21 868 l 336 868 l 332 821 l 253 811 q 233 804 239 808 q 228 787 228 800 q 233 758 229 774 q 250 707 238 742 l 424 143 l 429 143 l 618 679 l 585 781 q 550 807 578 803 l 471 821 l 467 868 l 819 868 l 815 821 l 733 811 q 710 786 711 807 q 731 707 710 765 l 914 142 l 918 143 l 1058 613 q 1093 740 1086 701 q 1092 792 1100 779 q 1058 810 1085 804 l 986 821 l 982 868 l 1292 868 m 836 953 l 799 953 l 657 1124 l 654 1124 l 513 953 l 475 953 l 629 1222 l 682 1222 l 836 953 z "},"ŵ":{"ha":958,"x_min":-19,"x_max":979,"o":"m 979 619 l 975 574 l 932 567 q 894 549 906 563 q 867 490 882 536 l 706 -10 l 638 -10 l 486 394 l 326 -10 l 258 -10 l 75 524 q 58 554 68 546 q 26 565 49 563 l -15 572 l -19 619 l 258 619 l 254 574 l 208 567 q 182 526 169 561 l 322 110 l 457 465 l 436 524 q 417 553 428 546 q 383 564 407 561 l 340 574 l 336 619 l 618 619 l 614 574 l 569 567 q 542 526 529 563 l 692 107 l 808 489 q 815 544 821 526 q 778 567 808 563 l 735 574 l 731 619 l 979 619 m 657 706 l 619 706 l 478 876 l 475 876 l 333 706 l 296 706 l 450 975 l 503 975 l 657 706 z "},"Ŷ":{"ha":835,"x_min":-10,"x_max":839,"o":"m 839 868 l 835 821 l 793 814 q 742 790 763 804 q 699 739 722 775 l 481 378 l 481 74 q 517 56 481 58 l 611 47 l 615 0 l 231 0 l 235 47 l 331 56 q 367 75 367 60 l 367 364 l 108 772 q 51 811 85 804 l -6 821 l -10 868 l 329 868 l 325 821 l 256 813 q 251 742 217 807 q 272 706 260 726 l 439 429 l 446 429 l 626 738 q 615 814 667 804 l 563 821 l 558 868 l 839 868 m 625 953 l 588 953 l 446 1124 l 443 1124 l 301 953 l 264 953 l 418 1222 l 471 1222 l 625 953 z "},"ŷ":{"ha":628,"x_min":-25,"x_max":660,"o":"m 660 619 l 656 574 l 610 564 q 576 547 588 561 q 546 490 564 533 l 376 29 l 310 -182 q 243 -321 279 -278 q 147 -364 207 -364 q 81 -344 106 -364 q 57 -292 57 -324 q 74 -242 57 -261 q 122 -222 90 -222 q 201 -272 175 -222 q 263 -165 232 -258 l 315 -14 l 315 -12 l 74 524 q 55 553 64 546 q 21 564 46 560 l -19 572 l -25 619 l 261 619 l 257 574 l 210 567 q 186 529 171 564 l 358 119 l 490 496 q 497 546 503 531 q 464 564 492 561 l 413 574 l 408 619 l 660 619 m 519 706 l 482 706 l 340 876 l 338 876 l 196 706 l 158 706 l 313 975 l 365 975 l 519 706 z "},"Ÿ":{"ha":833,"x_min":-10,"x_max":839,"o":"m 839 868 l 835 821 l 793 814 q 742 790 763 804 q 699 739 722 775 l 481 378 l 481 74 q 517 56 481 58 l 611 47 l 615 0 l 231 0 l 235 47 l 331 56 q 367 75 367 60 l 367 364 l 108 772 q 51 811 85 804 l -6 821 l -10 868 l 329 868 l 325 821 l 256 813 q 251 742 217 807 q 272 706 260 726 l 439 429 l 446 429 l 626 738 q 615 814 667 804 l 563 821 l 558 868 l 839 868 m 633 1119 q 643 1107 633 1119 q 654 1061 654 1094 q 633 1003 654 1028 q 578 979 613 979 q 522 1003 543 979 q 501 1061 501 1028 q 522 1119 501 1094 q 578 1143 543 1143 q 633 1119 611 1143 m 356 1119 q 366 1107 356 1119 q 376 1061 376 1094 q 356 1003 376 1028 q 300 979 335 979 q 244 1003 265 979 q 224 1061 224 1028 q 244 1119 224 1094 q 300 1143 265 1143 q 356 1119 335 1143 z "},"Ź":{"ha":771,"x_min":46,"x_max":743,"o":"m 743 260 l 714 0 l 46 0 l 46 47 l 593 811 l 593 817 l 436 817 q 256 808 311 815 q 183 787 200 800 q 156 738 167 774 l 128 611 l 72 611 l 72 868 l 728 868 l 728 819 l 182 56 l 181 50 l 339 51 q 535 58 474 51 q 615 78 597 65 q 644 122 633 90 l 679 260 l 743 260 m 599 1208 l 369 953 l 338 953 l 468 1208 l 599 1208 z "},"ź":{"ha":622,"x_min":39,"x_max":600,"o":"m 563 578 l 163 49 l 222 49 q 423 61 376 49 q 490 119 469 74 l 542 235 l 600 235 l 544 0 l 39 0 l 39 42 l 440 572 l 396 572 q 199 560 243 572 q 146 501 156 547 l 124 385 l 63 385 l 63 619 l 563 619 l 563 578 m 524 961 l 294 706 l 263 706 l 393 961 l 524 961 z "},"Ż":{"ha":771,"x_min":46,"x_max":743,"o":"m 743 260 l 714 0 l 46 0 l 46 47 l 593 811 l 593 817 l 436 817 q 256 808 311 815 q 183 787 200 800 q 156 738 167 774 l 128 611 l 72 611 l 72 868 l 728 868 l 728 819 l 182 56 l 181 50 l 339 51 q 535 58 474 51 q 615 78 597 65 q 644 122 633 90 l 679 260 l 743 260 m 465 1085 q 444 1025 465 1050 q 388 1000 422 1000 q 330 1025 351 1000 q 308 1085 308 1050 q 330 1144 308 1119 q 388 1168 351 1168 q 444 1143 422 1168 q 465 1085 465 1118 z "},"ż":{"ha":622,"x_min":39,"x_max":600,"o":"m 563 578 l 163 49 l 222 49 q 423 61 376 49 q 490 119 469 74 l 542 235 l 600 235 l 544 0 l 39 0 l 39 42 l 440 572 l 396 572 q 199 560 243 572 q 146 501 156 547 l 124 385 l 63 385 l 63 619 l 563 619 l 563 578 m 390 838 q 369 778 390 803 q 313 753 347 753 q 255 778 276 753 q 233 838 233 803 q 255 897 233 872 q 313 921 276 921 q 369 896 347 921 q 390 838 390 871 z "},"Ž":{"ha":771,"x_min":46,"x_max":743,"o":"m 743 260 l 714 0 l 46 0 l 46 47 l 593 811 l 593 817 l 436 817 q 256 808 311 815 q 183 787 200 800 q 156 738 167 774 l 128 611 l 72 611 l 72 868 l 728 868 l 728 819 l 182 56 l 181 50 l 339 51 q 535 58 474 51 q 615 78 597 65 q 644 122 633 90 l 679 260 l 743 260 m 567 1214 l 413 944 l 360 944 l 206 1214 l 243 1214 l 385 1043 l 388 1043 l 529 1214 l 567 1214 z "},"ž":{"ha":622,"x_min":39,"x_max":600,"o":"m 563 578 l 163 49 l 222 49 q 423 61 376 49 q 490 119 469 74 l 542 235 l 600 235 l 544 0 l 39 0 l 39 42 l 440 572 l 396 572 q 199 560 243 572 q 146 501 156 547 l 124 385 l 63 385 l 63 619 l 563 619 l 563 578 m 482 975 l 328 706 l 275 706 l 121 975 l 158 975 l 300 804 l 303 804 l 444 975 l 482 975 z "},"ƒ":{"ha":678,"x_min":-10,"x_max":689,"o":"m 689 790 q 672 737 689 758 q 626 715 654 715 q 572 740 593 715 q 549 807 551 765 l 467 786 q 399 539 440 742 l 569 539 l 575 476 l 393 476 q 358 311 374 375 q 311 164 343 247 q 242 43 279 81 q 89 -22 176 -22 q 19 1 47 -22 q -10 60 -10 25 q 8 108 -10 89 q 53 128 26 128 q 106 102 85 128 q 129 39 126 76 l 213 78 q 276 340 243 142 l 297 472 l 176 478 l 181 517 l 311 546 q 425 806 353 729 q 501 856 456 836 q 585 875 546 875 q 660 851 631 875 q 689 790 689 826 z "},"Ǻ":{"ha":815,"x_min":-22,"x_max":851,"o":"m 363 842 q 309 887 329 856 q 289 957 289 918 q 323 1046 289 1010 q 413 1082 357 1082 q 502 1046 468 1082 q 536 957 536 1010 q 478 847 536 882 l 731 88 q 765 61 738 65 l 847 47 l 851 0 l 494 0 l 499 47 l 578 57 q 602 70 596 61 q 605 99 608 79 q 588 161 601 118 l 536 314 l 236 314 l 186 163 q 166 85 165 107 q 190 57 167 63 l 260 47 l 264 0 l -22 0 l -18 47 l 38 57 q 90 97 69 64 q 154 256 110 131 l 363 842 m 518 371 l 394 763 l 388 763 l 256 371 l 518 371 m 496 957 q 473 1019 496 993 q 413 1044 450 1044 q 353 1019 375 1044 q 331 957 331 993 q 353 894 331 919 q 413 868 375 868 q 473 894 450 868 q 496 957 496 919 m 603 1361 l 374 1106 l 342 1106 l 472 1361 l 603 1361 z "},"ǻ":{"ha":610,"x_min":47,"x_max":618,"o":"m 390 929 q 407 911 390 929 q 424 840 424 893 q 390 751 424 788 q 300 715 356 715 q 210 751 244 715 q 176 840 176 788 q 210 929 176 893 q 300 965 244 965 q 390 929 356 965 m 618 65 q 489 -21 547 -21 q 424 5 449 -21 q 400 82 400 31 l 394 82 q 221 -21 299 -21 q 101 25 151 -21 q 51 140 51 71 q 133 281 51 226 q 406 382 215 335 l 406 394 q 372 541 407 500 q 264 582 336 582 q 190 569 226 582 q 154 546 154 557 l 168 525 q 182 482 182 503 q 163 438 182 457 q 114 419 143 419 q 66 437 85 419 q 47 481 47 454 q 134 586 47 531 q 304 642 221 642 q 465 583 421 642 q 504 371 510 525 l 493 106 q 524 57 490 57 q 594 96 546 57 l 618 65 m 382 840 q 360 903 382 878 q 300 929 338 929 q 240 903 263 929 q 218 840 218 878 q 240 778 218 804 q 300 753 263 753 q 360 778 338 753 q 382 840 382 804 m 394 129 l 403 338 q 210 261 267 301 q 153 164 153 221 q 183 86 153 115 q 258 57 214 57 q 394 129 315 57 m 481 1275 l 251 1019 l 219 1019 l 350 1275 l 481 1275 z "},"Ǽ":{"ha":1117,"x_min":-72,"x_max":1069,"o":"m 1069 246 l 1043 0 l 399 0 l 403 47 l 488 61 q 513 86 513 65 l 513 314 l 244 314 l 175 178 q 147 117 156 139 q 136 83 138 96 q 139 65 135 69 q 154 58 143 61 l 224 47 l 228 0 l -72 0 l -68 47 l -10 57 q 31 74 17 64 q 72 126 44 85 q 144 257 99 168 l 403 749 q 375 813 432 803 l 315 821 l 311 868 l 1043 868 l 1043 617 l 989 617 l 958 757 q 946 790 953 781 q 906 806 939 799 q 822 815 874 814 q 661 817 771 817 l 619 817 l 619 468 l 660 468 q 774 472 751 468 q 801 494 796 476 l 833 588 l 878 588 l 850 299 l 806 299 l 796 388 q 787 406 794 400 q 750 415 779 411 q 657 418 721 418 l 619 418 l 619 51 l 643 51 q 861 56 797 51 q 944 72 925 61 q 972 111 963 82 l 1007 246 l 1069 246 m 513 371 l 513 810 l 500 810 l 274 371 l 513 371 m 886 1208 l 657 953 l 625 953 l 756 1208 l 886 1208 z "},"ǽ":{"ha":988,"x_min":47,"x_max":932,"o":"m 440 121 q 340 19 400 60 q 219 -21 279 -21 q 101 26 150 -21 q 51 140 51 72 q 134 280 51 225 q 406 382 217 335 l 406 399 q 264 582 418 582 q 190 569 226 582 q 154 546 154 557 l 168 525 q 182 482 182 503 q 163 438 182 457 q 114 419 143 419 q 66 437 85 419 q 47 481 47 454 q 134 586 47 531 q 304 642 221 642 q 490 538 460 642 q 718 640 585 640 q 874 585 815 640 q 932 439 932 529 q 924 365 932 394 l 506 371 q 505 354 506 368 q 504 338 504 340 q 566 144 504 219 q 722 68 628 68 q 900 153 831 68 l 928 136 q 825 22 890 63 q 679 -19 760 -19 q 540 18 603 -19 q 440 121 478 56 m 821 414 q 790 544 825 496 q 692 592 756 592 q 580 543 632 592 q 511 413 528 494 q 563 413 531 413 q 665 413 596 413 q 778 414 733 414 q 821 414 822 414 m 403 338 q 210 261 267 301 q 153 164 153 221 q 183 86 153 115 q 261 57 214 57 q 424 153 349 57 q 399 292 399 221 q 403 338 399 304 m 722 961 l 493 706 l 461 706 l 592 961 l 722 961 z "},"Ǿ":{"ha":1026,"x_min":58,"x_max":939,"o":"m 939 440 q 817 115 939 250 q 497 -21 696 -21 q 293 25 389 -21 l 219 -103 l 158 -103 l 247 51 q 108 206 158 108 q 58 426 58 304 q 179 752 58 617 q 499 888 300 888 q 707 839 614 888 l 774 956 l 835 956 l 753 814 q 890 658 840 754 q 939 440 939 561 m 667 771 q 488 832 589 832 q 261 728 350 832 q 172 451 172 625 q 292 128 172 247 l 667 771 m 825 415 q 707 736 825 615 q 332 93 333 93 q 508 38 413 38 q 735 140 646 38 q 825 415 825 242 m 699 1208 l 469 953 l 438 953 l 568 1208 l 699 1208 z "},"ǿ":{"ha":719,"x_min":51,"x_max":667,"o":"m 667 796 l 543 581 q 633 465 600 536 q 665 311 665 394 q 576 76 665 172 q 354 -21 488 -21 q 214 13 281 -21 l 118 -156 l 64 -156 l 175 36 q 84 152 117 81 q 51 308 51 224 q 140 544 51 447 q 363 640 229 640 q 504 607 438 640 l 614 796 l 667 796 m 464 538 q 338 586 411 586 q 204 522 256 586 q 153 343 153 458 q 221 115 153 206 l 464 538 m 563 276 q 497 501 563 414 l 253 79 q 378 33 307 33 q 510 98 458 33 q 563 276 563 163 m 554 961 l 325 706 l 293 706 l 424 961 l 554 961 z "},"Ș":{"ha":700,"x_min":61,"x_max":643,"o":"m 643 235 q 556 55 643 129 q 325 -21 468 -19 q 82 17 204 -22 l 61 263 l 117 263 l 175 71 q 346 33 257 33 q 488 83 436 35 q 540 197 540 131 q 490 317 540 276 q 322 401 439 357 q 226 442 263 424 q 151 490 189 461 q 97 559 114 519 q 79 651 79 599 q 153 818 79 750 q 365 888 228 886 q 528 872 449 889 l 600 893 l 600 619 l 544 619 l 506 797 q 347 832 429 832 q 223 790 267 832 q 179 688 179 747 q 193 617 179 647 q 242 564 207 588 q 306 527 278 540 q 393 492 335 514 q 581 392 519 446 q 643 235 643 339 m 454 -178 q 409 -290 454 -242 q 300 -364 364 -337 l 276 -342 q 369 -224 369 -303 q 361 -187 369 -203 q 340 -162 353 -171 q 315 -147 328 -153 q 294 -139 303 -142 q 286 -135 286 -136 q 305 -89 286 -107 q 358 -71 324 -71 q 426 -103 397 -71 q 454 -178 454 -135 z "},"ș":{"ha":558,"x_min":68,"x_max":499,"o":"m 499 176 q 435 37 499 94 q 257 -21 371 -21 q 76 8 151 -21 l 68 188 l 131 188 l 160 64 q 274 28 211 28 q 369 60 328 28 q 411 144 411 93 q 400 189 411 169 q 362 224 389 208 q 315 248 335 240 q 256 271 296 256 q 201 293 221 285 q 153 319 181 301 q 110 354 125 336 q 83 400 94 372 q 72 463 72 428 q 131 590 72 536 q 289 643 189 643 q 424 621 354 643 l 465 635 l 476 440 l 415 440 l 389 561 q 278 594 338 594 q 193 567 226 594 q 160 496 160 539 q 182 440 160 464 q 230 403 204 415 q 313 369 256 392 q 382 340 356 353 q 439 305 408 328 q 484 250 469 282 q 499 176 499 218 m 363 -178 q 317 -290 363 -242 q 208 -364 272 -337 l 185 -342 q 278 -224 278 -303 q 269 -187 278 -203 q 249 -162 261 -171 q 224 -147 236 -153 q 203 -139 211 -142 q 194 -135 194 -136 q 213 -89 194 -107 q 267 -71 232 -71 q 334 -103 306 -71 q 363 -178 363 -135 z "},"Ț":{"ha":850,"x_min":35,"x_max":801,"o":"m 801 601 l 742 601 l 711 747 q 692 789 704 776 q 634 809 679 801 q 492 817 589 817 l 482 817 l 482 74 q 518 56 482 60 l 613 47 l 617 0 l 233 0 l 238 47 l 332 56 q 368 75 368 60 l 368 817 l 358 817 q 217 812 260 817 q 159 796 175 807 q 135 757 143 785 l 97 601 l 35 601 l 58 868 l 801 868 l 801 601 m 513 -178 q 467 -290 513 -242 q 358 -364 422 -337 l 335 -342 q 428 -224 428 -303 q 419 -187 428 -203 q 399 -162 411 -171 q 374 -147 386 -153 q 353 -139 361 -142 q 344 -135 344 -136 q 363 -89 344 -107 q 417 -71 382 -71 q 484 -103 456 -71 q 513 -178 513 -135 z "},"ț":{"ha":476,"x_min":13,"x_max":449,"o":"m 357 -178 q 312 -290 357 -242 q 203 -364 267 -337 l 179 -342 q 272 -224 272 -303 q 264 -187 272 -203 q 243 -162 256 -171 q 218 -147 231 -153 q 197 -139 206 -142 q 189 -135 189 -136 q 208 -89 189 -107 q 261 -71 226 -71 q 328 -103 300 -71 q 357 -178 357 -135 m 449 58 q 367 1 415 24 q 272 -21 318 -21 q 155 24 197 -21 q 114 160 113 68 l 122 551 l 13 557 l 14 597 l 108 654 l 174 742 l 222 736 l 221 618 l 446 618 l 436 554 l 221 554 l 213 185 q 324 58 208 58 q 440 94 375 58 l 449 58 z "},"ȷ":{"ha":351,"x_min":-89,"x_max":231,"o":"m 231 -46 q 158 -275 224 -187 q 11 -362 93 -362 q -60 -341 -32 -362 q -89 -281 -89 -319 q -69 -234 -89 -253 q -22 -215 -49 -215 q 65 -297 43 -215 q 132 -111 132 -278 l 132 464 q 124 527 132 513 q 85 549 115 542 l 29 557 l 32 594 l 231 640 l 231 -46 z "},"ˆ":{"ha":556,"x_min":97,"x_max":458,"o":"m 458 706 l 421 706 l 279 876 l 276 876 l 135 706 l 97 706 l 251 975 l 304 975 l 458 706 z "},"ˇ":{"ha":556,"x_min":97,"x_max":458,"o":"m 458 975 l 304 706 l 251 706 l 97 975 l 135 975 l 276 804 l 279 804 l 421 975 l 458 975 z "},"˘":{"ha":556,"x_min":88,"x_max":468,"o":"m 468 961 q 451 887 458 915 q 427 819 443 858 q 393 757 411 779 q 345 718 375 735 q 278 701 315 701 q 210 718 240 701 q 163 757 181 735 q 128 819 144 779 q 105 887 113 858 q 88 961 97 915 l 119 961 q 192 819 156 869 q 278 769 228 769 q 364 819 328 769 q 436 961 400 869 l 468 961 z "},"˙":{"ha":556,"x_min":199,"x_max":356,"o":"m 356 838 q 334 778 356 803 q 278 753 313 753 q 220 778 242 753 q 199 838 199 803 q 220 897 199 872 q 278 921 242 921 q 334 896 313 921 q 356 838 356 871 z "},"˚":{"ha":556,"x_min":154,"x_max":401,"o":"m 367 929 q 384 911 367 929 q 401 840 401 893 q 367 751 401 788 q 278 715 333 715 q 188 751 222 715 q 154 840 154 788 q 188 929 154 893 q 278 965 222 965 q 367 929 333 965 m 360 840 q 338 903 360 878 q 278 929 315 929 q 218 903 240 929 q 196 840 196 878 q 218 778 196 804 q 278 753 240 753 q 338 778 315 753 q 360 840 360 804 z "},"˛":{"ha":556,"x_min":181,"x_max":418,"o":"m 301 -294 q 215 -262 249 -294 q 181 -174 181 -231 q 238 -51 181 -108 q 369 44 294 7 l 406 44 q 304 -48 342 4 q 267 -147 267 -100 q 285 -202 267 -181 q 333 -224 303 -224 q 404 -194 378 -224 l 418 -211 q 379 -269 411 -244 q 301 -294 347 -294 z "},"˜":{"ha":556,"x_min":53,"x_max":503,"o":"m 503 885 q 369 722 475 722 q 253 772 322 722 q 164 822 185 822 q 126 803 142 822 q 89 732 110 785 l 53 732 q 186 894 81 894 q 302 844 233 894 q 392 794 371 794 q 430 813 414 794 q 467 885 446 832 l 503 885 z "},"˝":{"ha":556,"x_min":106,"x_max":551,"o":"m 551 961 l 346 706 l 315 706 l 436 961 l 551 961 m 342 961 l 136 706 l 106 706 l 226 961 l 342 961 z "},"Ẁ":{"ha":1275,"x_min":-21,"x_max":1292,"o":"m 1292 868 l 1288 821 l 1238 811 q 1201 792 1213 803 q 1174 742 1190 781 q 1128 613 1157 704 l 933 -3 l 853 -3 l 651 597 l 649 597 l 439 -3 l 357 -3 l 99 781 q 65 807 92 803 l -17 821 l -21 868 l 336 868 l 332 821 l 253 811 q 233 804 239 808 q 228 787 228 800 q 233 758 229 774 q 250 707 238 742 l 424 143 l 429 143 l 618 679 l 585 781 q 550 807 578 803 l 471 821 l 467 868 l 819 868 l 815 821 l 733 811 q 710 786 711 807 q 731 707 710 765 l 914 142 l 918 143 l 1058 613 q 1093 740 1086 701 q 1092 792 1100 779 q 1058 810 1085 804 l 986 821 l 982 868 l 1292 868 m 728 953 l 697 953 l 468 1208 l 594 1208 l 728 953 z "},"ẁ":{"ha":958,"x_min":-19,"x_max":979,"o":"m 979 619 l 975 574 l 932 567 q 894 549 906 563 q 867 490 882 536 l 706 -10 l 638 -10 l 486 394 l 326 -10 l 258 -10 l 75 524 q 58 554 68 546 q 26 565 49 563 l -15 572 l -19 619 l 258 619 l 254 574 l 208 567 q 182 526 169 561 l 322 110 l 457 465 l 436 524 q 417 553 428 546 q 383 564 407 561 l 340 574 l 336 619 l 618 619 l 614 574 l 569 567 q 542 526 529 563 l 692 107 l 808 489 q 815 544 821 526 q 778 567 808 563 l 735 574 l 731 619 l 979 619 m 551 706 l 521 706 l 292 961 l 418 961 l 551 706 z "},"Ẃ":{"ha":1275,"x_min":-21,"x_max":1292,"o":"m 1292 868 l 1288 821 l 1238 811 q 1201 792 1213 803 q 1174 742 1190 781 q 1128 613 1157 704 l 933 -3 l 853 -3 l 651 597 l 649 597 l 439 -3 l 357 -3 l 99 781 q 65 807 92 803 l -17 821 l -21 868 l 336 868 l 332 821 l 253 811 q 233 804 239 808 q 228 787 228 800 q 233 758 229 774 q 250 707 238 742 l 424 143 l 429 143 l 618 679 l 585 781 q 550 807 578 803 l 471 821 l 467 868 l 819 868 l 815 821 l 733 811 q 710 786 711 807 q 731 707 710 765 l 914 142 l 918 143 l 1058 613 q 1093 740 1086 701 q 1092 792 1100 779 q 1058 810 1085 804 l 986 821 l 982 868 l 1292 868 m 851 1208 l 622 953 l 590 953 l 721 1208 l 851 1208 z "},"ẃ":{"ha":958,"x_min":-19,"x_max":979,"o":"m 979 619 l 975 574 l 932 567 q 894 549 906 563 q 867 490 882 536 l 706 -10 l 638 -10 l 486 394 l 326 -10 l 258 -10 l 75 524 q 58 554 68 546 q 26 565 49 563 l -15 572 l -19 619 l 258 619 l 254 574 l 208 567 q 182 526 169 561 l 322 110 l 457 465 l 436 524 q 417 553 428 546 q 383 564 407 561 l 340 574 l 336 619 l 618 619 l 614 574 l 569 567 q 542 526 529 563 l 692 107 l 808 489 q 815 544 821 526 q 778 567 808 563 l 735 574 l 731 619 l 979 619 m 701 961 l 472 706 l 440 706 l 571 961 l 701 961 z "},"Ẅ":{"ha":1275,"x_min":-21,"x_max":1292,"o":"m 1292 868 l 1288 821 l 1238 811 q 1201 792 1213 803 q 1174 742 1190 781 q 1128 613 1157 704 l 933 -3 l 853 -3 l 651 597 l 649 597 l 439 -3 l 357 -3 l 99 781 q 65 807 92 803 l -17 821 l -21 868 l 336 868 l 332 821 l 253 811 q 233 804 239 808 q 228 787 228 800 q 233 758 229 774 q 250 707 238 742 l 424 143 l 429 143 l 618 679 l 585 781 q 550 807 578 803 l 471 821 l 467 868 l 819 868 l 815 821 l 733 811 q 710 786 711 807 q 731 707 710 765 l 914 142 l 918 143 l 1058 613 q 1093 740 1086 701 q 1092 792 1100 779 q 1058 810 1085 804 l 986 821 l 982 868 l 1292 868 m 851 1134 q 861 1122 851 1134 q 872 1076 872 1110 q 851 1019 872 1043 q 796 994 831 994 q 740 1019 761 994 q 719 1076 719 1043 q 740 1134 719 1110 q 796 1158 761 1158 q 851 1134 829 1158 m 574 1134 q 584 1122 574 1134 q 594 1076 594 1110 q 574 1019 594 1043 q 518 994 553 994 q 463 1019 483 994 q 442 1076 442 1043 q 463 1134 442 1110 q 518 1158 483 1158 q 574 1134 553 1158 z "},"ẅ":{"ha":958,"x_min":-19,"x_max":979,"o":"m 979 619 l 975 574 l 932 567 q 894 549 906 563 q 867 490 882 536 l 706 -10 l 638 -10 l 486 394 l 326 -10 l 258 -10 l 75 524 q 58 554 68 546 q 26 565 49 563 l -15 572 l -19 619 l 258 619 l 254 574 l 208 567 q 182 526 169 561 l 322 110 l 457 465 l 436 524 q 417 553 428 546 q 383 564 407 561 l 340 574 l 336 619 l 618 619 l 614 574 l 569 567 q 542 526 529 563 l 692 107 l 808 489 q 815 544 821 526 q 778 567 808 563 l 735 574 l 731 619 l 979 619 m 672 887 q 682 875 672 887 q 693 829 693 863 q 672 772 693 796 q 617 747 651 747 q 561 772 582 747 q 540 829 540 796 q 561 887 540 863 q 617 911 582 911 q 672 887 650 911 m 394 887 q 405 875 394 887 q 415 829 415 863 q 394 772 415 796 q 339 747 374 747 q 283 772 304 747 q 263 829 263 796 q 283 887 263 863 q 339 911 304 911 q 394 887 374 911 z "}," ":{"ha":106,"x_min":0,"x_max":0,"o":""},"–":{"ha":653,"x_min":36,"x_max":619,"o":"m 619 288 l 36 288 l 40 356 l 615 356 l 619 288 z "},"—":{"ha":1303,"x_min":36,"x_max":1268,"o":"m 1268 288 l 36 288 l 40 356 l 1264 356 l 1268 288 z "},"‘":{"ha":314,"x_min":49,"x_max":272,"o":"m 258 608 q 235 553 258 575 q 171 531 211 531 q 86 567 124 531 q 49 657 49 604 q 242 926 49 786 l 272 904 q 154 721 154 817 q 165 679 154 699 q 190 648 175 660 q 222 627 206 636 q 248 614 238 618 q 258 608 258 610 z "},"’":{"ha":314,"x_min":46,"x_max":269,"o":"m 269 789 q 76 518 269 658 l 46 540 q 163 724 163 626 q 152 765 163 746 q 126 797 142 785 q 96 819 111 810 q 70 832 81 828 q 60 838 60 836 q 83 893 60 871 q 147 915 107 915 q 232 878 194 915 q 269 789 269 842 z "},"‚":{"ha":314,"x_min":46,"x_max":269,"o":"m 269 29 q 76 -242 269 -101 l 46 -219 q 163 -36 163 -133 q 152 6 163 -14 q 126 38 142 25 q 96 59 111 50 q 70 72 81 68 q 60 78 60 76 q 83 133 60 111 q 147 156 107 156 q 232 119 194 156 q 269 29 269 82 z "},"“":{"ha":589,"x_min":49,"x_max":561,"o":"m 547 608 q 524 553 547 575 q 460 531 500 531 q 375 567 413 531 q 338 657 338 604 q 531 926 338 786 l 561 904 q 444 721 444 818 q 455 679 444 699 q 481 648 465 660 q 511 627 496 636 q 537 614 526 618 q 547 608 547 610 m 258 608 q 235 553 258 575 q 171 531 211 531 q 86 567 124 531 q 49 657 49 604 q 242 926 49 786 l 272 904 q 154 721 154 817 q 165 679 154 699 q 190 648 175 660 q 222 627 206 636 q 248 614 238 618 q 258 608 258 610 z "},"”":{"ha":589,"x_min":46,"x_max":560,"o":"m 560 789 q 367 518 560 658 l 336 540 q 453 724 453 626 q 442 765 453 746 q 417 797 432 785 q 386 819 401 810 q 360 832 371 828 q 350 838 350 836 q 373 893 350 871 q 438 915 396 915 q 522 878 485 915 q 560 789 560 842 m 269 789 q 76 518 269 658 l 46 540 q 163 724 163 626 q 152 765 163 746 q 126 797 142 785 q 96 819 111 810 q 70 832 81 828 q 60 838 60 836 q 83 893 60 871 q 147 915 107 915 q 232 878 194 915 q 269 789 269 842 z "},"„":{"ha":589,"x_min":46,"x_max":560,"o":"m 560 29 q 367 -242 560 -101 l 336 -219 q 453 -36 453 -133 q 442 6 453 -14 q 417 38 432 25 q 386 59 401 50 q 360 72 371 68 q 350 78 350 76 q 373 133 350 111 q 438 156 396 156 q 522 119 485 156 q 560 29 560 82 m 269 29 q 76 -242 269 -101 l 46 -219 q 163 -36 163 -133 q 152 6 163 -14 q 126 38 142 25 q 96 59 111 50 q 70 72 81 68 q 60 78 60 76 q 83 133 60 111 q 147 156 107 156 q 232 119 194 156 q 269 29 269 82 z "},"†":{"ha":653,"x_min":47,"x_max":610,"o":"m 610 600 l 604 546 l 354 546 l 354 -217 l 301 -217 l 301 546 l 53 546 l 47 600 l 301 600 l 301 868 l 354 868 l 354 600 l 610 600 z "},"‡":{"ha":653,"x_min":47,"x_max":610,"o":"m 610 29 l 354 29 l 354 -217 l 301 -217 l 301 29 l 47 29 l 53 83 l 301 83 l 301 567 l 53 567 l 47 621 l 301 621 l 301 868 l 354 868 l 354 621 l 610 621 l 604 567 l 354 567 l 354 83 l 604 83 l 610 29 z "},"•":{"ha":632,"x_min":49,"x_max":583,"o":"m 555 422 q 569 387 555 422 q 583 322 583 353 q 556 223 583 292 q 506 132 528 154 q 415 83 485 111 q 315 54 346 54 q 217 83 286 54 q 128 132 147 111 q 78 224 107 154 q 49 322 49 293 q 78 422 49 353 q 128 511 107 490 q 218 560 149 532 q 317 589 288 589 q 416 560 347 589 q 506 511 485 532 q 555 422 526 490 z "},"…":{"ha":944,"x_min":72,"x_max":874,"o":"m 849 124 q 861 112 849 124 q 874 65 874 100 q 849 5 874 31 q 789 -21 825 -21 q 726 5 751 -21 q 701 65 701 31 q 726 124 701 100 q 789 149 751 149 q 849 124 825 149 m 535 124 q 547 112 535 124 q 558 65 558 100 q 535 5 558 31 q 474 -21 511 -21 q 413 5 438 -21 q 388 65 388 31 q 412 124 388 100 q 474 149 436 149 q 535 124 511 149 m 220 124 q 232 112 220 124 q 244 65 244 100 q 220 5 244 31 q 160 -21 196 -21 q 97 5 122 -21 q 72 65 72 31 q 97 124 72 100 q 160 149 122 149 q 220 124 196 149 z "},"‰":{"ha":1564,"x_min":24,"x_max":1540,"o":"m 485 669 q 422 507 485 574 q 254 440 358 440 q 88 507 151 440 q 24 669 24 574 q 87 834 24 767 q 254 901 150 901 q 422 835 358 901 q 485 669 485 768 m 908 888 l 201 -21 l 129 -21 l 838 888 l 908 888 m 1540 197 q 1477 33 1540 100 q 1310 -35 1414 -35 q 1142 32 1206 -35 q 1079 197 1079 99 q 1142 360 1079 293 q 1310 426 1206 426 q 1476 360 1413 426 q 1540 197 1540 293 m 1013 197 q 949 33 1013 100 q 782 -35 886 -35 q 615 32 678 -35 q 551 197 551 99 q 615 360 551 293 q 782 426 678 426 q 949 360 885 426 q 1013 197 1013 293 m 419 669 q 375 792 419 743 q 254 842 331 842 q 133 792 178 842 q 89 669 89 743 q 134 550 89 600 q 254 500 179 500 q 374 550 329 500 q 419 669 419 600 m 1475 197 q 1430 317 1475 267 q 1310 367 1385 367 q 1190 317 1235 367 q 1144 197 1144 267 q 1189 74 1144 124 q 1310 25 1233 25 q 1431 74 1386 25 q 1475 197 1475 124 m 947 197 q 902 317 947 267 q 782 367 857 367 q 662 317 707 367 q 617 197 617 267 q 661 74 617 124 q 782 25 706 25 q 903 74 858 25 q 947 197 947 124 z "},"‹":{"ha":431,"x_min":54,"x_max":367,"o":"m 367 92 l 353 64 l 54 278 l 54 336 l 353 550 l 367 522 l 161 307 l 367 92 z "},"›":{"ha":431,"x_min":65,"x_max":378,"o":"m 378 278 l 78 64 l 65 92 l 271 307 l 65 522 l 78 550 l 378 336 l 378 278 z "},"⁄":{"ha":753,"x_min":4,"x_max":749,"o":"m 749 886 l 81 -22 l 4 -22 l 674 886 l 749 886 z "},"⁰":{"ha":458,"x_min":26,"x_max":432,"o":"m 229 368 q 83 438 139 368 q 26 633 26 507 q 84 835 26 758 q 233 913 142 913 q 376 842 321 913 q 432 646 432 772 q 377 445 432 522 q 229 368 322 368 m 236 400 q 342 629 342 400 q 228 881 342 881 q 118 651 118 881 q 236 400 118 400 z "},"⁴":{"ha":458,"x_min":17,"x_max":440,"o":"m 267 379 l 267 533 l 21 533 l 17 567 l 289 911 l 346 911 l 346 575 l 440 575 l 435 533 l 346 533 l 346 379 l 267 379 m 67 575 l 267 575 l 267 822 l 263 822 l 67 575 z "},"⁵":{"ha":458,"x_min":35,"x_max":400,"o":"m 174 365 q 71 387 107 365 q 35 442 35 408 q 48 472 35 460 q 81 485 61 485 q 130 464 110 485 q 154 413 150 443 q 206 401 176 401 q 291 434 257 401 q 325 518 325 467 q 67 665 325 633 l 126 901 l 400 901 l 397 828 l 151 828 l 125 728 q 397 547 397 694 q 331 419 397 474 q 174 365 264 365 z "},"⁶":{"ha":458,"x_min":35,"x_max":428,"o":"m 232 367 q 90 425 144 367 q 35 571 35 483 q 138 800 35 704 q 399 919 242 896 l 407 892 q 129 654 188 840 l 132 651 q 267 701 193 701 q 382 656 336 701 q 428 543 428 611 q 369 416 428 465 q 232 367 310 367 m 242 396 q 317 431 289 396 q 344 521 344 467 q 310 619 344 582 q 226 657 276 657 q 129 622 172 657 q 124 563 124 606 q 156 447 124 497 q 242 396 189 396 z "},"⁷":{"ha":458,"x_min":42,"x_max":438,"o":"m 107 372 l 368 832 l 368 836 l 231 836 q 128 832 149 836 q 99 810 107 828 l 74 760 l 42 760 l 61 904 l 433 904 l 438 869 l 172 372 l 107 372 z "},"⁸":{"ha":458,"x_min":36,"x_max":422,"o":"m 219 365 q 90 403 143 365 q 36 501 36 442 q 163 636 36 592 l 163 638 q 49 769 49 689 q 99 872 49 826 q 238 917 150 917 q 358 879 310 917 q 407 783 407 842 q 296 660 407 703 l 296 658 q 390 599 357 631 q 422 515 422 567 q 367 409 422 453 q 219 365 311 365 m 265 671 q 328 775 328 713 q 297 853 328 821 q 217 886 267 886 q 147 861 174 886 q 119 800 119 836 q 131 757 119 776 q 166 722 142 738 q 209 696 190 706 q 265 671 228 686 m 240 396 q 321 422 290 396 q 351 488 351 449 q 261 593 351 549 q 192 624 246 600 q 115 508 115 575 q 149 428 114 460 q 240 396 185 396 z "},"⁹":{"ha":458,"x_min":31,"x_max":424,"o":"m 60 361 l 51 389 q 328 629 272 440 l 326 631 q 192 581 263 581 q 76 626 122 581 q 31 738 31 671 q 89 867 31 817 q 226 917 147 917 q 369 858 314 917 q 424 711 424 799 q 320 483 424 579 q 60 361 217 386 m 232 624 q 328 660 283 624 q 335 719 335 671 q 302 835 335 785 q 215 885 269 885 q 142 849 169 885 q 114 760 114 813 q 148 662 114 700 q 232 624 182 624 z "},"⁺":{"ha":458,"x_min":63,"x_max":410,"o":"m 410 621 l 258 621 l 258 465 l 215 465 l 215 621 l 63 621 l 65 663 l 215 663 l 215 817 l 258 817 l 258 663 l 407 663 l 410 621 z "},"⁻":{"ha":458,"x_min":69,"x_max":417,"o":"m 417 618 l 69 618 l 71 664 l 414 664 l 417 618 z "},"₀":{"ha":458,"x_min":26,"x_max":432,"o":"m 229 -210 q 83 -140 139 -210 q 26 56 26 -71 q 84 258 26 181 q 233 335 142 335 q 376 265 321 335 q 432 68 432 194 q 377 -133 432 -56 q 229 -210 322 -210 m 236 -178 q 342 51 342 -178 q 228 303 342 303 q 118 74 118 303 q 236 -178 118 -178 z "},"₁":{"ha":458,"x_min":74,"x_max":388,"o":"m 81 -199 l 83 -164 l 179 -153 q 200 -133 200 -147 l 200 264 l 74 272 l 76 297 l 283 339 l 283 -133 q 304 -153 283 -149 l 385 -164 l 388 -199 l 81 -199 z "},"₂":{"ha":458,"x_min":28,"x_max":428,"o":"m 32 -199 l 28 -154 q 92 -96 51 -132 q 153 -42 133 -60 q 202 5 172 -24 q 246 51 232 33 q 275 92 260 69 q 297 135 290 115 q 303 175 303 154 q 273 247 303 221 q 197 272 243 272 q 54 201 115 272 l 40 219 q 233 339 115 339 q 351 298 306 339 q 397 197 397 257 q 385 137 397 165 q 338 72 374 108 q 279 15 303 36 q 190 -58 256 -6 q 96 -133 125 -110 l 106 -137 l 174 -137 q 328 -131 297 -137 q 371 -97 358 -125 l 389 -57 l 428 -57 l 400 -199 l 32 -199 z "},"₃":{"ha":458,"x_min":35,"x_max":406,"o":"m 161 -218 q 69 -199 104 -218 q 35 -150 35 -181 q 48 -120 35 -132 q 81 -108 61 -108 q 129 -128 110 -108 q 154 -179 149 -149 q 183 -181 160 -181 q 277 -147 239 -181 q 315 -61 315 -112 q 282 15 315 -12 q 200 42 249 42 q 118 22 163 42 l 106 46 q 251 139 224 111 q 283 201 283 169 q 257 255 283 236 q 183 274 231 274 q 51 211 117 274 l 35 231 q 231 339 121 339 q 336 310 293 339 q 379 235 379 282 q 338 153 379 186 q 213 78 296 119 l 213 76 q 346 64 288 97 q 406 -39 404 31 q 333 -164 406 -110 q 161 -218 260 -218 z "},"₄":{"ha":458,"x_min":17,"x_max":440,"o":"m 267 -199 l 267 -44 l 21 -44 l 17 -11 l 289 333 l 346 333 l 346 -3 l 440 -3 l 435 -44 l 346 -44 l 346 -199 l 267 -199 m 67 -3 l 267 -3 l 267 244 l 263 244 l 67 -3 z "},"₅":{"ha":458,"x_min":35,"x_max":400,"o":"m 174 -212 q 71 -191 107 -212 q 35 -136 35 -169 q 48 -106 35 -118 q 81 -93 61 -93 q 130 -114 110 -93 q 154 -165 150 -135 q 206 -176 176 -176 q 291 -144 257 -176 q 325 -60 325 -111 q 67 88 325 56 l 126 324 l 400 324 l 397 250 l 151 250 l 125 150 q 397 -31 397 117 q 331 -158 397 -104 q 174 -212 264 -212 z "},"₆":{"ha":458,"x_min":35,"x_max":428,"o":"m 232 -211 q 90 -153 144 -211 q 35 -7 35 -94 q 138 222 35 126 q 399 342 242 318 l 407 314 q 129 76 188 263 l 132 74 q 267 124 193 124 q 382 78 336 124 q 428 -35 428 33 q 369 -162 428 -112 q 232 -211 310 -211 m 242 -182 q 317 -147 289 -182 q 344 -57 344 -111 q 310 42 344 4 q 226 79 276 79 q 129 44 172 79 q 124 -15 124 28 q 156 -131 124 -81 q 242 -182 189 -182 z "},"₇":{"ha":458,"x_min":42,"x_max":438,"o":"m 107 -206 l 368 254 l 368 258 l 231 258 q 128 254 149 258 q 99 232 107 250 l 74 182 l 42 182 l 61 326 l 433 326 l 438 292 l 172 -206 l 107 -206 z "},"₈":{"ha":458,"x_min":36,"x_max":422,"o":"m 219 -212 q 90 -174 143 -212 q 36 -76 36 -136 q 163 58 36 14 l 163 60 q 49 192 49 111 q 99 294 49 249 q 238 339 150 339 q 358 301 310 339 q 407 206 407 264 q 296 82 407 125 l 296 81 q 390 21 357 53 q 422 -62 422 -11 q 367 -169 422 -125 q 219 -212 311 -212 m 265 93 q 328 197 328 135 q 297 276 328 243 q 217 308 267 308 q 147 283 174 308 q 119 222 119 258 q 131 179 119 199 q 166 144 142 160 q 209 118 190 128 q 265 93 228 108 m 240 -182 q 321 -156 290 -182 q 351 -90 351 -129 q 261 15 351 -29 q 192 46 246 22 q 115 -69 115 -3 q 149 -150 114 -118 q 240 -182 185 -182 z "},"₉":{"ha":458,"x_min":31,"x_max":424,"o":"m 60 -217 l 51 -189 q 328 51 272 -137 l 326 53 q 192 3 263 3 q 76 48 122 3 q 31 160 31 93 q 89 289 31 239 q 226 339 147 339 q 369 280 314 339 q 424 133 424 221 q 320 -95 424 1 q 60 -217 217 -192 m 232 46 q 328 82 283 46 q 335 142 335 93 q 302 257 335 207 q 215 307 269 307 q 142 271 169 307 q 114 182 114 235 q 148 84 114 122 q 232 46 182 46 z "},"€":{"ha":717,"x_min":29,"x_max":696,"o":"m 696 147 q 439 -21 608 -21 q 235 65 321 -21 q 122 294 150 151 l 29 294 l 33 349 l 114 349 q 113 411 113 369 q 114 468 113 449 l 29 468 l 33 522 l 121 522 q 245 775 149 679 q 479 871 342 871 q 627 837 567 871 q 688 756 688 803 q 670 711 688 729 q 626 693 653 693 q 570 722 592 693 q 543 793 549 751 q 456 815 510 815 q 299 737 360 815 q 222 522 238 658 l 510 522 l 514 468 l 218 468 l 218 435 q 224 349 218 383 l 510 349 l 514 294 l 233 294 q 323 122 258 182 q 472 61 388 61 q 668 163 583 61 l 696 147 z "},"™":{"ha":1265,"x_min":42,"x_max":1240,"o":"m 1240 351 l 1013 351 l 1015 389 l 1068 397 q 1080 410 1078 399 q 1082 460 1082 422 l 1074 813 l 1060 813 l 906 368 l 843 368 l 717 815 l 703 815 l 692 499 q 692 417 690 433 q 704 396 693 400 l 760 389 l 763 351 l 568 351 l 571 389 l 625 396 q 638 403 633 397 q 644 432 642 410 q 649 499 647 454 l 658 806 q 647 822 658 821 l 588 831 l 585 868 l 781 868 l 886 471 l 899 471 l 1033 868 l 1229 868 l 1226 831 l 1169 822 q 1154 806 1154 821 l 1163 460 q 1183 397 1164 401 l 1238 389 l 1240 351 m 508 868 l 508 686 l 468 686 l 458 735 q 417 813 440 796 q 318 829 394 829 l 314 829 l 314 413 q 326 397 314 399 l 397 389 l 399 351 l 147 351 l 150 389 l 221 397 q 235 413 235 399 l 235 829 l 229 829 q 137 811 163 829 q 92 735 111 793 l 79 686 l 42 686 l 53 868 l 508 868 z "},"−":{"ha":667,"x_min":44,"x_max":622,"o":"m 622 292 l 44 292 l 49 360 l 618 360 l 622 292 z "},"∕":{"ha":753,"x_min":4,"x_max":749,"o":"m 749 886 l 81 -22 l 4 -22 l 674 886 l 749 886 z "},"≈":{"ha":667,"x_min":56,"x_max":611,"o":"m 323 408 q 280 431 323 408 q 214 454 236 454 q 178 451 192 454 q 146 429 165 449 q 114 374 126 410 l 56 374 q 110 484 69 446 q 210 522 150 522 q 335 476 247 522 q 453 431 422 431 q 488 433 475 431 q 521 456 501 436 q 553 511 540 475 l 611 511 q 557 401 597 439 q 457 363 517 363 q 323 408 410 363 m 323 175 q 280 198 323 175 q 214 221 236 221 q 178 218 192 221 q 146 196 165 215 q 114 140 126 176 l 56 140 q 110 251 69 213 q 210 289 150 289 q 335 243 247 289 q 453 197 422 197 q 488 200 475 197 q 521 222 501 203 q 553 278 540 242 l 611 278 q 557 167 597 206 q 457 129 517 129 q 323 175 410 129 z "},"≠":{"ha":667,"x_min":58,"x_max":608,"o":"m 200 -32 l 257 169 l 58 169 l 63 238 l 276 238 l 325 411 l 63 411 l 58 479 l 344 479 l 399 669 l 465 669 l 411 479 l 608 479 l 604 411 l 392 411 l 343 238 l 604 238 l 608 169 l 324 169 l 267 -32 l 200 -32 z "},"≤":{"ha":667,"x_min":44,"x_max":622,"o":"m 593 138 l 44 364 l 44 400 l 593 631 l 608 571 l 174 389 l 174 376 l 608 193 l 593 138 m 622 19 l 44 19 l 49 88 l 618 88 l 622 19 z "},"≥":{"ha":667,"x_min":44,"x_max":622,"o":"m 622 19 l 44 19 l 49 88 l 618 88 l 622 19 m 622 364 l 74 138 l 58 193 l 493 376 l 493 389 l 58 571 l 74 631 l 622 400 l 622 364 z "},"ⓟ":{"ha":1019,"x_min":56,"x_max":964,"o":"m 831 756 q 898 689 831 756 q 964 433 964 622 q 831 112 964 244 q 510 -21 699 -21 q 188 112 321 -21 q 56 433 56 244 q 188 756 56 622 q 510 889 321 889 q 831 756 699 889 m 795 145 q 855 205 795 145 q 914 433 914 265 q 795 722 914 601 q 510 843 676 843 q 224 722 343 843 q 106 433 106 601 q 224 145 106 265 q 510 25 343 25 q 795 145 676 25 m 724 546 q 668 425 724 472 q 536 378 613 378 q 472 382 506 378 l 472 254 q 486 239 472 242 l 553 231 l 554 190 l 331 190 l 333 231 l 386 239 q 400 254 400 240 l 400 621 q 386 635 400 633 l 333 644 l 331 683 l 529 683 q 674 646 625 683 q 724 546 724 608 m 617 449 q 633 464 617 449 q 649 532 649 479 q 614 613 649 585 q 517 640 579 642 l 472 640 l 472 425 q 533 418 507 418 q 617 449 586 418 z "},"":{"ha":556,"x_min":183,"x_max":361,"o":"m 361 -178 q 316 -290 361 -242 q 207 -364 271 -337 l 183 -342 q 276 -224 276 -303 q 268 -187 276 -203 q 247 -162 260 -171 q 222 -147 235 -153 q 201 -139 210 -142 q 193 -135 193 -136 q 212 -89 193 -107 q 265 -71 231 -71 q 333 -103 304 -71 q 361 -178 361 -135 z "},"ﬀ":{"ha":833,"x_min":17,"x_max":936,"o":"m 936 885 q 919 839 936 856 q 875 822 901 822 q 822 845 846 822 q 789 908 799 868 l 788 915 l 751 918 q 632 663 632 868 l 632 618 l 824 618 l 814 554 l 632 554 l 632 72 q 671 53 632 54 l 761 47 l 765 0 l 436 0 l 440 47 l 497 53 q 532 74 532 56 l 532 556 l 232 556 l 232 86 q 257 60 232 64 l 367 47 l 371 0 l 36 0 l 40 47 l 110 60 q 133 86 133 64 l 133 551 l 17 557 l 25 618 l 126 618 l 128 640 q 222 867 140 779 q 415 954 303 954 q 501 931 465 954 q 536 871 536 907 q 519 825 536 842 q 476 808 503 808 q 389 894 411 808 l 388 901 l 353 904 q 232 649 232 854 l 232 618 l 525 618 l 526 653 q 617 879 533 790 q 815 968 701 968 q 901 944 865 968 q 936 885 936 921 z "},"ﬁ":{"ha":767,"x_min":17,"x_max":733,"o":"m 733 0 l 436 0 l 440 47 l 497 53 q 532 74 532 54 l 532 554 l 232 554 l 232 72 q 271 53 232 54 l 363 47 l 367 0 l 36 0 l 40 47 l 99 53 q 133 74 133 54 l 133 551 l 17 557 l 25 618 l 126 618 l 128 653 q 220 881 135 794 q 440 968 306 968 q 537 942 493 968 q 581 872 581 917 q 563 827 581 844 q 518 810 544 810 q 433 890 451 810 l 432 897 l 351 913 q 232 663 232 863 l 232 618 l 475 618 l 632 639 l 632 72 q 671 53 632 54 l 729 47 l 733 0 z "},"ﬂ":{"ha":769,"x_min":17,"x_max":733,"o":"m 532 554 l 232 554 l 232 72 q 271 53 232 54 l 363 47 l 367 0 l 36 0 l 40 47 l 99 53 q 133 74 133 54 l 133 551 l 17 557 l 25 618 l 126 618 l 128 653 q 220 881 135 794 q 440 968 306 968 q 538 942 493 968 l 632 968 l 632 72 q 671 53 632 54 l 729 47 l 733 0 l 436 0 l 440 47 l 497 53 q 532 74 532 54 l 532 554 m 532 811 q 518 810 528 810 q 433 890 451 810 l 432 897 l 351 913 q 232 663 232 863 l 232 618 l 532 618 l 532 811 z "},"ﬃ":{"ha":1165,"x_min":17,"x_max":1132,"o":"m 874 618 l 1031 639 l 1031 72 q 1069 53 1031 54 l 1128 47 l 1132 0 l 835 0 l 839 47 l 897 53 q 932 74 932 54 l 932 554 l 632 554 l 632 72 q 671 53 632 54 l 761 47 l 765 0 l 436 0 l 440 47 l 497 53 q 532 74 532 56 l 532 556 l 232 556 l 232 86 q 257 60 232 64 l 367 47 l 371 0 l 36 0 l 40 47 l 110 60 q 133 86 133 64 l 133 551 l 17 557 l 25 618 l 126 618 l 128 640 q 222 867 140 779 q 415 954 303 954 q 501 931 465 954 q 536 871 536 907 q 519 825 536 842 q 476 808 503 808 q 423 831 447 808 q 389 894 399 854 l 388 901 l 353 904 q 232 649 232 854 l 232 618 l 525 618 l 526 653 q 619 881 533 793 q 839 968 704 968 q 935 942 892 968 q 979 872 979 917 q 962 828 979 846 q 918 810 944 810 q 832 890 853 810 l 831 897 l 751 913 q 632 663 632 863 l 632 618 l 874 618 z "},"ﬄ":{"ha":1168,"x_min":17,"x_max":1132,"o":"m 932 554 l 632 554 l 632 72 q 671 53 632 54 l 761 47 l 765 0 l 436 0 l 440 47 l 497 53 q 532 74 532 56 l 532 556 l 232 556 l 232 86 q 257 60 232 64 l 367 47 l 371 0 l 36 0 l 40 47 l 110 60 q 133 86 133 64 l 133 551 l 17 557 l 25 618 l 126 618 l 128 640 q 222 867 140 779 q 415 954 303 954 q 501 931 465 954 q 536 871 536 907 q 519 825 536 842 q 476 808 503 808 q 423 831 447 808 q 389 894 399 854 l 388 901 l 353 904 q 232 649 232 854 l 232 618 l 525 618 l 526 653 q 619 881 533 793 q 839 968 704 968 q 936 942 892 968 l 1031 968 l 1031 72 q 1069 53 1031 54 l 1128 47 l 1132 0 l 835 0 l 839 47 l 897 53 q 932 74 932 54 l 932 554 m 932 811 q 918 810 928 810 q 832 890 853 810 l 831 897 l 751 913 q 632 663 632 863 l 632 618 l 932 618 l 932 811 z "}}}
